<?xml version="1.0" encoding="utf-8"?>
<!-- Generator: Adobe Illustrator 23.0.1, SVG Export Plug-In . SVG Version: 6.00 Build 0)  -->
<!DOCTYPE svg PUBLIC "-//W3C//DTD SVG 1.1//EN" "http://www.w3.org/Graphics/SVG/1.1/DTD/svg11.dtd" [
	<!ENTITY st0 "fill:none;stroke:#F7931E;stroke-width:2;stroke-miterlimit:10;">
	<!ENTITY st1 "fill:#F7931E;">
	<!ENTITY st2 "fill:#ECEDF2;">
	<!ENTITY st3 "fill:none;stroke:#BAC0CF;stroke-miterlimit:10;">
	<!ENTITY st4 "fill:#DA3E5B;">
	<!ENTITY st5 "fill:#22B3CC;">
	<!ENTITY st6 "fill:#8D4390;">
	<!ENTITY st7 "fill:none;stroke:#9A9FAF;stroke-width:2;stroke-miterlimit:10;">
	<!ENTITY st8 "fill:none;stroke:#9A9FAF;stroke-width:2;stroke-miterlimit:10;stroke-dasharray:5.9414382,2.9707191;">
	<!ENTITY st9 "display:none;">
]>
<svg version="1.1" xmlns="http://www.w3.org/2000/svg" xmlns:xlink="http://www.w3.org/1999/xlink" x="0px" y="0px" width="800px"
	 height="400px" viewBox="0 0 800 400" style="enable-background:new 0 0 800 400;" xml:space="preserve">
<g id="Layer_3">
	<g>
		<g>
			<line style="&st0;" x1="184.5608673" y1="89.6770782" x2="184.5608673" y2="59.3333321"/>
			<g>
				<path style="&st1;" d="M184.5608673,99.3333359c1.6859283-4.5436859,4.5625-10.1812515,7.609375-13.6757812l-7.609375,2.7523422
					l-7.6078033-2.7523422C179.9999237,89.1520844,182.8764954,94.78965,184.5608673,99.3333359z"/>
			</g>
		</g>
	</g>
	<g>
		<path style="&st2;" d="M239.5608673,60h-110c-2.7614288,0-5-2.238575-5-5V25c0-2.7614231,2.2385712-5,5-5h110
			c2.7614288,0,5,2.2385769,5,5v30C244.5608673,57.761425,242.3222961,60,239.5608673,60z"/>
		<g>
			<path d="M140.46875,35.1074219h1.1621094v3.8798828h1.5830078l1.2890625-2.3398438
				c0.7705078-1.3867188,1.2470703-1.7089844,2.0732422-1.7089844c0.1679688,0,0.3642578,0.0283203,0.5039062,0.0839844
				l-0.1962891,1.0927734c-0.1113281-0.0419922-0.2519531-0.0556641-0.3359375-0.0556641
				c-0.3916016,0-0.6445312,0.1679688-1.1904297,1.1621094l-1.21875,2.171875l3.1660156,4.9023438h-1.2753906l-2.8291016-4.3564453
				h-1.5693359v4.3564453H140.46875V35.1074219z"/>
			<path d="M147.875,40.90625c0-2.2832031,1.484375-3.5859375,3.1513672-3.5859375s3.1513672,1.3027344,3.1513672,3.5859375
				c0,2.2548828-1.484375,3.5576172-3.1513672,3.5576172S147.875,43.1611328,147.875,40.90625z M152.9873047,40.90625
				c0-1.5693359-0.7841797-2.6337891-1.9609375-2.6337891c-1.1621094,0-1.9609375,1.0644531-1.9609375,2.6337891
				c0,1.5546875,0.7988281,2.6054688,1.9609375,2.6054688C152.203125,43.5117188,152.9873047,42.4609375,152.9873047,40.90625z"/>
			<path d="M155.9667969,37.4882812h0.953125l0.0976562,0.7841797h0.0419922
				c0.6162109-0.5185547,1.3730469-0.9521484,2.1708984-0.9521484c1.7509766,0,2.6894531,1.3583984,2.6894531,3.4736328
				c0,2.3115234-1.3867188,3.6699219-2.9414062,3.6699219c-0.6298828,0-1.2607422-0.2939453-1.890625-0.7841797l0.0273438,1.1904297
				v2.296875h-1.1484375V37.4882812z M160.7294922,40.7939453c0-1.4990234-0.5039062-2.5068359-1.7929688-2.5068359
				c-0.5742188,0-1.1484375,0.3212891-1.8212891,0.9238281v3.5722656c0.6171875,0.5185547,1.21875,0.7138672,1.6669922,0.7138672
				C159.9033203,43.4970703,160.7294922,42.4746094,160.7294922,40.7939453z"/>
			<path d="M163.7363281,37.4882812h1.1484375v2.7597656h3.2783203v-2.7597656h1.1484375v6.8076172h-1.1484375v-3.0253906
				h-3.2783203v3.0253906h-1.1484375V37.4882812z"/>
			<path d="M171.1005859,40.90625c0-2.2275391,1.4990234-3.5859375,3.0537109-3.5859375
				c1.7363281,0,2.7167969,1.2460938,2.7167969,3.1933594c0,0.2382812-0.0136719,0.4902344-0.0419922,0.6582031h-4.59375
				c0.0839844,1.4433594,0.9658203,2.3671875,2.2685547,2.3671875c0.6445312,0,1.1914062-0.2099609,1.6953125-0.5322266
				l0.40625,0.7568359c-0.5888672,0.3779297-1.3164062,0.7001953-2.2412109,0.7001953
				C172.5429688,44.4638672,171.1005859,43.1328125,171.1005859,40.90625z M175.8632812,40.3457031
				c0-1.3730469-0.6162109-2.1152344-1.6816406-2.1152344c-0.9521484,0-1.8203125,0.7705078-1.9609375,2.1152344H175.8632812z"/>
			<path d="M178.5478516,37.4882812h2.6191406c1.4853516,0,2.5078125,0.4902344,2.5078125,1.7226562
				c0,0.7568359-0.4345703,1.2470703-1.1347656,1.4570312v0.0419922c0.7705078,0.1816406,1.4287109,0.6582031,1.4287109,1.6386719
				c0,1.3447266-1.1201172,1.9472656-2.6894531,1.9472656h-2.7314453V37.4882812z M180.9716797,40.3457031
				c1.1337891,0,1.5830078-0.3925781,1.5830078-1.0224609s-0.4492188-1.0087891-1.4990234-1.0087891h-1.3730469v2.03125H180.9716797
				z M181.1533203,43.4697266c1.1210938,0,1.6669922-0.4345703,1.6669922-1.1904297
				c0-0.6865234-0.5878906-1.1074219-1.7373047-1.1074219h-1.4003906v2.2978516H181.1533203z"/>
			<path d="M185.15625,40.90625c0-2.2832031,1.484375-3.5859375,3.1513672-3.5859375s3.1513672,1.3027344,3.1513672,3.5859375
				c0,2.2548828-1.484375,3.5576172-3.1513672,3.5576172S185.15625,43.1611328,185.15625,40.90625z M190.2685547,40.90625
				c0-1.5693359-0.7841797-2.6337891-1.9609375-2.6337891c-1.1621094,0-1.9609375,1.0644531-1.9609375,2.6337891
				c0,1.5546875,0.7988281,2.6054688,1.9609375,2.6054688C189.484375,43.5117188,190.2685547,42.4609375,190.2685547,40.90625z"/>
			<path d="M193.2480469,37.4882812h1.1210938v2.8291016c0,0.7285156-0.0566406,1.6396484-0.1123047,2.5078125H194.3125
				c0.2519531-0.4199219,0.6582031-1.0371094,0.8964844-1.4570312l2.578125-3.8798828h1.078125v6.8076172h-1.1201172v-2.8291016
				c0-0.7285156,0.0556641-1.6396484,0.1113281-2.5214844h-0.0556641c-0.2519531,0.4199219-0.6582031,1.0498047-0.8964844,1.4560547
				L194.3125,44.2958984h-1.0644531V37.4882812z M193.8925781,34.1259766h0.9521484
				c0.0283203,0.7988281,0.3222656,1.4716797,1.2470703,1.4716797s1.21875-0.6728516,1.2470703-1.4716797h0.9521484
				c-0.0556641,1.0927734-0.6308594,2.1435547-2.1992188,2.1435547
				C194.5224609,36.2695312,193.9482422,35.21875,193.8925781,34.1259766z"/>
			<path d="M203.2714844,47.0830078l0.2246094-0.9101562c0.1396484,0.0419922,0.3496094,0.0976562,0.5185547,0.0976562
				c0.7695312,0,1.2607422-0.6162109,1.5400391-1.4560547l0.1542969-0.5048828l-2.7314453-6.8212891h1.1904297l1.3867188,3.7675781
				c0.2109375,0.5888672,0.4482422,1.2890625,0.6591797,1.9199219h0.0556641
				c0.1962891-0.6171875,0.3925781-1.3173828,0.5742188-1.9199219l1.21875-3.7675781h1.1201172l-2.5634766,7.3681641
				c-0.4755859,1.3447266-1.1757812,2.3671875-2.5488281,2.3671875
				C203.7617188,47.2236328,203.4960938,47.1669922,203.2714844,47.0830078z"/>
			<path d="M209.6699219,43.5957031l0.4902344-0.7421875c0.6298828,0.5175781,1.3027344,0.6855469,1.9892578,0.6855469
				c0.9238281,0,1.6943359-0.4619141,1.6943359-1.2177734c0-0.7705078-0.6298828-1.1494141-1.7363281-1.1494141h-0.9394531
				v-0.8261719h0.7705078c1.0927734,0,1.6396484-0.40625,1.6396484-1.078125c0-0.6865234-0.5888672-1.0371094-1.4150391-1.0371094
				c-0.7841797,0-1.3027344,0.2099609-1.8486328,0.6025391l-0.4902344-0.7568359
				c0.6582031-0.4619141,1.4140625-0.7558594,2.3945312-0.7558594c1.3310547,0,2.4794922,0.5878906,2.4794922,1.8349609
				c0,0.6582031-0.4199219,1.2324219-1.1201172,1.5126953v0.0556641c0.7841797,0.2099609,1.4140625,0.7148438,1.4140625,1.6953125
				c0,1.2607422-1.2880859,2.0449219-2.7451172,2.0449219C211.3085938,44.4638672,210.4677734,44.2539062,209.6699219,43.5957031z"
				/>
			<path d="M216.1796875,40.90625c0-2.2275391,1.4990234-3.5859375,3.0537109-3.5859375
				c1.7363281,0,2.7167969,1.2460938,2.7167969,3.1933594c0,0.2382812-0.0136719,0.4902344-0.0419922,0.6582031h-4.59375
				c0.0839844,1.4433594,0.9658203,2.3671875,2.2685547,2.3671875c0.6445312,0,1.1914062-0.2099609,1.6953125-0.5322266
				l0.40625,0.7568359c-0.5888672,0.3779297-1.3164062,0.7001953-2.2412109,0.7001953
				C217.6220703,44.4638672,216.1796875,43.1328125,216.1796875,40.90625z M220.9423828,40.3457031
				c0-1.3730469-0.6162109-2.1152344-1.6816406-2.1152344c-0.9521484,0-1.8203125,0.7705078-1.9609375,2.1152344H220.9423828z"/>
			<path d="M222.6181641,44.3515625l0.2246094-1.0644531c0.0839844,0.0283203,0.1816406,0.0566406,0.3076172,0.0566406
				c0.4765625,0,0.7851562-0.4345703,0.9111328-1.4433594c0.1816406-1.4707031,0.3496094-2.9414062,0.5185547-4.4121094h4.1875
				v6.8076172h-1.1621094v-5.8691406h-2.1152344c-0.140625,1.2470703-0.2939453,2.5214844-0.4482422,3.7675781
				c-0.1962891,1.5136719-0.7988281,2.2695312-1.8066406,2.2695312
				C222.9824219,44.4638672,222.8144531,44.421875,222.6181641,44.3515625z"/>
		</g>
	</g>
	<g>
		<path style="&st2;" d="M239.5608673,139.3333282h-110c-2.7614288,0-5-2.2385712-5-5v-29.9999924c0-2.7614288,2.2385712-5,5-5h110
			c2.7614288,0,5,2.2385712,5,5v29.9999924C244.5608673,137.0947571,242.3222961,139.3333282,239.5608673,139.3333282z"/>
		<g>
			<path d="M140.7568359,114.4404297h1.3173828l3.109375,9.1884766h-1.2470703l-0.8681641-2.8017578h-3.3476562
				l-0.8828125,2.8017578h-1.1904297L140.7568359,114.4404297z M140.0146484,119.8886719h2.7597656l-0.4345703-1.4003906
				c-0.3359375-1.0224609-0.6298828-2.03125-0.9238281-3.0957031h-0.0566406
				c-0.2802734,1.0644531-0.5742188,2.0732422-0.9101562,3.0957031L140.0146484,119.8886719z"/>
			<path d="M147.6728516,117.7597656h-2.2832031v-0.9384766h5.7148438v0.9384766h-2.2832031v5.8691406h-1.1484375V117.7597656z"/>
			<path d="M152.6132812,116.8212891h0.953125l0.0976562,0.7841797h0.0419922
				c0.6162109-0.5185547,1.3730469-0.9521484,2.1708984-0.9521484c1.7509766,0,2.6894531,1.3583984,2.6894531,3.4736328
				c0,2.3115234-1.3867188,3.6699219-2.9414062,3.6699219c-0.6298828,0-1.2607422-0.2939453-1.890625-0.7841797l0.0273438,1.1904297
				V126.5h-1.1484375V116.8212891z M157.3759766,120.1269531c0-1.4990234-0.5039062-2.5068359-1.7929688-2.5068359
				c-0.5742188,0-1.1484375,0.3212891-1.8212891,0.9238281v3.5722656c0.6171875,0.5185547,1.21875,0.7138672,1.6669922,0.7138672
				C156.5498047,122.8300781,157.3759766,121.8076172,157.3759766,120.1269531z"/>
			<path d="M160.3828125,116.8212891h1.1210938v2.8291016c0,0.7285156-0.0566406,1.6396484-0.1123047,2.5078125h0.0556641
				c0.2519531-0.4199219,0.6582031-1.0371094,0.8964844-1.4570312l2.578125-3.8798828H166v6.8076172h-1.1201172v-2.8291016
				c0-0.7285156,0.0556641-1.6396484,0.1113281-2.5214844h-0.0556641c-0.2519531,0.4199219-0.6582031,1.0498047-0.8964844,1.4560547
				l-2.5917969,3.8945312h-1.0644531V116.8212891z"/>
			<path d="M167.8867188,119.4970703c0-4.5947266,1.6806641-5.3232422,4.2724609-5.7158203
				c0.7568359-0.1113281,0.9941406-0.1816406,1.4150391-0.3779297l0.2236328,1.0507812
				c-0.3642578,0.2382812-0.8261719,0.3496094-1.4003906,0.4335938c-2.1855469,0.3222656-3.1376953,0.5185547-3.3476562,3.3203125
				c0.6025391-0.7421875,1.4560547-1.1347656,2.3105469-1.1347656c1.6113281,0,2.7314453,1.1904297,2.7314453,3.1796875
				c0,2.1708984-1.34375,3.5439453-2.9970703,3.5439453C169.0634766,123.796875,167.8867188,122.2421875,167.8867188,119.4970703z
				 M172.9013672,120.2529297c0-1.4003906-0.6582031-2.296875-1.8349609-2.296875
				c-0.6582031,0-1.3867188,0.3076172-2.0732422,1.2324219c0,0.1679688,0,0.3505859,0,0.5322266
				c0,1.9755859,0.7148438,3.1240234,2.1015625,3.1240234C172.1455078,122.8447266,172.9013672,121.7939453,172.9013672,120.2529297
				z"/>
			<path d="M175.125,126.4160156l0.2246094-0.9101562c0.1396484,0.0419922,0.3496094,0.0976562,0.5185547,0.0976562
				c0.7695312,0,1.2607422-0.6162109,1.5400391-1.4560547l0.1542969-0.5048828l-2.7314453-6.8212891h1.1904297l1.3867188,3.7675781
				c0.2109375,0.5888672,0.4482422,1.2890625,0.6591797,1.9199219h0.0556641
				c0.1962891-0.6171875,0.3925781-1.3173828,0.5742188-1.9199219l1.21875-3.7675781h1.1201172l-2.5634766,7.3681641
				c-0.4755859,1.3447266-1.1757812,2.3671875-2.5488281,2.3671875C175.6152344,126.5566406,175.3496094,126.5,175.125,126.4160156z
				"/>
			<path d="M183.8486328,117.7597656h-2.2832031v-0.9384766h5.7148438v0.9384766h-2.2832031v5.8691406h-1.1484375V117.7597656z"/>
			<path d="M188.7470703,122.6767578h2.0449219v-6.5839844h-1.625v-0.7421875
				c0.8125-0.140625,1.4013672-0.3642578,1.8916016-0.6582031h0.8828125v7.984375h1.8486328v0.9521484h-5.0429688V122.6767578z"/>
			<path d="M197.875,119.4404297v-0.9238281l6.0087891-2.3535156v0.9941406L200.9287109,118.25l-1.8769531,0.7001953v0.0566406
				l1.8769531,0.7001953l2.9550781,1.0927734v0.9941406L197.875,119.4404297z"/>
			<path d="M207.5068359,122.578125l0.5595703-0.7558594c0.5322266,0.5322266,1.2050781,1.0224609,2.2558594,1.0224609
				c1.0917969,0,1.9609375-0.7988281,1.9609375-2.0449219c0-1.2333984-0.7568359-1.9619141-1.9052734-1.9619141
				c-0.6162109,0-0.9941406,0.1962891-1.5263672,0.546875l-0.6171875-0.3925781l0.2949219-4.2998047h4.4677734v0.9941406h-3.4599609
				l-0.2373047,2.6474609c0.4199219-0.2236328,0.8261719-0.3642578,1.3720703-0.3642578
				c1.5273438,0,2.7734375,0.8681641,2.7734375,2.8017578c0,1.9326172-1.4560547,3.0253906-3.0117188,3.0253906
				C209.0048828,123.796875,208.1230469,123.1943359,207.5068359,122.578125z"/>
			<path d="M214.7724609,125.3378906c0.7988281-0.3505859,1.2744141-0.9667969,1.2607422-1.7089844
				c-0.0419922,0.0136719-0.0976562,0.0136719-0.1396484,0.0136719c-0.4482422,0-0.8271484-0.2802734-0.8271484-0.7978516
				c0-0.5048828,0.3925781-0.8125,0.8544922-0.8125c0.6025391,0,0.9667969,0.5185547,0.9667969,1.3583984
				c0,1.2050781-0.7001953,2.1435547-1.8349609,2.6191406L214.7724609,125.3378906z"/>
			<path d="M217.9648438,122.5361328l0.5878906-0.7558594c0.5322266,0.5595703,1.2333984,1.0644531,2.2832031,1.0644531
				c1.0791016,0,1.8496094-0.6445312,1.8496094-1.6386719c0-1.0654297-0.7285156-1.7792969-2.8574219-1.7792969v-0.8828125
				c1.9042969,0,2.5351562-0.7285156,2.5351562-1.6669922c0-0.8681641-0.5888672-1.4140625-1.5410156-1.4140625
				c-0.7421875,0-1.3730469,0.3779297-1.9052734,0.9101562l-0.6162109-0.7285156
				c0.6865234-0.6445312,1.5126953-1.1201172,2.5634766-1.1201172c1.5546875,0,2.6757812,0.8261719,2.6757812,2.2685547
				c0,1.0791016-0.6582031,1.765625-1.625,2.1298828v0.0556641c1.078125,0.2519531,1.9326172,1.0361328,1.9326172,2.2695312
				c0,1.5820312-1.3027344,2.5488281-2.9414062,2.5488281C219.4775391,123.796875,218.5673828,123.1943359,217.9648438,122.5361328z
				"/>
			<path d="M224.9091797,122.578125l0.5595703-0.7558594c0.5322266,0.5322266,1.2050781,1.0224609,2.2558594,1.0224609
				c1.0917969,0,1.9609375-0.7988281,1.9609375-2.0449219c0-1.2333984-0.7568359-1.9619141-1.9052734-1.9619141
				c-0.6162109,0-0.9941406,0.1962891-1.5263672,0.546875l-0.6171875-0.3925781l0.2949219-4.2998047h4.4677734v0.9941406h-3.4599609
				l-0.2373047,2.6474609c0.4199219-0.2236328,0.8261719-0.3642578,1.3720703-0.3642578
				c1.5273438,0,2.7734375,0.8681641,2.7734375,2.8017578c0,1.9326172-1.4560547,3.0253906-3.0117188,3.0253906
				C226.4072266,123.796875,225.5253906,123.1943359,224.9091797,122.578125z"/>
		</g>
	</g>
	<g>
		<path d="M571.7734375,353.8339844l0.5595703-0.7558594c0.5322266,0.5322266,1.2050781,1.0224609,2.2558594,1.0224609
			c1.0917969,0,1.9609375-0.7988281,1.9609375-2.0449219c0-1.2333984-0.7568359-1.9619141-1.9052734-1.9619141
			c-0.6162109,0-0.9941406,0.1962891-1.5263672,0.546875l-0.6171875-0.3925781l0.2949219-4.2998047h4.4677734v0.9941406h-3.4599609
			l-0.2373047,2.6474609c0.4199219-0.2236328,0.8261719-0.3642578,1.3720703-0.3642578
			c1.5273438,0,2.7734375,0.8681641,2.7734375,2.8017578c0,1.9326172-1.4560547,3.0253906-3.0117188,3.0253906
			C573.2714844,355.0527344,572.3896484,354.4501953,571.7734375,353.8339844z"/>
		<path d="M579.0390625,356.59375c0.7988281-0.3505859,1.2744141-0.9667969,1.2607422-1.7089844
			c-0.0419922,0.0136719-0.0976562,0.0136719-0.1396484,0.0136719c-0.4482422,0-0.8271484-0.2802734-0.8271484-0.7978516
			c0-0.5048828,0.3925781-0.8125,0.8544922-0.8125c0.6025391,0,0.9667969,0.5185547,0.9667969,1.3583984
			c0,1.2050781-0.7001953,2.1435547-1.8349609,2.6191406L579.0390625,356.59375z"/>
		<path d="M582.2314453,353.7919922l0.5878906-0.7558594c0.5322266,0.5595703,1.2333984,1.0644531,2.2832031,1.0644531
			c1.0791016,0,1.8496094-0.6445312,1.8496094-1.6386719c0-1.0654297-0.7285156-1.7792969-2.8574219-1.7792969v-0.8828125
			c1.9042969,0,2.5351562-0.7285156,2.5351562-1.6669922c0-0.8681641-0.5888672-1.4140625-1.5410156-1.4140625
			c-0.7421875,0-1.3730469,0.3779297-1.9052734,0.9101562l-0.6162109-0.7285156
			c0.6865234-0.6445312,1.5126953-1.1201172,2.5634766-1.1201172c1.5546875,0,2.6757812,0.8261719,2.6757812,2.2685547
			c0,1.0791016-0.6582031,1.765625-1.625,2.1298828v0.0556641c1.078125,0.2519531,1.9326172,1.0361328,1.9326172,2.2695312
			c0,1.5820312-1.3027344,2.5488281-2.9414062,2.5488281C583.7441406,355.0527344,582.8339844,354.4501953,582.2314453,353.7919922z
			"/>
		<path d="M589.1757812,353.8339844l0.5595703-0.7558594c0.5322266,0.5322266,1.2050781,1.0224609,2.2558594,1.0224609
			c1.0917969,0,1.9609375-0.7988281,1.9609375-2.0449219c0-1.2333984-0.7568359-1.9619141-1.9052734-1.9619141
			c-0.6162109,0-0.9941406,0.1962891-1.5263672,0.546875l-0.6171875-0.3925781l0.2949219-4.2998047h4.4677734v0.9941406h-3.4599609
			l-0.2373047,2.6474609c0.4199219-0.2236328,0.8261719-0.3642578,1.3720703-0.3642578
			c1.5273438,0,2.7734375,0.8681641,2.7734375,2.8017578c0,1.9326172-1.4560547,3.0253906-3.0117188,3.0253906
			C590.6738281,355.0527344,589.7919922,354.4501953,589.1757812,353.8339844z"/>
	</g>
	<g>
		<path style="&st2;" d="M305.8112183,245.5H193.3112335c-2.0710754,0-3.75-1.790863-3.75-4v-32c0-2.209137,1.6789246-4,3.75-4
			h112.4999847c2.0710754,0,3.75,1.790863,3.75,4v32C309.5612183,243.709137,307.8822937,245.5,305.8112183,245.5z"/>
		<g>
			<path d="M233.2607422,220.6074219h1.1621094v3.8798828h1.5830078l1.2890625-2.3398438
				c0.7705078-1.3867188,1.2470703-1.7089844,2.0732422-1.7089844c0.1679688,0,0.3642578,0.0283203,0.5039062,0.0839844
				l-0.1962891,1.0927734c-0.1113281-0.0419922-0.2519531-0.0556641-0.3359375-0.0556641
				c-0.3925781,0-0.6445312,0.1679688-1.1904297,1.1621094l-1.21875,2.171875l3.1660156,4.9023438h-1.2753906l-2.8291016-4.3564453
				h-1.5693359v4.3564453h-1.1621094V220.6074219z"/>
			<path d="M240.5400391,229.8515625l0.2246094-1.0644531c0.0839844,0.0283203,0.1816406,0.0566406,0.3076172,0.0566406
				c0.4765625,0,0.7851562-0.4345703,0.9111328-1.4433594c0.1816406-1.4707031,0.3496094-2.9414062,0.5185547-4.4121094h4.1875
				v6.8076172h-1.1621094v-5.8691406h-2.1152344c-0.140625,1.2470703-0.2939453,2.5214844-0.4482422,3.7675781
				c-0.1962891,1.5136719-0.7988281,2.2695312-1.8066406,2.2695312
				C240.9042969,229.9638672,240.7363281,229.921875,240.5400391,229.8515625z"/>
			<path d="M248.5625,228.03125c0-1.4853516,1.2744141-2.2275391,4.1738281-2.5498047
				c0-0.8681641-0.2802734-1.7089844-1.4003906-1.7089844c-0.7841797,0-1.4990234,0.3642578-2.03125,0.7285156l-0.4482422-0.7988281
				c0.6308594-0.4052734,1.5830078-0.8818359,2.6757812-0.8818359c1.6669922,0,2.3671875,1.1064453,2.3671875,2.8017578v4.1738281
				h-0.953125l-0.0976562-0.8125h-0.0419922c-0.6445312,0.5322266-1.4003906,0.9804688-2.2548828,0.9804688
				C249.4169922,229.9638672,248.5625,229.25,248.5625,228.03125z M252.7363281,228.1289062v-1.890625
				c-2.2685547,0.2802734-3.0537109,0.8398438-3.0537109,1.7089844c0,0.7705078,0.5322266,1.0917969,1.2050781,1.0917969
				C251.5458984,229.0390625,252.078125,228.7177734,252.7363281,228.1289062z"/>
			<path d="M255.5341797,226.40625c0-2.2832031,1.5263672-3.5859375,3.2773438-3.5859375
				c0.8964844,0,1.5126953,0.3642578,1.9892578,0.7978516L260.2128906,224.375
				c-0.3925781-0.3505859-0.8125-0.6025391-1.359375-0.6025391c-1.2324219,0-2.1289062,1.0644531-2.1289062,2.6337891
				c0,1.5546875,0.8544922,2.6054688,2.1015625,2.6054688c0.6298828,0,1.1757812-0.3085938,1.5966797-0.6865234l0.5039062,0.7705078
				c-0.6162109,0.5458984-1.3867188,0.8681641-2.1992188,0.8681641
				C256.9208984,229.9638672,255.5341797,228.6611328,255.5341797,226.40625z"/>
			<path d="M261.6240234,226.40625c0-2.2832031,1.5263672-3.5859375,3.2773438-3.5859375
				c0.8964844,0,1.5126953,0.3642578,1.9892578,0.7978516L266.3027344,224.375
				c-0.3925781-0.3505859-0.8125-0.6025391-1.359375-0.6025391c-1.2324219,0-2.1289062,1.0644531-2.1289062,2.6337891
				c0,1.5546875,0.8544922,2.6054688,2.1015625,2.6054688c0.6298828,0,1.1757812-0.3085938,1.5966797-0.6865234l0.5039062,0.7705078
				c-0.6162109,0.5458984-1.3867188,0.8681641-2.1992188,0.8681641
				C263.0107422,229.9638672,261.6240234,228.6611328,261.6240234,226.40625z"/>
			<path d="M271.2695312,228.84375h2.0449219v-6.5839844h-1.625v-0.7421875
				c0.8125-0.140625,1.4013672-0.3642578,1.8916016-0.6582031h0.8828125v7.984375H276.3125v0.9521484h-5.0429688V228.84375z"/>
		</g>
	</g>
	<g>
		<path d="M442.5917969,31.5h1.3291016v4.4335938h1.8085938l1.4726562-2.6728516
			c0.8798828-1.5849609,1.4238281-1.953125,2.3681641-1.953125c0.1923828,0,0.4169922,0.0322266,0.5771484,0.0957031
			l-0.2246094,1.2490234c-0.1279297-0.0478516-0.2880859-0.0644531-0.3837891-0.0644531
			c-0.4482422,0-0.7363281,0.1923828-1.3613281,1.3291016l-1.3916016,2.4804688L450.4033203,42h-1.4570312l-3.2333984-4.9775391
			h-1.7919922V42h-1.3291016V31.5z"/>
		<path d="M450.9111328,42.0644531l0.2558594-1.2167969c0.0957031,0.0322266,0.2080078,0.0634766,0.3525391,0.0634766
			c0.5439453,0,0.8964844-0.4960938,1.0400391-1.6484375c0.2080078-1.6806641,0.4003906-3.3613281,0.5927734-5.0419922H457.9375V42
			h-1.328125v-6.7070312h-2.4169922c-0.1601562,1.4248047-0.3359375,2.8818359-0.5126953,4.3056641
			c-0.2236328,1.7294922-0.9121094,2.59375-2.0644531,2.59375
			C451.3271484,42.1923828,451.1347656,42.1445312,450.9111328,42.0644531z"/>
		<path d="M460.0791016,39.9833984c0-1.6972656,1.4570312-2.5449219,4.7705078-2.9130859
			c0-0.9931641-0.3203125-1.953125-1.6005859-1.953125c-0.8964844,0-1.7128906,0.4160156-2.3212891,0.8320312l-0.5117188-0.9121094
			c0.7197266-0.4638672,1.8085938-1.0087891,3.0566406-1.0087891c1.9052734,0,2.7050781,1.2646484,2.7050781,3.2021484V42
			h-1.0878906l-0.1123047-0.9287109h-0.0478516c-0.7363281,0.6083984-1.6005859,1.1210938-2.5771484,1.1210938
			C461.0556641,42.1923828,460.0791016,41.3759766,460.0791016,39.9833984z M464.8496094,40.0957031v-2.1611328
			c-2.59375,0.3203125-3.4892578,0.9599609-3.4892578,1.9521484c0,0.8808594,0.6074219,1.2490234,1.3759766,1.2490234
			C463.4892578,41.1357422,464.0966797,40.7675781,464.8496094,40.0957031z"/>
		<path d="M468.0478516,38.1259766c0-2.6083984,1.7451172-4.0976562,3.7451172-4.0976562
			c1.0244141,0,1.7294922,0.4169922,2.2734375,0.9130859l-0.6728516,0.8642578
			c-0.4472656-0.4003906-0.9277344-0.6884766-1.5517578-0.6884766c-1.4091797,0-2.4335938,1.2167969-2.4335938,3.0087891
			c0,1.7773438,0.9765625,2.9775391,2.4013672,2.9775391c0.7197266,0,1.3447266-0.3515625,1.8242188-0.7841797l0.5761719,0.8798828
			c-0.7041016,0.625-1.5839844,0.9931641-2.5126953,0.9931641C469.6328125,42.1923828,468.0478516,40.703125,468.0478516,38.1259766
			z"/>
		<path d="M475.0068359,38.1259766c0-2.6083984,1.7451172-4.0976562,3.7451172-4.0976562
			c1.0244141,0,1.7294922,0.4169922,2.2734375,0.9130859l-0.6728516,0.8642578
			c-0.4472656-0.4003906-0.9277344-0.6884766-1.5517578-0.6884766c-1.4091797,0-2.4335938,1.2167969-2.4335938,3.0087891
			c0,1.7773438,0.9765625,2.9775391,2.4013672,2.9775391c0.7197266,0,1.3447266-0.3515625,1.8242188-0.7841797l0.5761719,0.8798828
			c-0.7041016,0.625-1.5839844,0.9931641-2.5126953,0.9931641C476.5917969,42.1923828,475.0068359,40.703125,475.0068359,38.1259766
			z"/>
		<path d="M486.03125,40.9111328h2.3369141v-7.5224609h-1.8564453v-0.8486328
			c0.9277344-0.1601562,1.6005859-0.4160156,2.1601562-0.7519531h1.0087891v9.1230469h2.1123047V42H486.03125V40.9111328z"/>
	</g>
	<g>
		<path d="M594.2578125,31.4995117h1.3300781v4.4335938h1.8085938l1.4726562-2.6728516
			c0.8789062-1.5849609,1.4238281-1.953125,2.3671875-1.953125c0.1933594,0,0.4179688,0.0322266,0.578125,0.0957031
			l-0.2246094,1.2490234c-0.1289062-0.0478516-0.2890625-0.0644531-0.3847656-0.0644531
			c-0.4472656,0-0.7363281,0.1923828-1.3613281,1.3291016l-1.390625,2.4804688l3.6171875,5.6025391h-1.4570312l-3.234375-4.9775391
			h-1.7910156v4.9775391h-1.3300781V31.4995117z"/>
		<path d="M602.578125,42.0639648l0.2558594-1.2167969c0.0957031,0.0322266,0.2070312,0.0634766,0.3515625,0.0634766
			c0.5449219,0,0.8964844-0.4960938,1.0410156-1.6484375c0.2070312-1.6806641,0.4003906-3.3613281,0.5917969-5.0419922h4.7851562
			v7.7792969h-1.328125v-6.7070312h-2.4160156c-0.1601562,1.4248047-0.3359375,2.8818359-0.5136719,4.3056641
			c-0.2226562,1.7294922-0.9121094,2.59375-2.0644531,2.59375C602.9941406,42.1918945,602.8007812,42.144043,602.578125,42.0639648z
			"/>
		<path d="M611.7460938,39.9829102c0-1.6972656,1.4570312-2.5449219,4.7695312-2.9130859
			c0-0.9931641-0.3203125-1.953125-1.5996094-1.953125c-0.8964844,0-1.7128906,0.4160156-2.3222656,0.8320312l-0.5117188-0.9121094
			c0.7207031-0.4638672,1.8085938-1.0087891,3.0566406-1.0087891c1.90625,0,2.7050781,1.2646484,2.7050781,3.2021484v4.7695312
			h-1.0878906l-0.1113281-0.9287109h-0.0488281c-0.7363281,0.6083984-1.5996094,1.1210938-2.5761719,1.1210938
			C612.7226562,42.1918945,611.7460938,41.3754883,611.7460938,39.9829102z M616.515625,40.0952148V37.934082
			c-2.59375,0.3203125-3.4882812,0.9599609-3.4882812,1.9521484c0,0.8808594,0.6074219,1.2490234,1.375,1.2490234
			C615.15625,41.1352539,615.7636719,40.7670898,616.515625,40.0952148z"/>
		<path d="M619.7148438,38.1254883c0-2.6083984,1.7441406-4.0976562,3.7441406-4.0976562
			c1.0253906,0,1.7304688,0.4169922,2.2734375,0.9130859l-0.671875,0.8642578
			c-0.4472656-0.4003906-0.9277344-0.6884766-1.5527344-0.6884766c-1.4082031,0-2.4335938,1.2167969-2.4335938,3.0087891
			c0,1.7773438,0.9765625,2.9775391,2.4023438,2.9775391c0.71875,0,1.34375-0.3515625,1.8242188-0.7841797l0.5761719,0.8798828
			c-0.7050781,0.625-1.5839844,0.9931641-2.5136719,0.9931641
			C621.2988281,42.1918945,619.7148438,40.7026367,619.7148438,38.1254883z"/>
		<path d="M626.6738281,38.1254883c0-2.6083984,1.7441406-4.0976562,3.7441406-4.0976562
			c1.0253906,0,1.7304688,0.4169922,2.2734375,0.9130859l-0.671875,0.8642578
			c-0.4472656-0.4003906-0.9277344-0.6884766-1.5527344-0.6884766c-1.4082031,0-2.4335938,1.2167969-2.4335938,3.0087891
			c0,1.7773438,0.9765625,2.9775391,2.4023438,2.9775391c0.71875,0,1.34375-0.3515625,1.8242188-0.7841797l0.5761719,0.8798828
			c-0.7050781,0.625-1.5839844,0.9931641-2.5136719,0.9931641
			C628.2578125,42.1918945,626.6738281,40.7026367,626.6738281,38.1254883z"/>
		<path d="M637.0742188,41.215332c3.0722656-3.0576172,4.8007812-4.8984375,4.8007812-6.546875
			c0-1.1679688-0.640625-2.0009766-1.9355469-2.0009766c-0.8496094,0-1.5859375,0.5449219-2.1777344,1.2324219l-0.7519531-0.7519531
			c0.8476562-0.9287109,1.7597656-1.5527344,3.0878906-1.5527344c1.890625,0,3.0585938,1.2001953,3.0585938,3.0097656
			c0,1.9199219-1.7460938,3.8251953-4.1621094,6.3544922c0.5605469-0.0488281,1.1835938-0.0966797,1.7128906-0.0966797h2.9609375
			v1.1367188h-6.59375V41.215332z"/>
	</g>
	<path style="&st2;" d="M315,351.6666565H155c-2.7614288,0-5-2.2385559-5-5v-30c0-2.7614136,2.2385712-5,5-5h160
		c2.7614136,0,5,2.2385864,5,5v30C320,349.4281006,317.7614136,351.6666565,315,351.6666565z"/>
	<path style="&st2;" d="M135,351.6666565H25c-2.7614231,0-5-2.2385559-5-5v-30c0-2.7614136,2.2385769-5,5-5h110
		c2.7614288,0,5,2.2385864,5,5v30C140,349.4281006,137.7614288,351.6666565,135,351.6666565z"/>
	<g>
		<path style="&st2;" d="M175.8112335,245.5h-112.5c-2.0710678,0-3.75-1.790863-3.75-4v-32c0-2.209137,1.6789322-4,3.75-4h112.5
			c2.0710602,0,3.75,1.790863,3.75,4v32C179.5612335,243.709137,177.8822937,245.5,175.8112335,245.5z"/>
		<g>
			<path d="M75.7568359,220.6074219h1.3173828l3.109375,9.1884766h-1.2470703l-0.8681641-2.8017578h-3.3476562l-0.8828125,2.8017578
				h-1.1904297L75.7568359,220.6074219z M75.0146484,226.0556641h2.7597656l-0.4345703-1.4003906
				c-0.3359375-1.0224609-0.6298828-2.03125-0.9238281-3.0957031H76.359375
				c-0.2802734,1.0644531-0.5742188,2.0732422-0.9101562,3.0957031L75.0146484,226.0556641z"/>
			<path d="M82.6728516,223.9267578h-2.2832031v-0.9384766h5.7148438v0.9384766h-2.2832031v5.8691406h-1.1484375V223.9267578z"/>
			<path d="M87.6132812,222.9882812h0.953125l0.0976562,0.7841797h0.0419922
				c0.6162109-0.5185547,1.3730469-0.9521484,2.1708984-0.9521484c1.7509766,0,2.6894531,1.3583984,2.6894531,3.4736328
				c0,2.3115234-1.3867188,3.6699219-2.9414062,3.6699219c-0.6298828,0-1.2607422-0.2939453-1.890625-0.7841797l0.0273438,1.1904297
				v2.296875h-1.1484375V222.9882812z M92.3759766,226.2939453c0-1.4990234-0.5039062-2.5068359-1.7929688-2.5068359
				c-0.5742188,0-1.1484375,0.3212891-1.8212891,0.9238281v3.5722656c0.6171875,0.5185547,1.21875,0.7138672,1.6669922,0.7138672
				C91.5498047,228.9970703,92.3759766,227.9746094,92.3759766,226.2939453z"/>
			<path d="M95.3828125,222.9882812h1.1210938v2.8291016c0,0.7285156-0.0566406,1.6396484-0.1123047,2.5078125h0.0556641
				c0.2519531-0.4199219,0.6582031-1.0371094,0.8964844-1.4570312l2.578125-3.8798828H101v6.8076172h-1.1201172v-2.8291016
				c0-0.7285156,0.0556641-1.6396484,0.1113281-2.5214844h-0.0556641c-0.2519531,0.4199219-0.6582031,1.0498047-0.8964844,1.4560547
				l-2.5917969,3.8945312h-1.0644531V222.9882812z"/>
			<path d="M102.8867188,225.6640625c0-4.5947266,1.6806641-5.3232422,4.2724609-5.7158203
				c0.7568359-0.1113281,0.9941406-0.1816406,1.4150391-0.3779297l0.2236328,1.0507812
				c-0.3642578,0.2382812-0.8261719,0.3496094-1.4003906,0.4335938c-2.1855469,0.3222656-3.1376953,0.5185547-3.3476562,3.3203125
				c0.6025391-0.7421875,1.4560547-1.1347656,2.3105469-1.1347656c1.6113281,0,2.7314453,1.1904297,2.7314453,3.1796875
				c0,2.1708984-1.34375,3.5439453-2.9970703,3.5439453C104.0634766,229.9638672,102.8867188,228.4091797,102.8867188,225.6640625z
				 M107.9013672,226.4199219c0-1.4003906-0.6582031-2.296875-1.8349609-2.296875
				c-0.6582031,0-1.3867188,0.3076172-2.0732422,1.2324219c0,0.1679688,0,0.3505859,0,0.5322266
				c0,1.9755859,0.7148438,3.1240234,2.1015625,3.1240234C107.1455078,229.0117188,107.9013672,227.9609375,107.9013672,226.4199219
				z"/>
			<path d="M110.125,232.5830078l0.2246094-0.9101562c0.1396484,0.0419922,0.3496094,0.0976562,0.5185547,0.0976562
				c0.7695312,0,1.2607422-0.6162109,1.5400391-1.4560547l0.1542969-0.5048828l-2.7314453-6.8212891h1.1904297l1.3867188,3.7675781
				c0.2109375,0.5888672,0.4482422,1.2890625,0.6591797,1.9199219h0.0556641
				c0.1962891-0.6171875,0.3925781-1.3173828,0.5742188-1.9199219l1.21875-3.7675781h1.1201172l-2.5634766,7.3681641
				c-0.4755859,1.3447266-1.1757812,2.3671875-2.5488281,2.3671875
				C110.6152344,232.7236328,110.3496094,232.6669922,110.125,232.5830078z"/>
			<path d="M118.8486328,223.9267578h-2.2832031v-0.9384766h5.7148438v0.9384766h-2.2832031v5.8691406h-1.1484375V223.9267578z"/>
			<path d="M123.2011719,229.109375c2.6894531-2.6757812,4.2021484-4.2861328,4.2021484-5.7285156
				c0-1.0234375-0.5605469-1.7509766-1.6953125-1.7509766c-0.7421875,0-1.3867188,0.4755859-1.9042969,1.078125
				l-0.6591797-0.6582031c0.7431641-0.8125,1.5410156-1.3583984,2.7041016-1.3583984
				c1.6523438,0,2.6748047,1.0498047,2.6748047,2.6328125c0,1.6806641-1.5263672,3.3476562-3.6416016,5.5615234
				c0.4902344-0.0419922,1.0361328-0.0839844,1.4990234-0.0839844h2.5908203v0.9941406h-5.7705078V229.109375z"/>
			<path d="M132.875,225.6074219v-0.9238281l6.0087891-2.3535156v0.9941406l-2.9550781,1.0927734l-1.8769531,0.7001953v0.0566406
				l1.8769531,0.7001953l2.9550781,1.0927734v0.9941406L132.875,225.6074219z"/>
			<path d="M143.2626953,228.84375h2.0449219v-6.5839844h-1.625v-0.7421875
				c0.8125-0.140625,1.4013672-0.3642578,1.8916016-0.6582031h0.8828125v7.984375h1.8486328v0.9521484h-5.0429688V228.84375z"/>
			<path d="M154.1845703,221.8535156h-4.4541016v-0.9941406h5.7568359v0.7138672
				c-2.1142578,2.7041016-2.5488281,4.734375-2.703125,8.2226562H151.59375
				C151.7480469,226.4335938,152.4199219,224.3046875,154.1845703,221.8535156z"/>
			<path d="M156.7304688,231.5048828c0.7988281-0.3505859,1.2744141-0.9667969,1.2607422-1.7089844
				c-0.0419922,0.0136719-0.0976562,0.0136719-0.1396484,0.0136719c-0.4482422,0-0.8271484-0.2802734-0.8271484-0.7978516
				c0-0.5048828,0.3925781-0.8125,0.8544922-0.8125c0.6025391,0,0.9667969,0.5185547,0.9667969,1.3583984
				c0,1.2050781-0.7001953,2.1435547-1.8349609,2.6191406L156.7304688,231.5048828z"/>
			<path d="M164.6289062,221.8535156h-4.4541016v-0.9941406h5.7568359v0.7138672
				c-2.1152344,2.7041016-2.5488281,4.734375-2.703125,8.2226562h-1.1904297
				C162.1923828,226.4335938,162.8642578,224.3046875,164.6289062,221.8535156z"/>
		</g>
	</g>
	<g>
		<path d="M399.7041016,242.6308594h2.0449219v-6.5839844h-1.625v-0.7421875
			c0.8125-0.140625,1.4013672-0.3652344,1.8916016-0.6582031h0.8828125v7.984375h1.8486328v0.9511719h-5.0429688V242.6308594z"/>
		<path d="M410.6259766,235.640625h-4.4541016v-0.9941406h5.7568359v0.7128906
			c-2.1142578,2.7050781-2.5488281,4.734375-2.703125,8.2226562h-1.1904297
			C408.1894531,240.2207031,408.8613281,238.0917969,410.6259766,235.640625z"/>
		<path d="M413.171875,245.2910156c0.7988281-0.3496094,1.2744141-0.9667969,1.2607422-1.7089844
			c-0.0419922,0.0136719-0.0976562,0.0136719-0.1396484,0.0136719c-0.4482422,0-0.8271484-0.2792969-0.8271484-0.796875
			c0-0.5058594,0.3925781-0.8125,0.8544922-0.8125c0.6025391,0,0.9667969,0.5175781,0.9667969,1.3574219
			c0,1.2050781-0.7001953,2.1445312-1.8349609,2.6191406L413.171875,245.2910156z"/>
		<path d="M421.0703125,235.640625h-4.4541016v-0.9941406h5.7568359v0.7128906
			c-2.1152344,2.7050781-2.5488281,4.734375-2.703125,8.2226562h-1.1904297
			C418.6337891,240.2207031,419.3056641,238.0917969,421.0703125,235.640625z"/>
	</g>
	<g>
		<path d="M374.328125,203.5859375v-1.9042969l9.1611328-2.984375v1.7089844l-2.4794922,0.7148438v3.0820312l2.4794922,0.7138672
			v1.6533203L374.328125,203.5859375z M379.7353516,203.8242188v-2.3388672l-1.1210938,0.3222656
			c-0.9658203,0.2939453-2.0166016,0.5605469-3.0253906,0.8261719v0.0556641
			c1.0224609,0.2529297,2.0595703,0.5185547,3.0253906,0.8125L379.7353516,203.8242188z"/>
		<path d="M377.8867188,196.4326172v2.1572266h-1.2753906v-5.9394531h1.2753906v2.1572266h5.6025391v1.625H377.8867188z"/>
		<path d="M376.6113281,191.2675781v-1.3310547l0.7285156-0.1123047v-0.0556641
			c-0.4902344-0.5742188-0.8964844-1.3164062-0.8964844-2.0732422c0-1.7089844,1.3730469-2.703125,3.5019531-2.703125
			c2.3535156,0,3.7119141,1.4150391,3.7119141,2.9414062c0,0.6025391-0.2802734,1.2050781-0.7558594,1.7646484l1.1484375-0.0419922
			h2.1572266v1.6113281H376.6113281z M379.9589844,186.6591797c-1.3720703,0-2.1845703,0.4482422-2.1845703,1.484375
			c0,0.5048828,0.2519531,0.9804688,0.7705078,1.5126953h3.2070312c0.4208984-0.5039062,0.5742188-0.9804688,0.5742188-1.3867188
			C382.3261719,187.359375,381.5146484,186.6591797,379.9589844,186.6591797z"/>
		<path d="M376.6113281,183.3720703v-1.5693359h2.3671875c0.7148438,0,1.625,0.0839844,2.4941406,0.140625v-0.0419922
			c-0.4208984-0.2382812-1.0507812-0.6308594-1.4570312-0.8544922l-3.4042969-2.1855469v-1.484375h6.8779297v1.5683594h-2.3671875
			c-0.7148438,0-1.625-0.0839844-2.4931641-0.1542969v0.0566406c0.4199219,0.2382812,1.0507812,0.6162109,1.4560547,0.8544922
			l3.4042969,2.1845703v1.4853516H376.6113281z"/>
		<path d="M379.2587891,175.6855469c-4.3984375,0-5.2246094-1.7363281-5.6025391-4.3134766
			c-0.1123047-0.8125-0.1962891-1.1210938-0.3925781-1.5410156l1.4287109-0.3222656
			c0.2519531,0.3642578,0.3925781,0.9248047,0.4765625,1.5263672c0.2939453,2.0732422,0.4199219,2.84375,2.7314453,3.0537109
			c-0.6582031-0.5458984-0.9951172-1.3300781-0.9951172-2.1425781c0-1.5410156,1.1494141-2.7041016,3.2080078-2.7041016
			c2.1435547,0,3.5439453,1.359375,3.5439453,3.1240234C383.6572266,174.4814453,382.046875,175.6855469,379.2587891,175.6855469z
			 M380.1132812,170.8955078c-1.3300781,0-1.9892578,0.5458984-1.9892578,1.4990234
			c0,0.5742188,0.2529297,1.2041016,1.0224609,1.7509766c0.1542969,0,0.3085938,0,0.4628906,0
			c1.7783203,0,2.7314453-0.6162109,2.7314453-1.765625C382.3408203,171.4833984,381.4580078,170.8955078,380.1132812,170.8955078z"
			/>
		<path d="M386.1787109,168.1962891l-1.2607422-0.2949219c0.0419922-0.1259766,0.0976562-0.3222656,0.0976562-0.4902344
			c0-0.7285156-0.4902344-1.1484375-1.1757812-1.3720703l-0.4345703-0.1259766l-6.7939453,2.703125v-1.6386719l3.3759766-1.1914062
			c0.6025391-0.1953125,1.2890625-0.3916016,1.9326172-0.6015625v-0.0566406
			c-0.6298828-0.1679688-1.3164062-0.3496094-1.9326172-0.5175781l-3.3759766-1.0371094v-1.5546875l7.1865234,2.4931641
			c1.5546875,0.5742188,2.5205078,1.2890625,2.5205078,2.7880859
			C386.3183594,167.6777344,386.2626953,167.9433594,386.1787109,168.1962891z"/>
		<path d="M377.8867188,159.3330078v2.1572266h-1.2753906v-5.9394531h1.2753906v2.1572266h5.6025391v1.625H377.8867188z"/>
		<path d="M382.5507812,154.6582031c-2.3955078-2.4794922-3.9638672-4.0341797-5.3232422-4.0341797
			c-0.9384766,0-1.5400391,0.5185547-1.5400391,1.4707031c0,0.6865234,0.4619141,1.2607422,0.9941406,1.7373047
			l-0.8964844,0.8964844c-0.8681641-0.8125-1.3730469-1.625-1.3730469-2.84375c0-1.7089844,1.0791016-2.8154297,2.7314453-2.8154297
			c1.5830078,0,3.2080078,1.4707031,5.0712891,3.2353516c-0.0419922-0.4619141-0.0986328-1.0507812-0.0986328-1.484375v-2.1855469
			h1.3730469v6.0234375H382.5507812z"/>
	</g>
	<g>
		<path d="M579.7226562,372.0390625h1.9042969l2.984375,9.1621094h-1.7089844l-0.7148438-2.4804688h-3.0820312l-0.7138672,2.4804688
			h-1.6533203L579.7226562,372.0390625z M579.484375,377.4472656h2.3388672l-0.3222656-1.1210938
			c-0.2939453-0.9667969-0.5605469-2.0175781-0.8261719-3.0253906h-0.0556641
			c-0.2529297,1.0214844-0.5185547,2.0585938-0.8125,3.0253906L579.484375,377.4472656z"/>
		<path d="M586.8759766,375.5976562H584.71875v-1.2753906h5.9394531v1.2753906h-2.1572266v5.6035156h-1.625V375.5976562z"/>
		<path d="M592.0410156,374.3222656h1.3310547l0.1123047,0.7285156h0.0556641
			c0.5742188-0.4902344,1.3164062-0.8964844,2.0732422-0.8964844c1.7089844,0,2.703125,1.3730469,2.703125,3.5019531
			c0,2.3535156-1.4150391,3.7128906-2.9414062,3.7128906c-0.6025391,0-1.2050781-0.28125-1.7646484-0.7558594l0.0419922,1.1484375
			v2.15625h-1.6113281V374.3222656z M596.6494141,377.6699219c0-1.3710938-0.4482422-2.1835938-1.484375-2.1835938
			c-0.5048828,0-0.9804688,0.2519531-1.5126953,0.7695312v3.2070312c0.5039062,0.421875,0.9804688,0.5742188,1.3867188,0.5742188
			C595.9492188,380.0371094,596.6494141,379.2265625,596.6494141,377.6699219z"/>
		<path d="M599.9365234,374.3222656h1.5693359v2.3671875c0,0.7148438-0.0839844,1.625-0.140625,2.4941406h0.0419922
			c0.2382812-0.4199219,0.6308594-1.0507812,0.8544922-1.4570312l2.1855469-3.4042969h1.484375v6.8789062h-1.5683594v-2.3671875
			c0-0.7148438,0.0839844-1.625,0.1542969-2.4941406h-0.0566406c-0.2382812,0.4199219-0.6162109,1.0507812-0.8544922,1.4570312
			l-2.1845703,3.4042969h-1.4853516V374.3222656z"/>
		<path d="M607.6230469,376.9707031c0-4.3984375,1.7363281-5.2246094,4.3134766-5.6035156
			c0.8125-0.1113281,1.1210938-0.1953125,1.5410156-0.3925781l0.3222656,1.4296875
			c-0.3642578,0.2519531-0.9248047,0.3925781-1.5263672,0.4765625c-2.0732422,0.2929688-2.84375,0.4199219-3.0537109,2.7304688
			c0.5458984-0.6582031,1.3300781-0.9941406,2.1425781-0.9941406c1.5410156,0,2.7041016,1.1484375,2.7041016,3.2070312
			c0,2.1445312-1.359375,3.5449219-3.1240234,3.5449219C608.8271484,381.3691406,607.6230469,379.7578125,607.6230469,376.9707031z
			 M612.4130859,377.8242188c0-1.3300781-0.5458984-1.9882812-1.4990234-1.9882812
			c-0.5742188,0-1.2041016,0.2519531-1.7509766,1.0214844c0,0.1542969,0,0.3085938,0,0.4628906
			c0,1.7792969,0.6162109,2.7324219,1.765625,2.7324219C611.8251953,380.0527344,612.4130859,379.1699219,612.4130859,377.8242188z"
			/>
		<path d="M615.1123047,383.890625l0.2949219-1.2617188c0.1259766,0.0429688,0.3222656,0.0976562,0.4902344,0.0976562
			c0.7285156,0,1.1484375-0.4902344,1.3720703-1.1757812l0.1259766-0.4335938l-2.703125-6.7949219h1.6386719l1.1914062,3.3769531
			c0.1953125,0.6015625,0.3916016,1.2890625,0.6015625,1.9316406h0.0566406
			c0.1679688-0.6289062,0.3496094-1.3164062,0.5175781-1.9316406l1.0371094-3.3769531h1.5546875l-2.4931641,7.1875
			c-0.5742188,1.5546875-1.2890625,2.5195312-2.7880859,2.5195312
			C615.6308594,384.0292969,615.3652344,383.9746094,615.1123047,383.890625z"/>
		<path d="M623.9755859,375.5976562h-2.1572266v-1.2753906h5.9394531v1.2753906h-2.1572266v5.6035156h-1.625V375.5976562z"/>
		<path d="M629.1542969,379.8847656h1.9892578v-5.8554688h-1.6386719v-1.0097656
			c0.8828125-0.1679688,1.4990234-0.390625,2.0595703-0.7285156h1.2041016v7.59375h1.7509766v1.3164062h-5.3652344V379.8847656z"/>
	</g>
	<g>
		<path d="M429.1757812,350.3886719c0-2.9980469,1.078125-4.6083984,2.8710938-4.6083984
			c1.7792969,0,2.8574219,1.6103516,2.8574219,4.6083984c0,2.9970703-1.078125,4.6640625-2.8574219,4.6640625
			C430.2539062,355.0527344,429.1757812,353.3857422,429.1757812,350.3886719z M433.7832031,350.3886719
			c0-2.6201172-0.6992188-3.6845703-1.7363281-3.6845703c-1.0507812,0-1.75,1.0644531-1.75,3.6845703
			c0,2.6191406,0.6992188,3.7392578,1.75,3.7392578C433.0839844,354.1279297,433.7832031,353.0078125,433.7832031,350.3886719z"/>
	</g>
	<g>
		<path d="M416.6142578,334.4335938c0-2.9980469,1.0791016-4.6083984,2.8720703-4.6083984
			c1.7783203,0,2.8574219,1.6103516,2.8574219,4.6083984c0,2.9970703-1.0791016,4.6640625-2.8574219,4.6640625
			C417.6933594,339.0976562,416.6142578,337.4306641,416.6142578,334.4335938z M421.2226562,334.4335938
			c0-2.6201172-0.7001953-3.6845703-1.7363281-3.6845703c-1.0507812,0-1.7509766,1.0644531-1.7509766,3.6845703
			c0,2.6191406,0.7001953,3.7392578,1.7509766,3.7392578C420.5224609,338.1728516,421.2226562,337.0527344,421.2226562,334.4335938z
			"/>
	</g>
	<rect x="431.5080872" y="20" style="&st3;" width="348.4919128" height="315"/>
	<path style="&st4;" d="M219.0660095,221.9562683c1.9540405,0,3.5437622,1.5897217,3.5437622,3.5437317
		c0,1.9540253-1.5897217,3.5437317-3.5437622,3.5437317c-1.95401,0-3.5437012-1.5897064-3.5437012-3.5437317
		C215.5223083,223.54599,217.1119995,221.9562683,219.0660095,221.9562683 M219.0660095,216.9562683
		c-4.7185669,0-8.5437012,3.8251648-8.5437012,8.5437317c0,4.7185822,3.8251343,8.5437317,8.5437012,8.5437317
		s8.5437622-3.8251495,8.5437622-8.5437317C227.6097717,220.7814331,223.7845764,216.9562683,219.0660095,216.9562683
		L219.0660095,216.9562683z"/>
	<line style="&st0;" x1="184.5608673" y1="179.3333282" x2="184.5608673" y2="139.3333282"/>
	<g>
		<g>
			<polyline style="&st0;" points="119.5605087,195.84375 119.5605087,178.8333282 249.5612335,178.8333282 249.5612335,195.84375 
							"/>
			<g>
				<path style="&st1;" d="M119.5605087,205.5c1.685936-4.5436707,4.5624924-10.1812439,7.609375-13.6757812l-7.609375,2.7523499
					l-7.607811-2.7523499C114.9995575,195.3187561,117.8761368,200.9563293,119.5605087,205.5z"/>
			</g>
			<g>
				<path style="&st1;" d="M249.5612335,205.5c-1.6859283-4.5436707-4.5625-10.1812439-7.609375-13.6757812l7.609375,2.7523499
					l7.6078033-2.7523499C254.1221771,195.3187561,251.2456055,200.9563293,249.5612335,205.5z"/>
			</g>
		</g>
	</g>
	<g>
		<path d="M210.5297852,174.4672852h-1.0224609l-0.1259766-2.9277344v-0.7001953h0.4204102
			c0.3779297-0.1542969,0.8261719-0.8691406,1.2744141-3.3066406c0.3364258-1.8203125,0.5185547-2.9267578,0.840332-4.8876953
			h4.6508789v8.1943359h1.0224609v0.7001953l-0.1259766,2.9277344h-1.0229492v-2.6337891h-5.9111328V174.4672852z
			 M211.1181641,170.8393555h4.2724609v-7.2138672h-2.5634766c-0.2802734,1.5683594-0.40625,2.5488281-0.6865234,4.1035156
			C211.8466797,169.2836914,211.5244141,170.2641602,211.1181641,170.8393555z"/>
		<path d="M218.7749023,170.0688477c0-1.4853516,1.2744141-2.2275391,4.1743164-2.5498047
			c0-0.8681641-0.2802734-1.7089844-1.4008789-1.7089844c-0.784668,0-1.4990234,0.3642578-2.03125,0.7285156l-0.4482422-0.7988281
			c0.6303711-0.4052734,1.5830078-0.8818359,2.675293-0.8818359c1.6669922,0,2.3676758,1.1064453,2.3676758,2.8017578v4.1738281
			h-0.9526367l-0.0981445-0.8125h-0.0419922c-0.6445312,0.5322266-1.4008789,0.9804688-2.2553711,0.9804688
			C219.6293945,172.0014648,218.7749023,171.2875977,218.7749023,170.0688477z M222.9492188,170.1665039v-1.890625
			c-2.2695312,0.2802734-3.0537109,0.8398438-3.0537109,1.7089844c0,0.7705078,0.5322266,1.0917969,1.2045898,1.0917969
			C221.7583008,171.0766602,222.2905273,170.7553711,222.9492188,170.1665039z"/>
	</g>
	<g>
		<path d="M142.1347656,162.6450195h1.1625977v3.8515625h4.2724609v-3.8515625h1.1762695v9.1884766h-1.1762695v-4.328125h-4.2724609
			v4.328125h-1.1625977V162.6450195z"/>
		<path d="M150.6464844,168.4438477c0-2.2275391,1.4985352-3.5859375,3.0537109-3.5859375
			c1.7368164,0,2.7172852,1.2460938,2.7172852,3.1933594c0,0.2382812-0.0141602,0.4902344-0.0419922,0.6582031h-4.5947266
			c0.0839844,1.4433594,0.9667969,2.3671875,2.2695312,2.3671875c0.644043,0,1.1904297-0.2099609,1.6948242-0.5322266
			l0.40625,0.7568359c-0.5883789,0.3779297-1.3168945,0.7001953-2.2412109,0.7001953
			C152.0888672,172.0014648,150.6464844,170.6704102,150.6464844,168.4438477z M155.4086914,167.8833008
			c0-1.3730469-0.6162109-2.1152344-1.6806641-2.1152344c-0.9526367,0-1.8208008,0.7705078-1.9609375,2.1152344H155.4086914z"/>
		<path d="M159.453125,165.9643555h-2.2832031v-0.9384766h5.7148438v0.9384766h-2.2832031v5.8691406h-1.1484375V165.9643555z"/>
	</g>
	<line style="&st0;" x1="119.5605011" y1="285.5" x2="119.5605011" y2="245.5"/>
	<g>
		<g>
			<polyline style="&st0;" points="44.1114502,302.0104065 44.1114502,285 219.1107178,285 219.1107178,302.0104065 			"/>
			<g>
				<path style="&st1;" d="M44.1114502,311.666687c1.6859436-4.5437012,4.5625-10.1812744,7.609375-13.6757812l-7.609375,2.7523193
					l-7.6078033-2.7523193C39.5505066,301.4854126,42.4270782,307.1229858,44.1114502,311.666687z"/>
			</g>
			<g>
				<path style="&st1;" d="M219.1107178,311.666687c-1.6859436-4.5437012-4.5625-10.1812744-7.609375-13.6757812l7.609375,2.7523193
					l7.6078186-2.7523193C223.6716614,301.4854126,220.7950745,307.1229858,219.1107178,311.666687z"/>
			</g>
		</g>
	</g>
	<g>
		<path d="M162.8105469,280.6337891h-1.0224609l-0.1259766-2.9277344v-0.7001953h0.4204102
			c0.3779297-0.1542969,0.8261719-0.8691406,1.2744141-3.3066406c0.3364258-1.8203125,0.5185547-2.9267578,0.840332-4.8876953
			h4.6508789v8.1943359h1.0224609v0.7001953l-0.1259766,2.9277344h-1.0229492V278h-5.9111328V280.6337891z M163.3989258,277.0058594
			h4.2724609v-7.2138672h-2.5634766c-0.2802734,1.5683594-0.40625,2.5488281-0.6865234,4.1035156
			C164.1274414,275.4501953,163.8051758,276.4306641,163.3989258,277.0058594z"/>
		<path d="M171.0556641,276.2353516c0-1.4853516,1.2744141-2.2275391,4.1743164-2.5498047
			c0-0.8681641-0.2802734-1.7089844-1.4008789-1.7089844c-0.784668,0-1.4990234,0.3642578-2.03125,0.7285156l-0.4482422-0.7988281
			c0.6303711-0.4052734,1.5830078-0.8818359,2.675293-0.8818359c1.6669922,0,2.3676758,1.1064453,2.3676758,2.8017578V278
			h-0.9526367l-0.0981445-0.8125h-0.0419922c-0.6445312,0.5322266-1.4008789,0.9804688-2.2553711,0.9804688
			C171.9101562,278.1679688,171.0556641,277.4541016,171.0556641,276.2353516z M175.2299805,276.3330078v-1.890625
			c-2.2695312,0.2802734-3.0537109,0.8398438-3.0537109,1.7089844c0,0.7705078,0.5322266,1.0917969,1.2045898,1.0917969
			C174.0390625,277.2431641,174.5712891,276.921875,175.2299805,276.3330078z"/>
	</g>
	<g>
		<path d="M71.9101562,268.8115234h1.1630859v3.8515625h4.2724609v-3.8515625h1.1757812V278h-1.1757812v-4.328125h-4.2724609V278
			h-1.1630859V268.8115234z"/>
		<path d="M80.421875,274.6103516c0-2.2275391,1.4990234-3.5859375,3.0537109-3.5859375
			c1.7373047,0,2.7177734,1.2460938,2.7177734,3.1933594c0,0.2382812-0.0146484,0.4902344-0.0419922,0.6582031h-4.5947266
			c0.0839844,1.4433594,0.9667969,2.3671875,2.2695312,2.3671875c0.6435547,0,1.1904297-0.2099609,1.6943359-0.5322266
			l0.40625,0.7568359c-0.5878906,0.3779297-1.3164062,0.7001953-2.2412109,0.7001953
			C81.8642578,278.1679688,80.421875,276.8369141,80.421875,274.6103516z M85.1845703,274.0498047
			c0-1.3730469-0.6162109-2.1152344-1.6806641-2.1152344c-0.953125,0-1.8212891,0.7705078-1.9609375,2.1152344H85.1845703z"/>
		<path d="M89.2285156,272.1308594h-2.2832031v-0.9384766h5.7148438v0.9384766h-2.2832031V278h-1.1484375V272.1308594z"/>
	</g>
	<g>
		<path style="&st5;" d="M665.6138916,150.8770599v6h-6v-6H665.6138916 M670.6138916,145.8770599h-16v16h16V145.8770599
			L670.6138916,145.8770599z"/>
	</g>
	<g>
		<path style="&st5;" d="M726.9777832,142.8770599v6h-6v-6H726.9777832 M731.9777832,137.8770599h-16v16h16V137.8770599
			L731.9777832,137.8770599z"/>
	</g>
	<g>
		<path style="&st5;" d="M708.5025635,184.3310547v6h-6v-6H708.5025635 M713.5025635,179.3310547h-16v16h16V179.3310547
			L713.5025635,179.3310547z"/>
	</g>
	<g>
		<path style="&st5;" d="M644.5594482,252.2104034v5.9999847h-6v-5.9999847H644.5594482 M649.5594482,247.2104034h-16v15.9999847h16
			V247.2104034L649.5594482,247.2104034z"/>
	</g>
	<g>
		<path style="&st5;" d="M611.5809937,261.085907v6h-6v-6H611.5809937 M616.5809937,256.085907h-16v16h16V256.085907
			L616.5809937,256.085907z"/>
	</g>
	<g>
		<path style="&st5;" d="M646.5594482,74.3287735v6h-6v-6H646.5594482 M651.5594482,69.3287735h-16v16h16V69.3287735
			L651.5594482,69.3287735z"/>
	</g>
	<g>
		<path style="&st5;" d="M713.2132568,96.3333282v6h-6v-6H713.2132568 M718.2132568,91.3333282h-16v16h16V91.3333282
			L718.2132568,91.3333282z"/>
	</g>
	<g>
		<path style="&st5;" d="M635.9640503,192.3310547v6h-6v-6H635.9640503 M640.9640503,187.3310547h-16v16h16V187.3310547
			L640.9640503,187.3310547z"/>
	</g>
	<g>
		<path style="&st5;" d="M624.053894,134.8770599v6h-6v-6H624.053894 M629.053894,129.8770599h-16v16h16V129.8770599
			L629.053894,129.8770599z"/>
	</g>
	<g>
		<g>
			<path d="M63.5908203,326.7734375h1.1621094v3.8808594h1.5830078L67.625,328.3144531
				c0.7705078-1.3867188,1.2470703-1.7089844,2.0732422-1.7089844c0.1679688,0,0.3642578,0.0273438,0.5039062,0.0839844
				l-0.1962891,1.0917969c-0.1113281-0.0410156-0.2519531-0.0546875-0.3359375-0.0546875
				c-0.3925781,0-0.6445312,0.1679688-1.1904297,1.1621094l-1.21875,2.171875l3.1660156,4.9023438h-1.2753906l-2.8291016-4.3574219
				h-1.5693359v4.3574219h-1.1621094V326.7734375z"/>
			<path d="M70.8701172,336.0175781l0.2246094-1.0644531c0.0839844,0.0292969,0.1816406,0.0566406,0.3076172,0.0566406
				c0.4765625,0,0.7851562-0.4335938,0.9111328-1.4433594c0.1816406-1.4707031,0.3496094-2.9414062,0.5185547-4.4121094h4.1875
				v6.8085938h-1.1621094V330.09375h-2.1152344c-0.140625,1.2460938-0.2939453,2.5214844-0.4482422,3.7675781
				c-0.1962891,1.5136719-0.7988281,2.2695312-1.8066406,2.2695312
				C71.234375,336.1308594,71.0664062,336.0878906,70.8701172,336.0175781z"/>
			<path d="M78.8925781,334.1972656c0-1.484375,1.2744141-2.2265625,4.1738281-2.5488281
				c0-0.8691406-0.2802734-1.7089844-1.4003906-1.7089844c-0.7841797,0-1.4990234,0.3632812-2.03125,0.7285156l-0.4482422-0.7988281
				c0.6308594-0.40625,1.5830078-0.8828125,2.6757812-0.8828125c1.6669922,0,2.3671875,1.1074219,2.3671875,2.8027344v4.1738281
				h-0.953125l-0.0976562-0.8125h-0.0419922c-0.6445312,0.53125-1.4003906,0.9804688-2.2548828,0.9804688
				C79.7470703,336.1308594,78.8925781,335.4160156,78.8925781,334.1972656z M83.0664062,334.2949219v-1.890625
				c-2.2685547,0.28125-3.0537109,0.8398438-3.0537109,1.7089844c0,0.7714844,0.5322266,1.0917969,1.2050781,1.0917969
				C81.8759766,335.2050781,82.4082031,334.8847656,83.0664062,334.2949219z"/>
			<path d="M85.8642578,332.5722656c0-2.2832031,1.5263672-3.5859375,3.2773438-3.5859375
				c0.8964844,0,1.5126953,0.3652344,1.9892578,0.7988281l-0.5878906,0.7558594
				c-0.3925781-0.3496094-0.8125-0.6015625-1.359375-0.6015625c-1.2324219,0-2.1289062,1.0644531-2.1289062,2.6328125
				c0,1.5546875,0.8544922,2.6054688,2.1015625,2.6054688c0.6298828,0,1.1757812-0.3085938,1.5966797-0.6855469l0.5039062,0.7695312
				c-0.6162109,0.546875-1.3867188,0.8691406-2.1992188,0.8691406
				C87.2509766,336.1308594,85.8642578,334.828125,85.8642578,332.5722656z"/>
			<path d="M91.9541016,332.5722656c0-2.2832031,1.5263672-3.5859375,3.2773438-3.5859375
				c0.8964844,0,1.5126953,0.3652344,1.9892578,0.7988281l-0.5878906,0.7558594
				c-0.3925781-0.3496094-0.8125-0.6015625-1.359375-0.6015625c-1.2324219,0-2.1289062,1.0644531-2.1289062,2.6328125
				c0,1.5546875,0.8544922,2.6054688,2.1015625,2.6054688c0.6298828,0,1.1757812-0.3085938,1.5966797-0.6855469l0.5039062,0.7695312
				c-0.6162109,0.546875-1.3867188,0.8691406-2.1992188,0.8691406
				C93.3408203,336.1308594,91.9541016,334.828125,91.9541016,332.5722656z"/>
			<path d="M101.0537109,335.2753906c2.6894531-2.6757812,4.2021484-4.2851562,4.2021484-5.7285156
				c0-1.0234375-0.5605469-1.75-1.6953125-1.75c-0.7421875,0-1.3867188,0.4746094-1.9042969,1.078125l-0.6591797-0.6582031
				c0.7431641-0.8125,1.5410156-1.359375,2.7041016-1.359375c1.6523438,0,2.6748047,1.0507812,2.6748047,2.6328125
				c0,1.6816406-1.5263672,3.3476562-3.6416016,5.5625c0.4902344-0.0429688,1.0361328-0.0839844,1.4990234-0.0839844h2.5908203
				v0.9941406h-5.7705078V335.2753906z"/>
		</g>
		<g>
			<path style="&st5;" d="M53.5488281,328.6666565v6h-6v-6H53.5488281 M58.5488281,323.6666565h-16v16h16V323.6666565
				L58.5488281,323.6666565z"/>
		</g>
	</g>
	<g>
		<path style="&st6;" d="M671.8515015,280.9559021l2.3093872,4h-4.6187744L671.8515015,280.9559021 M671.8515015,272.9559021
			l-9.2375488,16h18.4751587L671.8515015,272.9559021L671.8515015,272.9559021z"/>
	</g>
	<g>
		<path style="&st6;" d="M751.4157715,268.0484619l2.3093872,3.9999695h-4.6187744L751.4157715,268.0484619
			 M751.4157715,260.0484314l-9.2375488,16h18.4751587L751.4157715,260.0484314L751.4157715,260.0484314z"/>
	</g>
	<g>
		<path style="&st6;" d="M623.7235107,313.3333435l2.3093872,4h-4.6187744L623.7235107,313.3333435 M623.7235107,305.3333435
			l-9.2375488,16h18.4751587L623.7235107,305.3333435L623.7235107,305.3333435z"/>
	</g>
	<g>
		<path style="&st6;" d="M715.9777222,255.2104034l2.3093872,3.9999847h-4.6187744L715.9777222,255.2104034
			 M715.9777222,247.2103882l-9.2375488,16h18.4751587L715.9777222,247.2103882L715.9777222,247.2103882z"/>
	</g>
	<g>
		<path style="&st6;" d="M714.7401123,293.9534912l2.3093872,3.9999695h-4.6187744L714.7401123,293.9534912
			 M714.7401123,285.9534607l-9.2375488,16h18.4751587L714.7401123,285.9534607L714.7401123,285.9534607z"/>
	</g>
	<g>
		<path style="&st6;" d="M731.9777222,317.6640625l2.3093872,4h-4.6187744L731.9777222,317.6640625 M731.9777222,309.6640625
			l-9.2375488,16h18.4751587L731.9777222,309.6640625L731.9777222,309.6640625z"/>
	</g>
	<g>
		<g>
			<g>
				<path d="M181.2416992,326.7734375h1.1621094v3.8808594h1.5830078l1.2890625-2.3398438
					c0.7705078-1.3867188,1.2470703-1.7089844,2.0732422-1.7089844c0.1679688,0,0.3642578,0.0273438,0.5039062,0.0839844
					l-0.1962891,1.0917969c-0.1113281-0.0410156-0.2519531-0.0546875-0.3359375-0.0546875
					c-0.3925781,0-0.6445312,0.1679688-1.1904297,1.1621094l-1.21875,2.171875l3.1660156,4.9023438h-1.2753906l-2.8291016-4.3574219
					h-1.5693359v4.3574219h-1.1621094V326.7734375z"/>
				<path d="M188.5209961,336.0175781l0.2246094-1.0644531c0.0839844,0.0292969,0.1816406,0.0566406,0.3076172,0.0566406
					c0.4765625,0,0.7851562-0.4335938,0.9111328-1.4433594c0.1816406-1.4707031,0.3496094-2.9414062,0.5185547-4.4121094h4.1875
					v6.8085938h-1.1621094V330.09375h-2.1152344c-0.140625,1.2460938-0.2939453,2.5214844-0.4482422,3.7675781
					c-0.1962891,1.5136719-0.7988281,2.2695312-1.8066406,2.2695312
					C188.8852539,336.1308594,188.7172852,336.0878906,188.5209961,336.0175781z"/>
				<path d="M196.543457,334.1972656c0-1.484375,1.2744141-2.2265625,4.1738281-2.5488281
					c0-0.8691406-0.2802734-1.7089844-1.4003906-1.7089844c-0.7841797,0-1.4990234,0.3632812-2.03125,0.7285156
					l-0.4482422-0.7988281c0.6308594-0.40625,1.5830078-0.8828125,2.6757812-0.8828125
					c1.6669922,0,2.3671875,1.1074219,2.3671875,2.8027344v4.1738281h-0.953125l-0.0976562-0.8125h-0.0419922
					c-0.6445312,0.53125-1.4003906,0.9804688-2.2548828,0.9804688
					C197.3979492,336.1308594,196.543457,335.4160156,196.543457,334.1972656z M200.7172852,334.2949219v-1.890625
					c-2.2685547,0.28125-3.0537109,0.8398438-3.0537109,1.7089844c0,0.7714844,0.5322266,1.0917969,1.2050781,1.0917969
					C199.5268555,335.2050781,200.059082,334.8847656,200.7172852,334.2949219z"/>
				<path d="M203.5151367,332.5722656c0-2.2832031,1.5263672-3.5859375,3.2773438-3.5859375
					c0.8964844,0,1.5126953,0.3652344,1.9892578,0.7988281l-0.5878906,0.7558594
					c-0.3925781-0.3496094-0.8125-0.6015625-1.359375-0.6015625c-1.2324219,0-2.1289062,1.0644531-2.1289062,2.6328125
					c0,1.5546875,0.8544922,2.6054688,2.1015625,2.6054688c0.6298828,0,1.1757812-0.3085938,1.5966797-0.6855469
					l0.5039062,0.7695312c-0.6162109,0.546875-1.3867188,0.8691406-2.1992188,0.8691406
					C204.9018555,336.1308594,203.5151367,334.828125,203.5151367,332.5722656z"/>
				<path d="M209.6049805,332.5722656c0-2.2832031,1.5263672-3.5859375,3.2773438-3.5859375
					c0.8964844,0,1.5126953,0.3652344,1.9892578,0.7988281l-0.5878906,0.7558594
					c-0.3925781-0.3496094-0.8125-0.6015625-1.359375-0.6015625c-1.2324219,0-2.1289062,1.0644531-2.1289062,2.6328125
					c0,1.5546875,0.8544922,2.6054688,2.1015625,2.6054688c0.6298828,0,1.1757812-0.3085938,1.5966797-0.6855469
					l0.5039062,0.7695312c-0.6162109,0.546875-1.3867188,0.8691406-2.1992188,0.8691406
					C210.9916992,336.1308594,209.6049805,334.828125,209.6049805,332.5722656z"/>
				<path d="M218.7045898,335.2753906c2.6894531-2.6757812,4.2021484-4.2851562,4.2021484-5.7285156
					c0-1.0234375-0.5605469-1.75-1.6953125-1.75c-0.7421875,0-1.3867188,0.4746094-1.9042969,1.078125l-0.6591797-0.6582031
					c0.7431641-0.8125,1.5410156-1.359375,2.7041016-1.359375c1.6523438,0,2.6748047,1.0507812,2.6748047,2.6328125
					c0,1.6816406-1.5263672,3.3476562-3.6416016,5.5625c0.4902344-0.0429688,1.0361328-0.0839844,1.4990234-0.0839844h2.5908203
					v0.9941406h-5.7705078V335.2753906z"/>
				<path d="M233.7270508,331.7734375h-2.5488281V330.90625h2.5488281v-2.7324219h0.9111328v2.7324219h2.5488281v0.8671875
					h-2.5488281v2.7324219h-0.9111328V331.7734375z"/>
			</g>
			<g>
				<path style="&st5;" d="M170.9807739,328.6666565v6h-6v-6H170.9807739 M175.9807739,323.6666565h-16v16h16V323.6666565
					L175.9807739,323.6666565z"/>
			</g>
		</g>
		<g>
			<g>
				<path d="M266.1591797,326.7734375h1.1621094v3.8808594h1.5830078l1.2890625-2.3398438
					c0.7705078-1.3867188,1.2470703-1.7089844,2.0732422-1.7089844c0.1679688,0,0.3642578,0.0273438,0.5039062,0.0839844
					l-0.1962891,1.0917969c-0.1113281-0.0410156-0.2519531-0.0546875-0.3359375-0.0546875
					c-0.3925781,0-0.6445312,0.1679688-1.1904297,1.1621094l-1.21875,2.171875l3.1660156,4.9023438h-1.2753906l-2.8291016-4.3574219
					h-1.5693359v4.3574219h-1.1621094V326.7734375z"/>
				<path d="M273.4384766,336.0175781l0.2246094-1.0644531c0.0839844,0.0292969,0.1816406,0.0566406,0.3076172,0.0566406
					c0.4765625,0,0.7851562-0.4335938,0.9111328-1.4433594c0.1816406-1.4707031,0.3496094-2.9414062,0.5185547-4.4121094h4.1875
					v6.8085938h-1.1621094V330.09375h-2.1152344c-0.140625,1.2460938-0.2939453,2.5214844-0.4482422,3.7675781
					c-0.1962891,1.5136719-0.7988281,2.2695312-1.8066406,2.2695312
					C273.8027344,336.1308594,273.6347656,336.0878906,273.4384766,336.0175781z"/>
				<path d="M281.4609375,334.1972656c0-1.484375,1.2744141-2.2265625,4.1738281-2.5488281
					c0-0.8691406-0.2802734-1.7089844-1.4003906-1.7089844c-0.7841797,0-1.4990234,0.3632812-2.03125,0.7285156
					l-0.4482422-0.7988281c0.6308594-0.40625,1.5830078-0.8828125,2.6757812-0.8828125
					c1.6669922,0,2.3671875,1.1074219,2.3671875,2.8027344v4.1738281h-0.953125l-0.0976562-0.8125h-0.0419922
					c-0.6445312,0.53125-1.4003906,0.9804688-2.2548828,0.9804688
					C282.3154297,336.1308594,281.4609375,335.4160156,281.4609375,334.1972656z M285.6347656,334.2949219v-1.890625
					c-2.2685547,0.28125-3.0537109,0.8398438-3.0537109,1.7089844c0,0.7714844,0.5322266,1.0917969,1.2050781,1.0917969
					C284.4443359,335.2050781,284.9765625,334.8847656,285.6347656,334.2949219z"/>
				<path d="M288.4326172,332.5722656c0-2.2832031,1.5263672-3.5859375,3.2773438-3.5859375
					c0.8964844,0,1.5126953,0.3652344,1.9892578,0.7988281l-0.5878906,0.7558594
					c-0.3925781-0.3496094-0.8125-0.6015625-1.359375-0.6015625c-1.2324219,0-2.1289062,1.0644531-2.1289062,2.6328125
					c0,1.5546875,0.8544922,2.6054688,2.1015625,2.6054688c0.6298828,0,1.1757812-0.3085938,1.5966797-0.6855469
					l0.5039062,0.7695312c-0.6162109,0.546875-1.3867188,0.8691406-2.1992188,0.8691406
					C289.8193359,336.1308594,288.4326172,334.828125,288.4326172,332.5722656z"/>
				<path d="M294.5224609,332.5722656c0-2.2832031,1.5263672-3.5859375,3.2773438-3.5859375
					c0.8964844,0,1.5126953,0.3652344,1.9892578,0.7988281l-0.5878906,0.7558594
					c-0.3925781-0.3496094-0.8125-0.6015625-1.359375-0.6015625c-1.2324219,0-2.1289062,1.0644531-2.1289062,2.6328125
					c0,1.5546875,0.8544922,2.6054688,2.1015625,2.6054688c0.6298828,0,1.1757812-0.3085938,1.5966797-0.6855469
					l0.5039062,0.7695312c-0.6162109,0.546875-1.3867188,0.8691406-2.1992188,0.8691406
					C295.9091797,336.1308594,294.5224609,334.828125,294.5224609,332.5722656z"/>
				<path d="M303.4257812,334.8691406l0.5878906-0.7558594c0.5322266,0.5605469,1.2333984,1.0644531,2.2832031,1.0644531
					c1.0791016,0,1.8496094-0.6445312,1.8496094-1.6386719c0-1.0644531-0.7285156-1.7792969-2.8574219-1.7792969v-0.8828125
					c1.9042969,0,2.5351562-0.7285156,2.5351562-1.6660156c0-0.8691406-0.5888672-1.4140625-1.5410156-1.4140625
					c-0.7421875,0-1.3730469,0.3769531-1.9052734,0.9101562l-0.6162109-0.7285156
					c0.6865234-0.6445312,1.5126953-1.1210938,2.5634766-1.1210938c1.5546875,0,2.6757812,0.8261719,2.6757812,2.2695312
					c0,1.078125-0.6582031,1.765625-1.625,2.1289062V331.3125c1.078125,0.2519531,1.9326172,1.0351562,1.9326172,2.2695312
					c0,1.5820312-1.3027344,2.5488281-2.9414062,2.5488281
					C304.9384766,336.1308594,304.0283203,335.5273438,303.4257812,334.8691406z"/>
			</g>
			<g>
				<path style="&st6;" d="M250.7438965,331.6666565l2.3094025,4h-4.6188049L250.7438965,331.6666565 M250.7438965,323.6666565
					l-9.2376099,16h18.4752197L250.7438965,323.6666565L250.7438965,323.6666565z"/>
			</g>
		</g>
	</g>
	<g>
		<path style="&st4;" d="M482.6873169,75c1.6541748,0,3,1.3458023,3,3s-1.3458252,3-3,3s-3-1.3458023-3-3
			S481.0331421,75,482.6873169,75 M482.6873169,70c-4.4182739,0-8,3.5817108-8,8s3.5817261,8,8,8c4.418335,0,8-3.5817108,8-8
			S487.1056519,70,482.6873169,70L482.6873169,70z"/>
	</g>
	<g>
		<path style="&st4;" d="M555.7030029,126.8770676c1.6541748,0,3,1.3458023,3,2.9999924c0,1.6542053-1.3458252,3-3,3
			s-3-1.3457947-3-3C552.7030029,128.2228699,554.0488281,126.8770676,555.7030029,126.8770676 M555.7030029,121.8770676
			c-4.4182739,0-8,3.5817108-8,7.9999924c0,4.4182892,3.5817261,8,8,8c4.418335,0,8-3.5817108,8-8
			C563.7030029,125.4587784,560.1213379,121.8770676,555.7030029,121.8770676L555.7030029,121.8770676z"/>
	</g>
	<g>
		<path style="&st4;" d="M555.7030029,268.2103882c1.6541748,0,3,1.3458252,3,3c0,1.6542053-1.3458252,3-3,3s-3-1.3457947-3-3
			C552.7030029,269.5562134,554.0488281,268.2103882,555.7030029,268.2103882 M555.7030029,263.2103882
			c-4.4182739,0-8,3.5817261-8,8c0,4.4183044,3.5817261,8,8,8c4.418335,0,8-3.5816956,8-8
			C563.7030029,266.7921143,560.1213379,263.2103882,555.7030029,263.2103882L555.7030029,263.2103882z"/>
	</g>
	<g>
		<path style="&st4;" d="M519.1177979,213.9562683c1.6541748,0,3,1.3458099,3,3c0,1.6542053-1.3458252,3-3,3s-3-1.3457947-3-3
			C516.1177979,215.3020782,517.463623,213.9562683,519.1177979,213.9562683 M519.1177979,208.9562683
			c-4.4182739,0-7.9999695,3.5817108-7.9999695,8s3.5816956,8,7.9999695,8c4.418335,0,8-3.5817108,8-8
			S523.5361328,208.9562683,519.1177979,208.9562683L519.1177979,208.9562683z"/>
	</g>
	<g>
		<path style="&st4;" d="M490.6873169,120.3333359c1.6541748,0,3,1.3458023,3,3s-1.3458252,3-3,3s-3-1.3458023-3-3
			S489.0331421,120.3333359,490.6873169,120.3333359 M490.6873169,115.3333359c-4.4182739,0-8,3.5817108-8,8
			s3.5817261,7.9999924,8,7.9999924c4.418335,0,8-3.5817032,8-7.9999924S495.1056519,115.3333359,490.6873169,115.3333359
			L490.6873169,115.3333359z"/>
	</g>
	<g>
		<path style="&st4;" d="M531.7030029,307.5822754c1.6541748,0,3,1.3457947,3,3s-1.3458252,3-3,3s-3-1.3457947-3-3
			S530.0488281,307.5822754,531.7030029,307.5822754 M531.7030029,302.5822754c-4.4182739,0-8,3.5817261-8,8
			c0,4.4183044,3.5817261,8,8,8c4.418335,0,8-3.5816956,8-8
			C539.7030029,306.1640015,536.1213379,302.5822754,531.7030029,302.5822754L531.7030029,302.5822754z"/>
	</g>
	<g>
		<path style="&st4;" d="M490.6873169,307.5822754c1.6541748,0,3,1.3457947,3,3s-1.3458252,3-3,3s-3-1.3457947-3-3
			S489.0331421,307.5822754,490.6873169,307.5822754 M490.6873169,302.5822754c-4.4182739,0-8,3.5817261-8,8
			c0,4.4183044,3.5817261,8,8,8c4.418335,0,8-3.5816956,8-8
			C498.6873169,306.1640015,495.1056519,302.5822754,490.6873169,302.5822754L490.6873169,302.5822754z"/>
	</g>
	<g>
		<path style="&st4;" d="M519.1177979,269.9559021c1.6541748,0,3,1.3457947,3,3s-1.3458252,3-3,3s-3-1.3457947-3-3
			S517.463623,269.9559021,519.1177979,269.9559021 M519.1177979,264.9559021c-4.4182739,0-7.9999695,3.5816956-7.9999695,8
			c0,4.4182739,3.5816956,8,7.9999695,8c4.418335,0,8-3.5817261,8-8
			C527.1177979,268.5375977,523.5361328,264.9559021,519.1177979,264.9559021L519.1177979,264.9559021z"/>
	</g>
	<g>
		<path style="&st4;" d="M522.867981,150.8770599c1.6541748,0,3,1.3458099,3,3c0,1.6542053-1.3458252,3-3,3s-3-1.3457947-3-3
			C519.867981,152.2228699,521.2138062,150.8770599,522.867981,150.8770599 M522.867981,145.8770599c-4.4182739,0-8,3.5817108-8,8
			s3.5817261,8,8,8c4.418335,0,8-3.5817108,8-8S527.2863159,145.8770599,522.867981,145.8770599L522.867981,145.8770599z"/>
	</g>
	<g>
		<path style="&st4;" d="M458.6873169,170.3333282c1.6541748,0,3,1.3458099,3,3c0,1.6542053-1.3458252,3-3,3s-3-1.3457947-3-3
			C455.6873169,171.6791382,457.0331421,170.3333282,458.6873169,170.3333282 M458.6873169,165.3333282
			c-4.4182739,0-8,3.5817108-8,8s3.5817261,8,8,8c4.418335,0,8-3.5817108,8-8S463.1056519,165.3333282,458.6873169,165.3333282
			L458.6873169,165.3333282z"/>
	</g>
	<g>
		<path style="&st4;" d="M559.4115601,186c1.6541748,0,3,1.3458099,3,3c0,1.6542053-1.3458252,3-3,3s-3-1.3457947-3-3
			C556.4115601,187.3458099,557.7573853,186,559.4115601,186 M559.4115601,181c-4.4182739,0-8,3.5817108-8,8s3.5817261,8,8,8
			c4.418335,0,8-3.5817108,8-8S563.829895,181,559.4115601,181L559.4115601,181z"/>
	</g>
	<g>
		<path style="&st4;" d="M542.1449585,75c1.6541748,0,3,1.3458023,3,3s-1.3458252,3-3,3s-3-1.3458023-3-3
			S540.4907837,75,542.1449585,75 M542.1449585,70c-4.4182739,0-8,3.5817108-8,8s3.5817261,8,8,8c4.418335,0,8-3.5817108,8-8
			S546.5632935,70,542.1449585,70L542.1449585,70z"/>
	</g>
	<g>
		<path style="&st4;" d="M463.0178528,225c1.6541748,0,3,1.3458099,3,3c0,1.6542053-1.3458252,3-3,3s-3-1.3457947-3-3
			C460.0178528,226.3458099,461.363678,225,463.0178528,225 M463.0178528,220c-4.4182739,0-8,3.5817108-8,8s3.5817261,8,8,8
			c4.418335,0,8-3.5817108,8-8S467.4361877,220,463.0178528,220L463.0178528,220z"/>
	</g>
	<g>
		<path style="&st4;" d="M458.6873169,297.5822754c1.6541748,0,3,1.3457947,3,3s-1.3458252,3-3,3s-3-1.3457947-3-3
			S457.0331421,297.5822754,458.6873169,297.5822754 M458.6873169,292.5822754c-4.4182739,0-8,3.5817261-8,8
			c0,4.4183044,3.5817261,8,8,8c4.418335,0,8-3.5816956,8-8
			C466.6873169,296.1640015,463.1056519,292.5822754,458.6873169,292.5822754L458.6873169,292.5822754z"/>
	</g>
	<line style="&st7;" x1="583.6026001" y1="20" x2="583.6026001" y2="334.5807495"/>
	<line style="&st7;" x1="432.0373535" y1="20" x2="432.0373535" y2="334.5807495"/>
	<line style="&st7;" x1="780" y1="240.1434021" x2="583.6026001" y2="240.1434021"/>
	<g>
		<g>
			<line style="&st7;" x1="583.6026001" y1="240.1434021" x2="580.6026001" y2="240.1434021"/>
			<line style="&st8;" x1="577.631897" y1="240.1434021" x2="436.5227356" y2="240.1434021"/>
			<line style="&st7;" x1="435.0373535" y1="240.1434021" x2="432.0373535" y2="240.1434021"/>
		</g>
	</g>
	<line style="&st7;" x1="780" y1="334.5807495" x2="432.0373535" y2="334.5807495"/>
	<line style="&st7;" x1="432.0373535" y1="240.1434021" x2="425.3251343" y2="240.1434021"/>
	<line style="&st7;" x1="432.0373535" y1="334.5807495" x2="425.3251343" y2="334.5807495"/>
	<line style="&st7;" x1="432.0373535" y1="341.2929993" x2="432.0373535" y2="334.5807495"/>
	<line style="&st7;" x1="583.6027832" y1="341.2929993" x2="583.6027832" y2="334.5807495"/>
</g>
<g id="Layer_2" style="&st9;">
</g>
</svg>
