<svg width="32" height="32" viewBox="0 0 32 32" fill="none" xmlns="http://www.w3.org/2000/svg">
<circle cx="16" cy="16" r="16" fill="black"/>
<path fill-rule="evenodd" clip-rule="evenodd" d="M15.3021 21.6043C16.967 21.6043 18.5024 21.0465 19.7321 20.1079L24.35 24.7268C24.5336 24.9041 24.7796 25.0022 25.0348 25C25.2901 24.9978 25.5343 24.8954 25.7148 24.7149C25.8953 24.5344 25.9977 24.2902 26 24.0349C26.0022 23.7796 25.904 23.5337 25.7267 23.3501L21.1078 18.7312C22.1071 17.4213 22.6341 15.812 22.6031 14.1648C22.5721 12.5176 21.9849 10.9292 20.9371 9.65788C19.8892 8.38653 18.4422 7.50689 16.8313 7.1619C15.2203 6.81691 13.5399 7.02684 12.0634 7.75758C10.5868 8.48833 9.40067 9.69693 8.69783 11.187C7.99498 12.6771 7.81669 14.361 8.19192 15.9653C8.56714 17.5695 9.47384 18.9997 10.7647 20.0234C12.0555 21.0472 13.6546 21.6043 15.3021 21.6043ZM20.657 14.3022C20.657 15.7224 20.0929 17.0844 19.0886 18.0887C18.0844 19.0929 16.7223 19.6571 15.3021 19.6571C13.8819 19.6571 12.5199 19.0929 11.5156 18.0887C10.5114 17.0844 9.94719 15.7224 9.94719 14.3022C9.94719 12.882 10.5114 11.5199 11.5156 10.5157C12.5199 9.51143 13.8819 8.94725 15.3021 8.94725C16.7223 8.94725 18.0844 9.51143 19.0886 10.5157C20.0929 11.5199 20.657 12.882 20.657 14.3022Z" fill="#F5F5F5"/>
</svg>
