<svg width="14" height="12" viewBox="0 0 14 12" fill="none" xmlns="http://www.w3.org/2000/svg">
<path fill-rule="evenodd" clip-rule="evenodd" d="M5.76616 2.36397C5.84851 2.28162 5.91383 2.18386 5.95839 2.07627C6.00296 1.96868 6.0259 1.85336 6.0259 1.7369C6.0259 1.62045 6.00296 1.50513 5.95839 1.39754C5.91383 1.28994 5.84851 1.19218 5.76616 1.10984C5.68381 1.02749 5.58605 0.962168 5.47846 0.917602C5.37087 0.873036 5.25555 0.850098 5.13909 0.850098C4.9039 0.850098 4.67833 0.943529 4.51203 1.10984L0.2595 5.36325C0.0933423 5.52946 0 5.75485 0 5.98987C0 6.22489 0.0933423 6.45029 0.2595 6.6165L4.51203 10.869C4.67833 11.0353 4.9039 11.1288 5.13909 11.1288C5.37429 11.1288 5.59985 11.0353 5.76616 10.869C5.93247 10.7027 6.0259 10.4772 6.0259 10.242C6.0259 10.0068 5.93247 9.7812 5.76616 9.61489L4.5138 8.36342C4.0424 7.89254 3.51943 7.47629 2.95478 7.12258L2.2927 6.70601L2.33436 6.66524L3.18433 6.78667C3.59946 6.84582 4.01826 6.87544 4.43758 6.8753H13.1137C13.3488 6.8753 13.5742 6.78192 13.7404 6.6157C13.9066 6.44949 14 6.22405 14 5.98899C14 5.75392 13.9066 5.52848 13.7404 5.36227C13.5742 5.19605 13.3488 5.10267 13.1137 5.10267H4.43669C4.01735 5.10283 3.59855 5.13274 3.18344 5.19219L2.33258 5.31362L2.29181 5.27196L2.95655 4.85539C3.52024 4.50181 4.04232 4.08587 4.51291 3.61544L5.76616 2.36397Z" fill="#3B4856"/>
</svg>
