<svg width="14" height="14" viewBox="0 0 14 14" fill="none" xmlns="http://www.w3.org/2000/svg">
<path fill-rule="evenodd" clip-rule="evenodd" d="M0.315612 0.315612C0.113526 0.517759 0 0.791893 0 1.07773C0 1.36357 0.113526 1.6377 0.315612 1.83985L5.48227 7.00651L0.315612 12.1732C0.119253 12.3765 0.0106007 12.6488 0.0130568 12.9314C0.0155128 13.214 0.128881 13.4844 0.328743 13.6843C0.528606 13.8841 0.798971 13.9975 1.08161 14C1.36425 14.0024 1.63654 13.8938 1.83985 13.6974L7.00651 8.53074L12.1732 13.6974C12.3765 13.8938 12.6488 14.0024 12.9314 14C13.214 13.9975 13.4844 13.8841 13.6843 13.6843C13.8841 13.4844 13.9975 13.214 14 12.9314C14.0024 12.6488 13.8938 12.3765 13.6974 12.1732L8.53074 7.00651L13.6974 1.83985C13.8938 1.63654 14.0024 1.36425 14 1.08161C13.9975 0.798971 13.8841 0.528606 13.6843 0.328743C13.4844 0.128881 13.214 0.0155127 12.9314 0.0130567C12.6488 0.0106006 12.3765 0.119253 12.1732 0.315612L7.00651 5.48227L1.83985 0.315612C1.6377 0.113526 1.36357 0 1.07773 0C0.791893 0 0.517759 0.113526 0.315612 0.315612Z" fill="#3B4856"/>
</svg>
