<?xml version="1.0" encoding="utf-8" standalone="no"?>
<!DOCTYPE svg PUBLIC "-//W3C//DTD SVG 1.1//EN"
  "http://www.w3.org/Graphics/SVG/1.1/DTD/svg11.dtd">
<!-- Created with matplotlib (https://matplotlib.org/) -->
<svg height="288pt" version="1.1" viewBox="0 0 288 288" width="288pt" xmlns="http://www.w3.org/2000/svg" xmlns:xlink="http://www.w3.org/1999/xlink">
 <defs>
  <style type="text/css">
*{stroke-linecap:butt;stroke-linejoin:round;}
  </style>
 </defs>
 <g id="figure_1">
  <g id="patch_1">
   <path d="M 0 288 
L 288 288 
L 288 0 
L 0 0 
z
" style="fill:#ffffff;"/>
  </g>
  <g id="axes_1">
   <g id="patch_2">
    <path d="M 36 252 
L 259.2 252 
L 259.2 34.56 
L 36 34.56 
z
" style="fill:#ffffff;"/>
   </g>
   <g id="PathCollection_1">
    <defs>
     <path d="M 0 3 
C 0.795609 3 1.55874 2.683901 2.12132 2.12132 
C 2.683901 1.55874 3 0.795609 3 0 
C 3 -0.795609 2.683901 -1.55874 2.12132 -2.12132 
C 1.55874 -2.683901 0.795609 -3 0 -3 
C -0.795609 -3 -1.55874 -2.683901 -2.12132 -2.12132 
C -2.683901 -1.55874 -3 -0.795609 -3 0 
C -3 0.795609 -2.683901 1.55874 -2.12132 2.12132 
C -1.55874 2.683901 -0.795609 3 0 3 
z
" id="C0_0_b91dccb1f8"/>
    </defs>
    <g clip-path="url(#p02041d70bc)">
     <use style="fill:#97c804;stroke:#97c804;" x="130.844724" xlink:href="#C0_0_b91dccb1f8" y="164.505733"/>
    </g>
    <g clip-path="url(#p02041d70bc)">
     <use style="fill:#97c804;stroke:#97c804;" x="52.230661" xlink:href="#C0_0_b91dccb1f8" y="186.350409"/>
    </g>
    <g clip-path="url(#p02041d70bc)">
     <use style="fill:#97c804;stroke:#97c804;" x="127.631551" xlink:href="#C0_0_b91dccb1f8" y="193.88639"/>
    </g>
    <g clip-path="url(#p02041d70bc)">
     <use style="fill:#ffc100;stroke:#ffc100;" x="152.600328" xlink:href="#C0_0_b91dccb1f8" y="139.472304"/>
    </g>
    <g clip-path="url(#p02041d70bc)">
     <use style="fill:#97c804;stroke:#97c804;" x="63.186175" xlink:href="#C0_0_b91dccb1f8" y="229.439671"/>
    </g>
    <g clip-path="url(#p02041d70bc)">
     <use style="fill:#97c804;stroke:#97c804;" x="74.495337" xlink:href="#C0_0_b91dccb1f8" y="166.722307"/>
    </g>
    <g clip-path="url(#p02041d70bc)">
     <use style="fill:#ffc100;stroke:#ffc100;" x="114.279506" xlink:href="#C0_0_b91dccb1f8" y="130.508496"/>
    </g>
    <g clip-path="url(#p02041d70bc)">
     <use style="fill:#97c804;stroke:#97c804;" x="73.793111" xlink:href="#C0_0_b91dccb1f8" y="173.941006"/>
    </g>
    <g clip-path="url(#p02041d70bc)">
     <use style="fill:#97c804;stroke:#97c804;" x="139.125212" xlink:href="#C0_0_b91dccb1f8" y="155.380523"/>
    </g>
    <g clip-path="url(#p02041d70bc)">
     <use style="fill:#97c804;stroke:#97c804;" x="136.99465" xlink:href="#C0_0_b91dccb1f8" y="210.948308"/>
    </g>
    <g clip-path="url(#p02041d70bc)">
     <use style="fill:#97c804;stroke:#97c804;" x="83.542927" xlink:href="#C0_0_b91dccb1f8" y="197.722353"/>
    </g>
    <g clip-path="url(#p02041d70bc)">
     <use style="fill:#ffc100;stroke:#ffc100;" x="176.444121" xlink:href="#C0_0_b91dccb1f8" y="138.028551"/>
    </g>
    <g clip-path="url(#p02041d70bc)">
     <use style="fill:#97c804;stroke:#97c804;" x="111.639503" xlink:href="#C0_0_b91dccb1f8" y="211.470621"/>
    </g>
    <g clip-path="url(#p02041d70bc)">
     <use style="fill:#97c804;stroke:#97c804;" x="119.207314" xlink:href="#C0_0_b91dccb1f8" y="131.303061"/>
    </g>
    <g clip-path="url(#p02041d70bc)">
     <use style="fill:#ffc100;stroke:#ffc100;" x="138.800746" xlink:href="#C0_0_b91dccb1f8" y="119.979274"/>
    </g>
    <g clip-path="url(#p02041d70bc)">
     <use style="fill:#97c804;stroke:#97c804;" x="94.480201" xlink:href="#C0_0_b91dccb1f8" y="194.381759"/>
    </g>
    <g clip-path="url(#p02041d70bc)">
     <use style="fill:#ffc100;stroke:#ffc100;" x="175.664039" xlink:href="#C0_0_b91dccb1f8" y="107.002326"/>
    </g>
    <g clip-path="url(#p02041d70bc)">
     <use style="fill:#97c804;stroke:#97c804;" x="163.248108" xlink:href="#C0_0_b91dccb1f8" y="221.602513"/>
    </g>
    <g clip-path="url(#p02041d70bc)">
     <use style="fill:#97c804;stroke:#97c804;" x="46.145455" xlink:href="#C0_0_b91dccb1f8" y="150.509486"/>
    </g>
    <g clip-path="url(#p02041d70bc)">
     <use style="fill:#348fea;stroke:#348fea;" x="242.398113" xlink:href="#C0_0_b91dccb1f8" y="242.116364"/>
    </g>
    <g clip-path="url(#p02041d70bc)">
     <use style="fill:#97c804;stroke:#97c804;" x="82.795609" xlink:href="#C0_0_b91dccb1f8" y="94.424643"/>
    </g>
    <g clip-path="url(#p02041d70bc)">
     <use style="fill:#ffc100;stroke:#ffc100;" x="209.827684" xlink:href="#C0_0_b91dccb1f8" y="171.167156"/>
    </g>
    <g clip-path="url(#p02041d70bc)">
     <use style="fill:#ffc100;stroke:#ffc100;" x="175.28564" xlink:href="#C0_0_b91dccb1f8" y="64.194529"/>
    </g>
    <g clip-path="url(#p02041d70bc)">
     <use style="fill:#97c804;stroke:#97c804;" x="55.370322" xlink:href="#C0_0_b91dccb1f8" y="134.39969"/>
    </g>
    <g clip-path="url(#p02041d70bc)">
     <use style="fill:#97c804;stroke:#97c804;" x="88.59625" xlink:href="#C0_0_b91dccb1f8" y="136.066738"/>
    </g>
    <g clip-path="url(#p02041d70bc)">
     <use style="fill:#ffc100;stroke:#ffc100;" x="133.898764" xlink:href="#C0_0_b91dccb1f8" y="178.534116"/>
    </g>
    <g clip-path="url(#p02041d70bc)">
     <use style="fill:#ffc100;stroke:#ffc100;" x="129.852483" xlink:href="#C0_0_b91dccb1f8" y="86.210704"/>
    </g>
    <g clip-path="url(#p02041d70bc)">
     <use style="fill:#ffc100;stroke:#ffc100;" x="196.697291" xlink:href="#C0_0_b91dccb1f8" y="117.205423"/>
    </g>
    <g clip-path="url(#p02041d70bc)">
     <use style="fill:#ffc100;stroke:#ffc100;" x="159.475013" xlink:href="#C0_0_b91dccb1f8" y="119.811404"/>
    </g>
    <g clip-path="url(#p02041d70bc)">
     <use style="fill:#97c804;stroke:#97c804;" x="62.005314" xlink:href="#C0_0_b91dccb1f8" y="140.874635"/>
    </g>
    <g clip-path="url(#p02041d70bc)">
     <use style="fill:#ffc100;stroke:#ffc100;" x="212.981855" xlink:href="#C0_0_b91dccb1f8" y="74.214882"/>
    </g>
    <g clip-path="url(#p02041d70bc)">
     <use style="fill:#ffc100;stroke:#ffc100;" x="169.30886" xlink:href="#C0_0_b91dccb1f8" y="105.006585"/>
    </g>
    <g clip-path="url(#p02041d70bc)">
     <use style="fill:#97c804;stroke:#97c804;" x="80.613512" xlink:href="#C0_0_b91dccb1f8" y="91.231561"/>
    </g>
    <g clip-path="url(#p02041d70bc)">
     <use style="fill:#348fea;stroke:#348fea;" x="213.857772" xlink:href="#C0_0_b91dccb1f8" y="206.851389"/>
    </g>
    <g clip-path="url(#p02041d70bc)">
     <use style="fill:#97c804;stroke:#97c804;" x="58.076019" xlink:href="#C0_0_b91dccb1f8" y="185.405053"/>
    </g>
    <g clip-path="url(#p02041d70bc)">
     <use style="fill:#ffc100;stroke:#ffc100;" x="186.446833" xlink:href="#C0_0_b91dccb1f8" y="183.157587"/>
    </g>
    <g clip-path="url(#p02041d70bc)">
     <use style="fill:#97c804;stroke:#97c804;" x="66.218994" xlink:href="#C0_0_b91dccb1f8" y="123.553516"/>
    </g>
    <g clip-path="url(#p02041d70bc)">
     <use style="fill:#97c804;stroke:#97c804;" x="53.806963" xlink:href="#C0_0_b91dccb1f8" y="129.425837"/>
    </g>
    <g clip-path="url(#p02041d70bc)">
     <use style="fill:#97c804;stroke:#97c804;" x="72.051465" xlink:href="#C0_0_b91dccb1f8" y="200.864333"/>
    </g>
    <g clip-path="url(#p02041d70bc)">
     <use style="fill:#ffc100;stroke:#ffc100;" x="249.054545" xlink:href="#C0_0_b91dccb1f8" y="179.900472"/>
    </g>
    <g clip-path="url(#p02041d70bc)">
     <use style="fill:#97c804;stroke:#97c804;" x="110.959973" xlink:href="#C0_0_b91dccb1f8" y="211.722798"/>
    </g>
    <g clip-path="url(#p02041d70bc)">
     <use style="fill:#97c804;stroke:#97c804;" x="75.830943" xlink:href="#C0_0_b91dccb1f8" y="141.079949"/>
    </g>
    <g clip-path="url(#p02041d70bc)">
     <use style="fill:#ffc100;stroke:#ffc100;" x="156.845405" xlink:href="#C0_0_b91dccb1f8" y="134.071299"/>
    </g>
    <g clip-path="url(#p02041d70bc)">
     <use style="fill:#97c804;stroke:#97c804;" x="71.17829" xlink:href="#C0_0_b91dccb1f8" y="146.537146"/>
    </g>
    <g clip-path="url(#p02041d70bc)">
     <use style="fill:#97c804;stroke:#97c804;" x="129.853533" xlink:href="#C0_0_b91dccb1f8" y="155.309514"/>
    </g>
    <g clip-path="url(#p02041d70bc)">
     <use style="fill:#ffc100;stroke:#ffc100;" x="181.151313" xlink:href="#C0_0_b91dccb1f8" y="156.021677"/>
    </g>
    <g clip-path="url(#p02041d70bc)">
     <use style="fill:#ffc100;stroke:#ffc100;" x="166.704851" xlink:href="#C0_0_b91dccb1f8" y="105.71202"/>
    </g>
    <g clip-path="url(#p02041d70bc)">
     <use style="fill:#ffc100;stroke:#ffc100;" x="152.560316" xlink:href="#C0_0_b91dccb1f8" y="169.011328"/>
    </g>
    <g clip-path="url(#p02041d70bc)">
     <use style="fill:#97c804;stroke:#97c804;" x="117.906343" xlink:href="#C0_0_b91dccb1f8" y="176.274674"/>
    </g>
    <g clip-path="url(#p02041d70bc)">
     <use style="fill:#97c804;stroke:#97c804;" x="130.769459" xlink:href="#C0_0_b91dccb1f8" y="174.154846"/>
    </g>
    <g clip-path="url(#p02041d70bc)">
     <use style="fill:#348fea;stroke:#348fea;" x="208.71853" xlink:href="#C0_0_b91dccb1f8" y="196.108143"/>
    </g>
    <g clip-path="url(#p02041d70bc)">
     <use style="fill:#ffc100;stroke:#ffc100;" x="113.713827" xlink:href="#C0_0_b91dccb1f8" y="103.636145"/>
    </g>
    <g clip-path="url(#p02041d70bc)">
     <use style="fill:#97c804;stroke:#97c804;" x="108.246625" xlink:href="#C0_0_b91dccb1f8" y="115.224773"/>
    </g>
    <g clip-path="url(#p02041d70bc)">
     <use style="fill:#ffc100;stroke:#ffc100;" x="184.249401" xlink:href="#C0_0_b91dccb1f8" y="149.287478"/>
    </g>
    <g clip-path="url(#p02041d70bc)">
     <use style="fill:#97c804;stroke:#97c804;" x="180.599486" xlink:href="#C0_0_b91dccb1f8" y="130.417046"/>
    </g>
    <g clip-path="url(#p02041d70bc)">
     <use style="fill:#ffc100;stroke:#ffc100;" x="111.073893" xlink:href="#C0_0_b91dccb1f8" y="44.443636"/>
    </g>
    <g clip-path="url(#p02041d70bc)">
     <use style="fill:#348fea;stroke:#348fea;" x="164.332222" xlink:href="#C0_0_b91dccb1f8" y="193.012747"/>
    </g>
    <g clip-path="url(#p02041d70bc)">
     <use style="fill:#ffc100;stroke:#ffc100;" x="140.067453" xlink:href="#C0_0_b91dccb1f8" y="145.072362"/>
    </g>
    <g clip-path="url(#p02041d70bc)">
     <use style="fill:#97c804;stroke:#97c804;" x="164.628993" xlink:href="#C0_0_b91dccb1f8" y="109.093511"/>
    </g>
    <g clip-path="url(#p02041d70bc)">
     <use style="fill:#ffc100;stroke:#ffc100;" x="146.950365" xlink:href="#C0_0_b91dccb1f8" y="136.348726"/>
    </g>
    <g clip-path="url(#p02041d70bc)">
     <use style="fill:#97c804;stroke:#97c804;" x="57.185718" xlink:href="#C0_0_b91dccb1f8" y="90.671094"/>
    </g>
    <g clip-path="url(#p02041d70bc)">
     <use style="fill:#97c804;stroke:#97c804;" x="102.301067" xlink:href="#C0_0_b91dccb1f8" y="151.997355"/>
    </g>
    <g clip-path="url(#p02041d70bc)">
     <use style="fill:#97c804;stroke:#97c804;" x="162.707026" xlink:href="#C0_0_b91dccb1f8" y="131.945987"/>
    </g>
    <g clip-path="url(#p02041d70bc)">
     <use style="fill:#ffc100;stroke:#ffc100;" x="171.874838" xlink:href="#C0_0_b91dccb1f8" y="129.491858"/>
    </g>
    <g clip-path="url(#p02041d70bc)">
     <use style="fill:#ffc100;stroke:#ffc100;" x="148.273887" xlink:href="#C0_0_b91dccb1f8" y="136.475545"/>
    </g>
    <g clip-path="url(#p02041d70bc)">
     <use style="fill:#97c804;stroke:#97c804;" x="98.261199" xlink:href="#C0_0_b91dccb1f8" y="96.946432"/>
    </g>
    <g clip-path="url(#p02041d70bc)">
     <use style="fill:#ffc100;stroke:#ffc100;" x="221.933936" xlink:href="#C0_0_b91dccb1f8" y="46.627015"/>
    </g>
    <g clip-path="url(#p02041d70bc)">
     <use style="fill:#ffc100;stroke:#ffc100;" x="185.690332" xlink:href="#C0_0_b91dccb1f8" y="108.772071"/>
    </g>
    <g clip-path="url(#p02041d70bc)">
     <use style="fill:#ffc100;stroke:#ffc100;" x="223.479165" xlink:href="#C0_0_b91dccb1f8" y="63.594435"/>
    </g>
    <g clip-path="url(#p02041d70bc)">
     <use style="fill:#97c804;stroke:#97c804;" x="68.009557" xlink:href="#C0_0_b91dccb1f8" y="92.005964"/>
    </g>
    <g clip-path="url(#p02041d70bc)">
     <use style="fill:#ffc100;stroke:#ffc100;" x="200.285546" xlink:href="#C0_0_b91dccb1f8" y="151.569062"/>
    </g>
    <g clip-path="url(#p02041d70bc)">
     <use style="fill:#ffc100;stroke:#ffc100;" x="203.257949" xlink:href="#C0_0_b91dccb1f8" y="128.066671"/>
    </g>
    <g clip-path="url(#p02041d70bc)">
     <use style="fill:#ffc100;stroke:#ffc100;" x="222.136147" xlink:href="#C0_0_b91dccb1f8" y="130.206882"/>
    </g>
    <g clip-path="url(#p02041d70bc)">
     <use style="fill:#ffc100;stroke:#ffc100;" x="139.477895" xlink:href="#C0_0_b91dccb1f8" y="200.841939"/>
    </g>
    <g clip-path="url(#p02041d70bc)">
     <use style="fill:#97c804;stroke:#97c804;" x="121.227573" xlink:href="#C0_0_b91dccb1f8" y="151.779659"/>
    </g>
    <g clip-path="url(#p02041d70bc)">
     <use style="fill:#97c804;stroke:#97c804;" x="95.528616" xlink:href="#C0_0_b91dccb1f8" y="99.831593"/>
    </g>
    <g clip-path="url(#p02041d70bc)">
     <use style="fill:#ffc100;stroke:#ffc100;" x="81.690041" xlink:href="#C0_0_b91dccb1f8" y="96.044657"/>
    </g>
    <g clip-path="url(#p02041d70bc)">
     <use style="fill:#ffc100;stroke:#ffc100;" x="139.211347" xlink:href="#C0_0_b91dccb1f8" y="106.654649"/>
    </g>
    <g clip-path="url(#p02041d70bc)">
     <use style="fill:#97c804;stroke:#97c804;" x="103.680914" xlink:href="#C0_0_b91dccb1f8" y="142.726919"/>
    </g>
    <g clip-path="url(#p02041d70bc)">
     <use style="fill:#ffc100;stroke:#ffc100;" x="126.810906" xlink:href="#C0_0_b91dccb1f8" y="91.117027"/>
    </g>
    <g clip-path="url(#p02041d70bc)">
     <use style="fill:#ffc100;stroke:#ffc100;" x="142.068121" xlink:href="#C0_0_b91dccb1f8" y="190.717353"/>
    </g>
    <g clip-path="url(#p02041d70bc)">
     <use style="fill:#ffc100;stroke:#ffc100;" x="158.213219" xlink:href="#C0_0_b91dccb1f8" y="115.82609"/>
    </g>
    <g clip-path="url(#p02041d70bc)">
     <use style="fill:#348fea;stroke:#348fea;" x="187.499212" xlink:href="#C0_0_b91dccb1f8" y="186.329955"/>
    </g>
    <g clip-path="url(#p02041d70bc)">
     <use style="fill:#ffc100;stroke:#ffc100;" x="195.588624" xlink:href="#C0_0_b91dccb1f8" y="116.914715"/>
    </g>
    <g clip-path="url(#p02041d70bc)">
     <use style="fill:#ffc100;stroke:#ffc100;" x="172.59523" xlink:href="#C0_0_b91dccb1f8" y="110.013306"/>
    </g>
   </g>
   <g id="matplotlib.axis_1">
    <g id="xtick_1">
     <g id="line2d_1">
      <defs>
       <path d="M 0 0 
L 0 3.5 
" id="m08902a0df7" style="stroke:#000000;stroke-width:0.8;"/>
      </defs>
      <g>
       <use style="stroke:#000000;stroke-width:0.8;" x="84.215208" xlink:href="#m08902a0df7" y="252"/>
      </g>
     </g>
     <g id="text_1">
      <!-- −2 -->
      <defs>
       <path d="M 10.59375 35.5 
L 73.1875 35.5 
L 73.1875 27.203125 
L 10.59375 27.203125 
z
" id="DejaVuSans-8722"/>
       <path d="M 19.1875 8.296875 
L 53.609375 8.296875 
L 53.609375 0 
L 7.328125 0 
L 7.328125 8.296875 
Q 12.9375 14.109375 22.625 23.890625 
Q 32.328125 33.6875 34.8125 36.53125 
Q 39.546875 41.84375 41.421875 45.53125 
Q 43.3125 49.21875 43.3125 52.78125 
Q 43.3125 58.59375 39.234375 62.25 
Q 35.15625 65.921875 28.609375 65.921875 
Q 23.96875 65.921875 18.8125 64.3125 
Q 13.671875 62.703125 7.8125 59.421875 
L 7.8125 69.390625 
Q 13.765625 71.78125 18.9375 73 
Q 24.125 74.21875 28.421875 74.21875 
Q 39.75 74.21875 46.484375 68.546875 
Q 53.21875 62.890625 53.21875 53.421875 
Q 53.21875 48.921875 51.53125 44.890625 
Q 49.859375 40.875 45.40625 35.40625 
Q 44.1875 33.984375 37.640625 27.21875 
Q 31.109375 20.453125 19.1875 8.296875 
z
" id="DejaVuSans-50"/>
      </defs>
      <g transform="translate(76.844114 266.598437)scale(0.1 -0.1)">
       <use xlink:href="#DejaVuSans-8722"/>
       <use x="83.789062" xlink:href="#DejaVuSans-50"/>
      </g>
     </g>
    </g>
    <g id="xtick_2">
     <g id="line2d_2">
      <g>
       <use style="stroke:#000000;stroke-width:0.8;" x="142.053819" xlink:href="#m08902a0df7" y="252"/>
      </g>
     </g>
     <g id="text_2">
      <!-- 0 -->
      <defs>
       <path d="M 31.78125 66.40625 
Q 24.171875 66.40625 20.328125 58.90625 
Q 16.5 51.421875 16.5 36.375 
Q 16.5 21.390625 20.328125 13.890625 
Q 24.171875 6.390625 31.78125 6.390625 
Q 39.453125 6.390625 43.28125 13.890625 
Q 47.125 21.390625 47.125 36.375 
Q 47.125 51.421875 43.28125 58.90625 
Q 39.453125 66.40625 31.78125 66.40625 
z
M 31.78125 74.21875 
Q 44.046875 74.21875 50.515625 64.515625 
Q 56.984375 54.828125 56.984375 36.375 
Q 56.984375 17.96875 50.515625 8.265625 
Q 44.046875 -1.421875 31.78125 -1.421875 
Q 19.53125 -1.421875 13.0625 8.265625 
Q 6.59375 17.96875 6.59375 36.375 
Q 6.59375 54.828125 13.0625 64.515625 
Q 19.53125 74.21875 31.78125 74.21875 
z
" id="DejaVuSans-48"/>
      </defs>
      <g transform="translate(138.872569 266.598437)scale(0.1 -0.1)">
       <use xlink:href="#DejaVuSans-48"/>
      </g>
     </g>
    </g>
    <g id="xtick_3">
     <g id="line2d_3">
      <g>
       <use style="stroke:#000000;stroke-width:0.8;" x="199.892431" xlink:href="#m08902a0df7" y="252"/>
      </g>
     </g>
     <g id="text_3">
      <!-- 2 -->
      <g transform="translate(196.711181 266.598437)scale(0.1 -0.1)">
       <use xlink:href="#DejaVuSans-50"/>
      </g>
     </g>
    </g>
    <g id="xtick_4">
     <g id="line2d_4">
      <g>
       <use style="stroke:#000000;stroke-width:0.8;" x="257.731042" xlink:href="#m08902a0df7" y="252"/>
      </g>
     </g>
     <g id="text_4">
      <!-- 4 -->
      <defs>
       <path d="M 37.796875 64.3125 
L 12.890625 25.390625 
L 37.796875 25.390625 
z
M 35.203125 72.90625 
L 47.609375 72.90625 
L 47.609375 25.390625 
L 58.015625 25.390625 
L 58.015625 17.1875 
L 47.609375 17.1875 
L 47.609375 0 
L 37.796875 0 
L 37.796875 17.1875 
L 4.890625 17.1875 
L 4.890625 26.703125 
z
" id="DejaVuSans-52"/>
      </defs>
      <g transform="translate(254.549792 266.598437)scale(0.1 -0.1)">
       <use xlink:href="#DejaVuSans-52"/>
      </g>
     </g>
    </g>
   </g>
   <g id="matplotlib.axis_2">
    <g id="ytick_1">
     <g id="line2d_5">
      <defs>
       <path d="M 0 0 
L -3.5 0 
" id="m521ace4e27" style="stroke:#000000;stroke-width:0.8;"/>
      </defs>
      <g>
       <use style="stroke:#000000;stroke-width:0.8;" x="36" xlink:href="#m521ace4e27" y="231.566479"/>
      </g>
     </g>
     <g id="text_5">
      <!-- 1 -->
      <defs>
       <path d="M 12.40625 8.296875 
L 28.515625 8.296875 
L 28.515625 63.921875 
L 10.984375 60.40625 
L 10.984375 69.390625 
L 28.421875 72.90625 
L 38.28125 72.90625 
L 38.28125 8.296875 
L 54.390625 8.296875 
L 54.390625 0 
L 12.40625 0 
z
" id="DejaVuSans-49"/>
      </defs>
      <g transform="translate(22.6375 235.365698)scale(0.1 -0.1)">
       <use xlink:href="#DejaVuSans-49"/>
      </g>
     </g>
    </g>
    <g id="ytick_2">
     <g id="line2d_6">
      <g>
       <use style="stroke:#000000;stroke-width:0.8;" x="36" xlink:href="#m521ace4e27" y="198.4164"/>
      </g>
     </g>
     <g id="text_6">
      <!-- 2 -->
      <g transform="translate(22.6375 202.215618)scale(0.1 -0.1)">
       <use xlink:href="#DejaVuSans-50"/>
      </g>
     </g>
    </g>
    <g id="ytick_3">
     <g id="line2d_7">
      <g>
       <use style="stroke:#000000;stroke-width:0.8;" x="36" xlink:href="#m521ace4e27" y="165.26632"/>
      </g>
     </g>
     <g id="text_7">
      <!-- 3 -->
      <defs>
       <path d="M 40.578125 39.3125 
Q 47.65625 37.796875 51.625 33 
Q 55.609375 28.21875 55.609375 21.1875 
Q 55.609375 10.40625 48.1875 4.484375 
Q 40.765625 -1.421875 27.09375 -1.421875 
Q 22.515625 -1.421875 17.65625 -0.515625 
Q 12.796875 0.390625 7.625 2.203125 
L 7.625 11.71875 
Q 11.71875 9.328125 16.59375 8.109375 
Q 21.484375 6.890625 26.8125 6.890625 
Q 36.078125 6.890625 40.9375 10.546875 
Q 45.796875 14.203125 45.796875 21.1875 
Q 45.796875 27.640625 41.28125 31.265625 
Q 36.765625 34.90625 28.71875 34.90625 
L 20.21875 34.90625 
L 20.21875 43.015625 
L 29.109375 43.015625 
Q 36.375 43.015625 40.234375 45.921875 
Q 44.09375 48.828125 44.09375 54.296875 
Q 44.09375 59.90625 40.109375 62.90625 
Q 36.140625 65.921875 28.71875 65.921875 
Q 24.65625 65.921875 20.015625 65.03125 
Q 15.375 64.15625 9.8125 62.3125 
L 9.8125 71.09375 
Q 15.4375 72.65625 20.34375 73.4375 
Q 25.25 74.21875 29.59375 74.21875 
Q 40.828125 74.21875 47.359375 69.109375 
Q 53.90625 64.015625 53.90625 55.328125 
Q 53.90625 49.265625 50.4375 45.09375 
Q 46.96875 40.921875 40.578125 39.3125 
z
" id="DejaVuSans-51"/>
      </defs>
      <g transform="translate(22.6375 169.065539)scale(0.1 -0.1)">
       <use xlink:href="#DejaVuSans-51"/>
      </g>
     </g>
    </g>
    <g id="ytick_4">
     <g id="line2d_8">
      <g>
       <use style="stroke:#000000;stroke-width:0.8;" x="36" xlink:href="#m521ace4e27" y="132.116241"/>
      </g>
     </g>
     <g id="text_8">
      <!-- 4 -->
      <g transform="translate(22.6375 135.91546)scale(0.1 -0.1)">
       <use xlink:href="#DejaVuSans-52"/>
      </g>
     </g>
    </g>
    <g id="ytick_5">
     <g id="line2d_9">
      <g>
       <use style="stroke:#000000;stroke-width:0.8;" x="36" xlink:href="#m521ace4e27" y="98.966162"/>
      </g>
     </g>
     <g id="text_9">
      <!-- 5 -->
      <defs>
       <path d="M 10.796875 72.90625 
L 49.515625 72.90625 
L 49.515625 64.59375 
L 19.828125 64.59375 
L 19.828125 46.734375 
Q 21.96875 47.46875 24.109375 47.828125 
Q 26.265625 48.1875 28.421875 48.1875 
Q 40.625 48.1875 47.75 41.5 
Q 54.890625 34.8125 54.890625 23.390625 
Q 54.890625 11.625 47.5625 5.09375 
Q 40.234375 -1.421875 26.90625 -1.421875 
Q 22.3125 -1.421875 17.546875 -0.640625 
Q 12.796875 0.140625 7.71875 1.703125 
L 7.71875 11.625 
Q 12.109375 9.234375 16.796875 8.0625 
Q 21.484375 6.890625 26.703125 6.890625 
Q 35.15625 6.890625 40.078125 11.328125 
Q 45.015625 15.765625 45.015625 23.390625 
Q 45.015625 31 40.078125 35.4375 
Q 35.15625 39.890625 26.703125 39.890625 
Q 22.75 39.890625 18.8125 39.015625 
Q 14.890625 38.140625 10.796875 36.28125 
z
" id="DejaVuSans-53"/>
      </defs>
      <g transform="translate(22.6375 102.765381)scale(0.1 -0.1)">
       <use xlink:href="#DejaVuSans-53"/>
      </g>
     </g>
    </g>
    <g id="ytick_6">
     <g id="line2d_10">
      <g>
       <use style="stroke:#000000;stroke-width:0.8;" x="36" xlink:href="#m521ace4e27" y="65.816083"/>
      </g>
     </g>
     <g id="text_10">
      <!-- 6 -->
      <defs>
       <path d="M 33.015625 40.375 
Q 26.375 40.375 22.484375 35.828125 
Q 18.609375 31.296875 18.609375 23.390625 
Q 18.609375 15.53125 22.484375 10.953125 
Q 26.375 6.390625 33.015625 6.390625 
Q 39.65625 6.390625 43.53125 10.953125 
Q 47.40625 15.53125 47.40625 23.390625 
Q 47.40625 31.296875 43.53125 35.828125 
Q 39.65625 40.375 33.015625 40.375 
z
M 52.59375 71.296875 
L 52.59375 62.3125 
Q 48.875 64.0625 45.09375 64.984375 
Q 41.3125 65.921875 37.59375 65.921875 
Q 27.828125 65.921875 22.671875 59.328125 
Q 17.53125 52.734375 16.796875 39.40625 
Q 19.671875 43.65625 24.015625 45.921875 
Q 28.375 48.1875 33.59375 48.1875 
Q 44.578125 48.1875 50.953125 41.515625 
Q 57.328125 34.859375 57.328125 23.390625 
Q 57.328125 12.15625 50.6875 5.359375 
Q 44.046875 -1.421875 33.015625 -1.421875 
Q 20.359375 -1.421875 13.671875 8.265625 
Q 6.984375 17.96875 6.984375 36.375 
Q 6.984375 53.65625 15.1875 63.9375 
Q 23.390625 74.21875 37.203125 74.21875 
Q 40.921875 74.21875 44.703125 73.484375 
Q 48.484375 72.75 52.59375 71.296875 
z
" id="DejaVuSans-54"/>
      </defs>
      <g transform="translate(22.6375 69.615301)scale(0.1 -0.1)">
       <use xlink:href="#DejaVuSans-54"/>
      </g>
     </g>
    </g>
   </g>
   <g id="patch_3">
    <path d="M 36 252 
L 36 34.56 
" style="fill:none;stroke:#000000;stroke-linecap:square;stroke-linejoin:miter;stroke-width:0.8;"/>
   </g>
   <g id="patch_4">
    <path d="M 259.2 252 
L 259.2 34.56 
" style="fill:none;stroke:#000000;stroke-linecap:square;stroke-linejoin:miter;stroke-width:0.8;"/>
   </g>
   <g id="patch_5">
    <path d="M 36 252 
L 259.2 252 
" style="fill:none;stroke:#000000;stroke-linecap:square;stroke-linejoin:miter;stroke-width:0.8;"/>
   </g>
   <g id="patch_6">
    <path d="M 36 34.56 
L 259.2 34.56 
" style="fill:none;stroke:#000000;stroke-linecap:square;stroke-linejoin:miter;stroke-width:0.8;"/>
   </g>
   <g id="text_11">
    <!-- Data points -->
    <defs>
     <path d="M 19.671875 64.796875 
L 19.671875 8.109375 
L 31.59375 8.109375 
Q 46.6875 8.109375 53.6875 14.9375 
Q 60.6875 21.78125 60.6875 36.53125 
Q 60.6875 51.171875 53.6875 57.984375 
Q 46.6875 64.796875 31.59375 64.796875 
z
M 9.8125 72.90625 
L 30.078125 72.90625 
Q 51.265625 72.90625 61.171875 64.09375 
Q 71.09375 55.28125 71.09375 36.53125 
Q 71.09375 17.671875 61.125 8.828125 
Q 51.171875 0 30.078125 0 
L 9.8125 0 
z
" id="DejaVuSans-68"/>
     <path d="M 34.28125 27.484375 
Q 23.390625 27.484375 19.1875 25 
Q 14.984375 22.515625 14.984375 16.5 
Q 14.984375 11.71875 18.140625 8.90625 
Q 21.296875 6.109375 26.703125 6.109375 
Q 34.1875 6.109375 38.703125 11.40625 
Q 43.21875 16.703125 43.21875 25.484375 
L 43.21875 27.484375 
z
M 52.203125 31.203125 
L 52.203125 0 
L 43.21875 0 
L 43.21875 8.296875 
Q 40.140625 3.328125 35.546875 0.953125 
Q 30.953125 -1.421875 24.3125 -1.421875 
Q 15.921875 -1.421875 10.953125 3.296875 
Q 6 8.015625 6 15.921875 
Q 6 25.140625 12.171875 29.828125 
Q 18.359375 34.515625 30.609375 34.515625 
L 43.21875 34.515625 
L 43.21875 35.40625 
Q 43.21875 41.609375 39.140625 45 
Q 35.0625 48.390625 27.6875 48.390625 
Q 23 48.390625 18.546875 47.265625 
Q 14.109375 46.140625 10.015625 43.890625 
L 10.015625 52.203125 
Q 14.9375 54.109375 19.578125 55.046875 
Q 24.21875 56 28.609375 56 
Q 40.484375 56 46.34375 49.84375 
Q 52.203125 43.703125 52.203125 31.203125 
z
" id="DejaVuSans-97"/>
     <path d="M 18.3125 70.21875 
L 18.3125 54.6875 
L 36.8125 54.6875 
L 36.8125 47.703125 
L 18.3125 47.703125 
L 18.3125 18.015625 
Q 18.3125 11.328125 20.140625 9.421875 
Q 21.96875 7.515625 27.59375 7.515625 
L 36.8125 7.515625 
L 36.8125 0 
L 27.59375 0 
Q 17.1875 0 13.234375 3.875 
Q 9.28125 7.765625 9.28125 18.015625 
L 9.28125 47.703125 
L 2.6875 47.703125 
L 2.6875 54.6875 
L 9.28125 54.6875 
L 9.28125 70.21875 
z
" id="DejaVuSans-116"/>
     <path id="DejaVuSans-32"/>
     <path d="M 18.109375 8.203125 
L 18.109375 -20.796875 
L 9.078125 -20.796875 
L 9.078125 54.6875 
L 18.109375 54.6875 
L 18.109375 46.390625 
Q 20.953125 51.265625 25.265625 53.625 
Q 29.59375 56 35.59375 56 
Q 45.5625 56 51.78125 48.09375 
Q 58.015625 40.1875 58.015625 27.296875 
Q 58.015625 14.40625 51.78125 6.484375 
Q 45.5625 -1.421875 35.59375 -1.421875 
Q 29.59375 -1.421875 25.265625 0.953125 
Q 20.953125 3.328125 18.109375 8.203125 
z
M 48.6875 27.296875 
Q 48.6875 37.203125 44.609375 42.84375 
Q 40.53125 48.484375 33.40625 48.484375 
Q 26.265625 48.484375 22.1875 42.84375 
Q 18.109375 37.203125 18.109375 27.296875 
Q 18.109375 17.390625 22.1875 11.75 
Q 26.265625 6.109375 33.40625 6.109375 
Q 40.53125 6.109375 44.609375 11.75 
Q 48.6875 17.390625 48.6875 27.296875 
z
" id="DejaVuSans-112"/>
     <path d="M 30.609375 48.390625 
Q 23.390625 48.390625 19.1875 42.75 
Q 14.984375 37.109375 14.984375 27.296875 
Q 14.984375 17.484375 19.15625 11.84375 
Q 23.34375 6.203125 30.609375 6.203125 
Q 37.796875 6.203125 41.984375 11.859375 
Q 46.1875 17.53125 46.1875 27.296875 
Q 46.1875 37.015625 41.984375 42.703125 
Q 37.796875 48.390625 30.609375 48.390625 
z
M 30.609375 56 
Q 42.328125 56 49.015625 48.375 
Q 55.71875 40.765625 55.71875 27.296875 
Q 55.71875 13.875 49.015625 6.21875 
Q 42.328125 -1.421875 30.609375 -1.421875 
Q 18.84375 -1.421875 12.171875 6.21875 
Q 5.515625 13.875 5.515625 27.296875 
Q 5.515625 40.765625 12.171875 48.375 
Q 18.84375 56 30.609375 56 
z
" id="DejaVuSans-111"/>
     <path d="M 9.421875 54.6875 
L 18.40625 54.6875 
L 18.40625 0 
L 9.421875 0 
z
M 9.421875 75.984375 
L 18.40625 75.984375 
L 18.40625 64.59375 
L 9.421875 64.59375 
z
" id="DejaVuSans-105"/>
     <path d="M 54.890625 33.015625 
L 54.890625 0 
L 45.90625 0 
L 45.90625 32.71875 
Q 45.90625 40.484375 42.875 44.328125 
Q 39.84375 48.1875 33.796875 48.1875 
Q 26.515625 48.1875 22.3125 43.546875 
Q 18.109375 38.921875 18.109375 30.90625 
L 18.109375 0 
L 9.078125 0 
L 9.078125 54.6875 
L 18.109375 54.6875 
L 18.109375 46.1875 
Q 21.34375 51.125 25.703125 53.5625 
Q 30.078125 56 35.796875 56 
Q 45.21875 56 50.046875 50.171875 
Q 54.890625 44.34375 54.890625 33.015625 
z
" id="DejaVuSans-110"/>
     <path d="M 44.28125 53.078125 
L 44.28125 44.578125 
Q 40.484375 46.53125 36.375 47.5 
Q 32.28125 48.484375 27.875 48.484375 
Q 21.1875 48.484375 17.84375 46.4375 
Q 14.5 44.390625 14.5 40.28125 
Q 14.5 37.15625 16.890625 35.375 
Q 19.28125 33.59375 26.515625 31.984375 
L 29.59375 31.296875 
Q 39.15625 29.25 43.1875 25.515625 
Q 47.21875 21.78125 47.21875 15.09375 
Q 47.21875 7.46875 41.1875 3.015625 
Q 35.15625 -1.421875 24.609375 -1.421875 
Q 20.21875 -1.421875 15.453125 -0.5625 
Q 10.6875 0.296875 5.421875 2 
L 5.421875 11.28125 
Q 10.40625 8.6875 15.234375 7.390625 
Q 20.0625 6.109375 24.8125 6.109375 
Q 31.15625 6.109375 34.5625 8.28125 
Q 37.984375 10.453125 37.984375 14.40625 
Q 37.984375 18.0625 35.515625 20.015625 
Q 33.0625 21.96875 24.703125 23.78125 
L 21.578125 24.515625 
Q 13.234375 26.265625 9.515625 29.90625 
Q 5.8125 33.546875 5.8125 39.890625 
Q 5.8125 47.609375 11.28125 51.796875 
Q 16.75 56 26.8125 56 
Q 31.78125 56 36.171875 55.265625 
Q 40.578125 54.546875 44.28125 53.078125 
z
" id="DejaVuSans-115"/>
    </defs>
    <g transform="translate(104.274609 28.56)scale(0.15 -0.15)">
     <use xlink:href="#DejaVuSans-68"/>
     <use x="77.001953" xlink:href="#DejaVuSans-97"/>
     <use x="138.28125" xlink:href="#DejaVuSans-116"/>
     <use x="177.490234" xlink:href="#DejaVuSans-97"/>
     <use x="238.769531" xlink:href="#DejaVuSans-32"/>
     <use x="270.556641" xlink:href="#DejaVuSans-112"/>
     <use x="334.033203" xlink:href="#DejaVuSans-111"/>
     <use x="395.214844" xlink:href="#DejaVuSans-105"/>
     <use x="422.998047" xlink:href="#DejaVuSans-110"/>
     <use x="486.376953" xlink:href="#DejaVuSans-116"/>
     <use x="525.585938" xlink:href="#DejaVuSans-115"/>
    </g>
   </g>
  </g>
 </g>
 <defs>
  <clipPath id="p02041d70bc">
   <rect height="217.44" width="223.2" x="36" y="34.56"/>
  </clipPath>
 </defs>
</svg>
