<?xml version="1.0" encoding="utf-8" standalone="no"?>
<!DOCTYPE svg PUBLIC "-//W3C//DTD SVG 1.1//EN"
  "http://www.w3.org/Graphics/SVG/1.1/DTD/svg11.dtd">
<svg height="504pt" version="1.1" viewBox="0 0 1080 504" width="1080pt" xmlns="http://www.w3.org/2000/svg" xmlns:xlink="http://www.w3.org/1999/xlink">
 <metadata>
  <rdf:RDF xmlns:cc="http://creativecommons.org/ns#" xmlns:dc="http://purl.org/dc/elements/1.1/" xmlns:rdf="http://www.w3.org/1999/02/22-rdf-syntax-ns#">
   <cc:Work>
    <dc:type rdf:resource="http://purl.org/dc/dcmitype/StillImage"/>
    <dc:date>2021-09-13T19:49:37.973345</dc:date>
    <dc:format>image/svg+xml</dc:format>
    <dc:creator>
     <cc:Agent>
      <dc:title>Matplotlib v3.4.3, https://matplotlib.org/</dc:title>
     </cc:Agent>
    </dc:creator>
   </cc:Work>
  </rdf:RDF>
 </metadata>
 <defs>
  <style type="text/css">*{stroke-linecap:butt;stroke-linejoin:round;}</style>
 </defs>
 <g id="figure_1">
  <g id="patch_1">
   <path d="M 0 504 
L 1080 504 
L 1080 0 
L 0 0 
z
" style="fill:none;"/>
  </g>
  <g id="axes_1">
   <g id="patch_2">
    <path d="M 135 441 
L 972 441 
L 972 60.48 
L 135 60.48 
z
" style="fill:#ffffff;"/>
   </g>
   <g id="PathCollection_1">
    <defs>
     <path d="M 0 3 
C 0.795609 3 1.55874 2.683901 2.12132 2.12132 
C 2.683901 1.55874 3 0.795609 3 0 
C 3 -0.795609 2.683901 -1.55874 2.12132 -2.12132 
C 1.55874 -2.683901 0.795609 -3 0 -3 
C -0.795609 -3 -1.55874 -2.683901 -2.12132 -2.12132 
C -2.683901 -1.55874 -3 -0.795609 -3 0 
C -3 0.795609 -2.683901 1.55874 -2.12132 2.12132 
C -1.55874 2.683901 -0.795609 3 0 3 
z
" id="mf9e1ba0b52" style="stroke:#3b4856;"/>
    </defs>
    <g clip-path="url(#p818ecef0cb)">
     <use style="fill:#3b4856;stroke:#3b4856;" x="173.045455" xlink:href="#mf9e1ba0b52" y="239.648914"/>
     <use style="fill:#3b4856;stroke:#3b4856;" x="176.101314" xlink:href="#mf9e1ba0b52" y="212.031522"/>
     <use style="fill:#3b4856;stroke:#3b4856;" x="179.157174" xlink:href="#mf9e1ba0b52" y="209.593097"/>
     <use style="fill:#3b4856;stroke:#3b4856;" x="185.268894" xlink:href="#mf9e1ba0b52" y="241.464177"/>
     <use style="fill:#3b4856;stroke:#3b4856;" x="188.324754" xlink:href="#mf9e1ba0b52" y="231.507746"/>
     <use style="fill:#3b4856;stroke:#3b4856;" x="191.380613" xlink:href="#mf9e1ba0b52" y="184.026028"/>
     <use style="fill:#3b4856;stroke:#3b4856;" x="194.436473" xlink:href="#mf9e1ba0b52" y="218.732064"/>
     <use style="fill:#3b4856;stroke:#3b4856;" x="203.604053" xlink:href="#mf9e1ba0b52" y="162.347773"/>
     <use style="fill:#3b4856;stroke:#3b4856;" x="206.659912" xlink:href="#mf9e1ba0b52" y="256.859788"/>
     <use style="fill:#3b4856;stroke:#3b4856;" x="209.715772" xlink:href="#mf9e1ba0b52" y="231.008705"/>
     <use style="fill:#3b4856;stroke:#3b4856;" x="215.827492" xlink:href="#mf9e1ba0b52" y="189.205747"/>
     <use style="fill:#3b4856;stroke:#3b4856;" x="218.883352" xlink:href="#mf9e1ba0b52" y="171.921731"/>
     <use style="fill:#3b4856;stroke:#3b4856;" x="224.995071" xlink:href="#mf9e1ba0b52" y="161.39228"/>
     <use style="fill:#3b4856;stroke:#3b4856;" x="231.106791" xlink:href="#mf9e1ba0b52" y="183.647752"/>
     <use style="fill:#3b4856;stroke:#3b4856;" x="237.21851" xlink:href="#mf9e1ba0b52" y="253.464269"/>
     <use style="fill:#3b4856;stroke:#3b4856;" x="243.33023" xlink:href="#mf9e1ba0b52" y="219.589248"/>
     <use style="fill:#3b4856;stroke:#3b4856;" x="246.38609" xlink:href="#mf9e1ba0b52" y="214.779039"/>
     <use style="fill:#3b4856;stroke:#3b4856;" x="249.44195" xlink:href="#mf9e1ba0b52" y="194.758503"/>
     <use style="fill:#3b4856;stroke:#3b4856;" x="252.497809" xlink:href="#mf9e1ba0b52" y="268.974006"/>
     <use style="fill:#3b4856;stroke:#3b4856;" x="258.609529" xlink:href="#mf9e1ba0b52" y="276.44695"/>
     <use style="fill:#3b4856;stroke:#3b4856;" x="261.665389" xlink:href="#mf9e1ba0b52" y="266.107401"/>
     <use style="fill:#3b4856;stroke:#3b4856;" x="270.832968" xlink:href="#mf9e1ba0b52" y="234.79745"/>
     <use style="fill:#3b4856;stroke:#3b4856;" x="286.112267" xlink:href="#mf9e1ba0b52" y="200.334916"/>
     <use style="fill:#3b4856;stroke:#3b4856;" x="289.168127" xlink:href="#mf9e1ba0b52" y="218.583734"/>
     <use style="fill:#3b4856;stroke:#3b4856;" x="292.223987" xlink:href="#mf9e1ba0b52" y="340.373866"/>
     <use style="fill:#3b4856;stroke:#3b4856;" x="295.279847" xlink:href="#mf9e1ba0b52" y="244.645244"/>
     <use style="fill:#3b4856;stroke:#3b4856;" x="298.335706" xlink:href="#mf9e1ba0b52" y="262.930871"/>
     <use style="fill:#3b4856;stroke:#3b4856;" x="301.391566" xlink:href="#mf9e1ba0b52" y="274.089523"/>
     <use style="fill:#3b4856;stroke:#3b4856;" x="304.447426" xlink:href="#mf9e1ba0b52" y="293.084438"/>
     <use style="fill:#3b4856;stroke:#3b4856;" x="307.503286" xlink:href="#mf9e1ba0b52" y="330.309057"/>
     <use style="fill:#3b4856;stroke:#3b4856;" x="310.559146" xlink:href="#mf9e1ba0b52" y="363.796047"/>
     <use style="fill:#3b4856;stroke:#3b4856;" x="313.615005" xlink:href="#mf9e1ba0b52" y="240.826479"/>
     <use style="fill:#3b4856;stroke:#3b4856;" x="316.670865" xlink:href="#mf9e1ba0b52" y="320.020365"/>
     <use style="fill:#3b4856;stroke:#3b4856;" x="319.726725" xlink:href="#mf9e1ba0b52" y="205.318975"/>
     <use style="fill:#3b4856;stroke:#3b4856;" x="325.838445" xlink:href="#mf9e1ba0b52" y="254.925796"/>
     <use style="fill:#3b4856;stroke:#3b4856;" x="328.894304" xlink:href="#mf9e1ba0b52" y="380.503329"/>
     <use style="fill:#3b4856;stroke:#3b4856;" x="338.061884" xlink:href="#mf9e1ba0b52" y="423.703636"/>
     <use style="fill:#3b4856;stroke:#3b4856;" x="341.117744" xlink:href="#mf9e1ba0b52" y="287.249753"/>
     <use style="fill:#3b4856;stroke:#3b4856;" x="344.173604" xlink:href="#mf9e1ba0b52" y="301.042733"/>
     <use style="fill:#3b4856;stroke:#3b4856;" x="347.229463" xlink:href="#mf9e1ba0b52" y="346.537377"/>
     <use style="fill:#3b4856;stroke:#3b4856;" x="350.285323" xlink:href="#mf9e1ba0b52" y="350.281949"/>
     <use style="fill:#3b4856;stroke:#3b4856;" x="353.341183" xlink:href="#mf9e1ba0b52" y="314.011302"/>
     <use style="fill:#3b4856;stroke:#3b4856;" x="356.397043" xlink:href="#mf9e1ba0b52" y="282.477585"/>
     <use style="fill:#3b4856;stroke:#3b4856;" x="359.452903" xlink:href="#mf9e1ba0b52" y="275.487005"/>
     <use style="fill:#3b4856;stroke:#3b4856;" x="362.508762" xlink:href="#mf9e1ba0b52" y="337.706414"/>
     <use style="fill:#3b4856;stroke:#3b4856;" x="365.564622" xlink:href="#mf9e1ba0b52" y="226.258607"/>
     <use style="fill:#3b4856;stroke:#3b4856;" x="371.676342" xlink:href="#mf9e1ba0b52" y="407.67251"/>
     <use style="fill:#3b4856;stroke:#3b4856;" x="374.732202" xlink:href="#mf9e1ba0b52" y="345.797221"/>
     <use style="fill:#3b4856;stroke:#3b4856;" x="377.788061" xlink:href="#mf9e1ba0b52" y="350.849821"/>
     <use style="fill:#3b4856;stroke:#3b4856;" x="383.899781" xlink:href="#mf9e1ba0b52" y="328.642873"/>
     <use style="fill:#3b4856;stroke:#3b4856;" x="386.955641" xlink:href="#mf9e1ba0b52" y="391.447714"/>
     <use style="fill:#3b4856;stroke:#3b4856;" x="390.011501" xlink:href="#mf9e1ba0b52" y="332.247404"/>
     <use style="fill:#3b4856;stroke:#3b4856;" x="393.06736" xlink:href="#mf9e1ba0b52" y="365.489226"/>
     <use style="fill:#3b4856;stroke:#3b4856;" x="396.12322" xlink:href="#mf9e1ba0b52" y="357.472216"/>
     <use style="fill:#3b4856;stroke:#3b4856;" x="399.17908" xlink:href="#mf9e1ba0b52" y="295.732442"/>
     <use style="fill:#3b4856;stroke:#3b4856;" x="402.23494" xlink:href="#mf9e1ba0b52" y="331.788286"/>
     <use style="fill:#3b4856;stroke:#3b4856;" x="405.2908" xlink:href="#mf9e1ba0b52" y="366.100018"/>
     <use style="fill:#3b4856;stroke:#3b4856;" x="411.402519" xlink:href="#mf9e1ba0b52" y="318.995857"/>
     <use style="fill:#3b4856;stroke:#3b4856;" x="414.458379" xlink:href="#mf9e1ba0b52" y="321.505822"/>
     <use style="fill:#3b4856;stroke:#3b4856;" x="423.625958" xlink:href="#mf9e1ba0b52" y="345.58811"/>
     <use style="fill:#3b4856;stroke:#3b4856;" x="426.681818" xlink:href="#mf9e1ba0b52" y="287.840324"/>
     <use style="fill:#3b4856;stroke:#3b4856;" x="429.737678" xlink:href="#mf9e1ba0b52" y="327.721248"/>
     <use style="fill:#3b4856;stroke:#3b4856;" x="432.793538" xlink:href="#mf9e1ba0b52" y="271.314719"/>
     <use style="fill:#3b4856;stroke:#3b4856;" x="435.849398" xlink:href="#mf9e1ba0b52" y="319.363789"/>
     <use style="fill:#3b4856;stroke:#3b4856;" x="438.905257" xlink:href="#mf9e1ba0b52" y="288.364607"/>
     <use style="fill:#3b4856;stroke:#3b4856;" x="441.961117" xlink:href="#mf9e1ba0b52" y="377.066207"/>
     <use style="fill:#3b4856;stroke:#3b4856;" x="445.016977" xlink:href="#mf9e1ba0b52" y="334.535368"/>
     <use style="fill:#3b4856;stroke:#3b4856;" x="448.072837" xlink:href="#mf9e1ba0b52" y="251.405268"/>
     <use style="fill:#3b4856;stroke:#3b4856;" x="451.128697" xlink:href="#mf9e1ba0b52" y="285.220005"/>
     <use style="fill:#3b4856;stroke:#3b4856;" x="454.184556" xlink:href="#mf9e1ba0b52" y="326.293834"/>
     <use style="fill:#3b4856;stroke:#3b4856;" x="466.407996" xlink:href="#mf9e1ba0b52" y="417.643737"/>
     <use style="fill:#3b4856;stroke:#3b4856;" x="469.463855" xlink:href="#mf9e1ba0b52" y="269.642724"/>
     <use style="fill:#3b4856;stroke:#3b4856;" x="472.519715" xlink:href="#mf9e1ba0b52" y="312.369742"/>
     <use style="fill:#3b4856;stroke:#3b4856;" x="475.575575" xlink:href="#mf9e1ba0b52" y="261.184343"/>
     <use style="fill:#3b4856;stroke:#3b4856;" x="481.687295" xlink:href="#mf9e1ba0b52" y="195.894184"/>
     <use style="fill:#3b4856;stroke:#3b4856;" x="484.743154" xlink:href="#mf9e1ba0b52" y="323.874382"/>
     <use style="fill:#3b4856;stroke:#3b4856;" x="493.910734" xlink:href="#mf9e1ba0b52" y="371.516256"/>
     <use style="fill:#3b4856;stroke:#3b4856;" x="496.966594" xlink:href="#mf9e1ba0b52" y="204.555472"/>
     <use style="fill:#3b4856;stroke:#3b4856;" x="500.022453" xlink:href="#mf9e1ba0b52" y="255.289623"/>
     <use style="fill:#3b4856;stroke:#3b4856;" x="503.078313" xlink:href="#mf9e1ba0b52" y="356.480071"/>
     <use style="fill:#3b4856;stroke:#3b4856;" x="506.134173" xlink:href="#mf9e1ba0b52" y="243.135884"/>
     <use style="fill:#3b4856;stroke:#3b4856;" x="512.245893" xlink:href="#mf9e1ba0b52" y="340.271644"/>
     <use style="fill:#3b4856;stroke:#3b4856;" x="515.301752" xlink:href="#mf9e1ba0b52" y="289.913056"/>
     <use style="fill:#3b4856;stroke:#3b4856;" x="518.357612" xlink:href="#mf9e1ba0b52" y="298.241313"/>
     <use style="fill:#3b4856;stroke:#3b4856;" x="521.413472" xlink:href="#mf9e1ba0b52" y="303.26632"/>
     <use style="fill:#3b4856;stroke:#3b4856;" x="524.469332" xlink:href="#mf9e1ba0b52" y="320.742314"/>
     <use style="fill:#3b4856;stroke:#3b4856;" x="530.581051" xlink:href="#mf9e1ba0b52" y="237.744229"/>
     <use style="fill:#3b4856;stroke:#3b4856;" x="533.636911" xlink:href="#mf9e1ba0b52" y="235.933266"/>
     <use style="fill:#3b4856;stroke:#3b4856;" x="536.692771" xlink:href="#mf9e1ba0b52" y="235.877991"/>
     <use style="fill:#3b4856;stroke:#3b4856;" x="539.748631" xlink:href="#mf9e1ba0b52" y="251.946019"/>
     <use style="fill:#3b4856;stroke:#3b4856;" x="545.86035" xlink:href="#mf9e1ba0b52" y="164.038622"/>
     <use style="fill:#3b4856;stroke:#3b4856;" x="548.91621" xlink:href="#mf9e1ba0b52" y="321.959279"/>
     <use style="fill:#3b4856;stroke:#3b4856;" x="551.97207" xlink:href="#mf9e1ba0b52" y="164.534597"/>
     <use style="fill:#3b4856;stroke:#3b4856;" x="555.02793" xlink:href="#mf9e1ba0b52" y="259.948095"/>
     <use style="fill:#3b4856;stroke:#3b4856;" x="558.08379" xlink:href="#mf9e1ba0b52" y="200.600387"/>
     <use style="fill:#3b4856;stroke:#3b4856;" x="561.13965" xlink:href="#mf9e1ba0b52" y="228.686968"/>
     <use style="fill:#3b4856;stroke:#3b4856;" x="564.195509" xlink:href="#mf9e1ba0b52" y="198.749244"/>
     <use style="fill:#3b4856;stroke:#3b4856;" x="579.474808" xlink:href="#mf9e1ba0b52" y="203.436694"/>
     <use style="fill:#3b4856;stroke:#3b4856;" x="585.586528" xlink:href="#mf9e1ba0b52" y="163.255783"/>
     <use style="fill:#3b4856;stroke:#3b4856;" x="588.642388" xlink:href="#mf9e1ba0b52" y="137.583246"/>
     <use style="fill:#3b4856;stroke:#3b4856;" x="591.698248" xlink:href="#mf9e1ba0b52" y="239.521246"/>
     <use style="fill:#3b4856;stroke:#3b4856;" x="594.754107" xlink:href="#mf9e1ba0b52" y="146.970613"/>
     <use style="fill:#3b4856;stroke:#3b4856;" x="600.865827" xlink:href="#mf9e1ba0b52" y="230.400284"/>
     <use style="fill:#3b4856;stroke:#3b4856;" x="625.312705" xlink:href="#mf9e1ba0b52" y="176.021587"/>
     <use style="fill:#3b4856;stroke:#3b4856;" x="631.424425" xlink:href="#mf9e1ba0b52" y="209.054099"/>
     <use style="fill:#3b4856;stroke:#3b4856;" x="634.480285" xlink:href="#mf9e1ba0b52" y="116.593075"/>
     <use style="fill:#3b4856;stroke:#3b4856;" x="640.592004" xlink:href="#mf9e1ba0b52" y="160.702362"/>
     <use style="fill:#3b4856;stroke:#3b4856;" x="646.703724" xlink:href="#mf9e1ba0b52" y="176.078307"/>
     <use style="fill:#3b4856;stroke:#3b4856;" x="652.815444" xlink:href="#mf9e1ba0b52" y="217.287994"/>
     <use style="fill:#3b4856;stroke:#3b4856;" x="661.983023" xlink:href="#mf9e1ba0b52" y="157.26344"/>
     <use style="fill:#3b4856;stroke:#3b4856;" x="665.038883" xlink:href="#mf9e1ba0b52" y="141.381947"/>
     <use style="fill:#3b4856;stroke:#3b4856;" x="671.150602" xlink:href="#mf9e1ba0b52" y="199.667079"/>
     <use style="fill:#3b4856;stroke:#3b4856;" x="674.206462" xlink:href="#mf9e1ba0b52" y="170.763385"/>
     <use style="fill:#3b4856;stroke:#3b4856;" x="686.429901" xlink:href="#mf9e1ba0b52" y="199.333869"/>
     <use style="fill:#3b4856;stroke:#3b4856;" x="692.541621" xlink:href="#mf9e1ba0b52" y="77.776364"/>
     <use style="fill:#3b4856;stroke:#3b4856;" x="698.653341" xlink:href="#mf9e1ba0b52" y="109.011489"/>
     <use style="fill:#3b4856;stroke:#3b4856;" x="704.76506" xlink:href="#mf9e1ba0b52" y="213.942877"/>
     <use style="fill:#3b4856;stroke:#3b4856;" x="710.87678" xlink:href="#mf9e1ba0b52" y="85.202064"/>
     <use style="fill:#3b4856;stroke:#3b4856;" x="713.93264" xlink:href="#mf9e1ba0b52" y="261.677421"/>
     <use style="fill:#3b4856;stroke:#3b4856;" x="716.988499" xlink:href="#mf9e1ba0b52" y="191.143752"/>
     <use style="fill:#3b4856;stroke:#3b4856;" x="720.044359" xlink:href="#mf9e1ba0b52" y="147.914998"/>
     <use style="fill:#3b4856;stroke:#3b4856;" x="723.100219" xlink:href="#mf9e1ba0b52" y="160.367755"/>
     <use style="fill:#3b4856;stroke:#3b4856;" x="726.156079" xlink:href="#mf9e1ba0b52" y="217.908328"/>
     <use style="fill:#3b4856;stroke:#3b4856;" x="729.211939" xlink:href="#mf9e1ba0b52" y="159.88375"/>
     <use style="fill:#3b4856;stroke:#3b4856;" x="732.267798" xlink:href="#mf9e1ba0b52" y="191.539991"/>
     <use style="fill:#3b4856;stroke:#3b4856;" x="735.323658" xlink:href="#mf9e1ba0b52" y="152.790931"/>
     <use style="fill:#3b4856;stroke:#3b4856;" x="738.379518" xlink:href="#mf9e1ba0b52" y="161.170739"/>
     <use style="fill:#3b4856;stroke:#3b4856;" x="741.435378" xlink:href="#mf9e1ba0b52" y="110.804591"/>
     <use style="fill:#3b4856;stroke:#3b4856;" x="744.491238" xlink:href="#mf9e1ba0b52" y="155.548907"/>
     <use style="fill:#3b4856;stroke:#3b4856;" x="747.547097" xlink:href="#mf9e1ba0b52" y="152.224183"/>
     <use style="fill:#3b4856;stroke:#3b4856;" x="753.658817" xlink:href="#mf9e1ba0b52" y="192.329421"/>
     <use style="fill:#3b4856;stroke:#3b4856;" x="759.770537" xlink:href="#mf9e1ba0b52" y="192.591"/>
     <use style="fill:#3b4856;stroke:#3b4856;" x="765.882256" xlink:href="#mf9e1ba0b52" y="223.478717"/>
     <use style="fill:#3b4856;stroke:#3b4856;" x="768.938116" xlink:href="#mf9e1ba0b52" y="244.615863"/>
     <use style="fill:#3b4856;stroke:#3b4856;" x="771.993976" xlink:href="#mf9e1ba0b52" y="211.617739"/>
     <use style="fill:#3b4856;stroke:#3b4856;" x="775.049836" xlink:href="#mf9e1ba0b52" y="160.006789"/>
     <use style="fill:#3b4856;stroke:#3b4856;" x="781.161555" xlink:href="#mf9e1ba0b52" y="128.046281"/>
     <use style="fill:#3b4856;stroke:#3b4856;" x="784.217415" xlink:href="#mf9e1ba0b52" y="103.83448"/>
     <use style="fill:#3b4856;stroke:#3b4856;" x="790.329135" xlink:href="#mf9e1ba0b52" y="162.556821"/>
     <use style="fill:#3b4856;stroke:#3b4856;" x="796.440854" xlink:href="#mf9e1ba0b52" y="239.447011"/>
     <use style="fill:#3b4856;stroke:#3b4856;" x="799.496714" xlink:href="#mf9e1ba0b52" y="180.841906"/>
     <use style="fill:#3b4856;stroke:#3b4856;" x="802.552574" xlink:href="#mf9e1ba0b52" y="183.435793"/>
     <use style="fill:#3b4856;stroke:#3b4856;" x="805.608434" xlink:href="#mf9e1ba0b52" y="222.664007"/>
     <use style="fill:#3b4856;stroke:#3b4856;" x="808.664294" xlink:href="#mf9e1ba0b52" y="231.678812"/>
     <use style="fill:#3b4856;stroke:#3b4856;" x="811.720153" xlink:href="#mf9e1ba0b52" y="168.370451"/>
     <use style="fill:#3b4856;stroke:#3b4856;" x="814.776013" xlink:href="#mf9e1ba0b52" y="141.823058"/>
     <use style="fill:#3b4856;stroke:#3b4856;" x="817.831873" xlink:href="#mf9e1ba0b52" y="138.724813"/>
     <use style="fill:#3b4856;stroke:#3b4856;" x="823.943593" xlink:href="#mf9e1ba0b52" y="216.567911"/>
     <use style="fill:#3b4856;stroke:#3b4856;" x="826.999452" xlink:href="#mf9e1ba0b52" y="225.208918"/>
     <use style="fill:#3b4856;stroke:#3b4856;" x="830.055312" xlink:href="#mf9e1ba0b52" y="254.897206"/>
     <use style="fill:#3b4856;stroke:#3b4856;" x="833.111172" xlink:href="#mf9e1ba0b52" y="246.232401"/>
     <use style="fill:#3b4856;stroke:#3b4856;" x="836.167032" xlink:href="#mf9e1ba0b52" y="266.033613"/>
     <use style="fill:#3b4856;stroke:#3b4856;" x="839.222892" xlink:href="#mf9e1ba0b52" y="335.729836"/>
     <use style="fill:#3b4856;stroke:#3b4856;" x="857.55805" xlink:href="#mf9e1ba0b52" y="238.759258"/>
     <use style="fill:#3b4856;stroke:#3b4856;" x="860.61391" xlink:href="#mf9e1ba0b52" y="176.402865"/>
     <use style="fill:#3b4856;stroke:#3b4856;" x="866.72563" xlink:href="#mf9e1ba0b52" y="258.399959"/>
     <use style="fill:#3b4856;stroke:#3b4856;" x="872.837349" xlink:href="#mf9e1ba0b52" y="261.888886"/>
     <use style="fill:#3b4856;stroke:#3b4856;" x="875.893209" xlink:href="#mf9e1ba0b52" y="235.841743"/>
     <use style="fill:#3b4856;stroke:#3b4856;" x="878.949069" xlink:href="#mf9e1ba0b52" y="241.603338"/>
     <use style="fill:#3b4856;stroke:#3b4856;" x="882.004929" xlink:href="#mf9e1ba0b52" y="229.179762"/>
     <use style="fill:#3b4856;stroke:#3b4856;" x="885.060789" xlink:href="#mf9e1ba0b52" y="292.533026"/>
     <use style="fill:#3b4856;stroke:#3b4856;" x="888.116648" xlink:href="#mf9e1ba0b52" y="355.247061"/>
     <use style="fill:#3b4856;stroke:#3b4856;" x="891.172508" xlink:href="#mf9e1ba0b52" y="187.067505"/>
     <use style="fill:#3b4856;stroke:#3b4856;" x="894.228368" xlink:href="#mf9e1ba0b52" y="210.366184"/>
     <use style="fill:#3b4856;stroke:#3b4856;" x="897.284228" xlink:href="#mf9e1ba0b52" y="295.980553"/>
     <use style="fill:#3b4856;stroke:#3b4856;" x="900.340088" xlink:href="#mf9e1ba0b52" y="359.062427"/>
     <use style="fill:#3b4856;stroke:#3b4856;" x="903.395947" xlink:href="#mf9e1ba0b52" y="312.564785"/>
     <use style="fill:#3b4856;stroke:#3b4856;" x="906.451807" xlink:href="#mf9e1ba0b52" y="250.940236"/>
     <use style="fill:#3b4856;stroke:#3b4856;" x="909.507667" xlink:href="#mf9e1ba0b52" y="215.014366"/>
     <use style="fill:#3b4856;stroke:#3b4856;" x="915.619387" xlink:href="#mf9e1ba0b52" y="234.645704"/>
     <use style="fill:#3b4856;stroke:#3b4856;" x="918.675246" xlink:href="#mf9e1ba0b52" y="226.142888"/>
     <use style="fill:#3b4856;stroke:#3b4856;" x="921.731106" xlink:href="#mf9e1ba0b52" y="226.295899"/>
    </g>
   </g>
   <g id="matplotlib.axis_1">
    <g id="xtick_1">
     <g id="line2d_1">
      <path clip-path="url(#p818ecef0cb)" d="M 135 441 
L 135 60.48 
" style="fill:none;stroke:#3b4856;stroke-linecap:square;stroke-opacity:0.7;stroke-width:0.8;"/>
     </g>
     <g id="line2d_2">
      <defs>
       <path d="M 0 0 
L 0 3.5 
" id="m8bc310f7f4" style="stroke:#000000;stroke-width:0.8;"/>
      </defs>
      <g>
       <use style="stroke:#000000;stroke-width:0.8;" x="135" xlink:href="#m8bc310f7f4" y="441"/>
      </g>
     </g>
     <g id="text_1">
      <!-- −5.5 -->
      <g transform="translate(120.430312 457.118125)scale(0.12 -0.12)">
       <defs>
        <path d="M 678 2272 
L 4684 2272 
L 4684 1741 
L 678 1741 
L 678 2272 
z
" id="DejaVuSans-2212" transform="scale(0.015625)"/>
        <path d="M 691 4666 
L 3169 4666 
L 3169 4134 
L 1269 4134 
L 1269 2991 
Q 1406 3038 1543 3061 
Q 1681 3084 1819 3084 
Q 2600 3084 3056 2656 
Q 3513 2228 3513 1497 
Q 3513 744 3044 326 
Q 2575 -91 1722 -91 
Q 1428 -91 1123 -41 
Q 819 9 494 109 
L 494 744 
Q 775 591 1075 516 
Q 1375 441 1709 441 
Q 2250 441 2565 725 
Q 2881 1009 2881 1497 
Q 2881 1984 2565 2268 
Q 2250 2553 1709 2553 
Q 1456 2553 1204 2497 
Q 953 2441 691 2322 
L 691 4666 
z
" id="DejaVuSans-35" transform="scale(0.015625)"/>
        <path d="M 684 794 
L 1344 794 
L 1344 0 
L 684 0 
L 684 794 
z
" id="DejaVuSans-2e" transform="scale(0.015625)"/>
       </defs>
       <use xlink:href="#DejaVuSans-2212"/>
       <use x="83.789062" xlink:href="#DejaVuSans-35"/>
       <use x="147.412109" xlink:href="#DejaVuSans-2e"/>
       <use x="179.199219" xlink:href="#DejaVuSans-35"/>
      </g>
     </g>
    </g>
    <g id="xtick_2">
     <g id="line2d_3">
      <path clip-path="url(#p818ecef0cb)" d="M 173.045455 441 
L 173.045455 60.48 
" style="fill:none;stroke:#3b4856;stroke-linecap:square;stroke-opacity:0.7;stroke-width:0.8;"/>
     </g>
     <g id="line2d_4">
      <g>
       <use style="stroke:#000000;stroke-width:0.8;" x="173.045455" xlink:href="#m8bc310f7f4" y="441"/>
      </g>
     </g>
     <g id="text_2">
      <!-- −5.0 -->
      <g transform="translate(158.475767 457.118125)scale(0.12 -0.12)">
       <defs>
        <path d="M 2034 4250 
Q 1547 4250 1301 3770 
Q 1056 3291 1056 2328 
Q 1056 1369 1301 889 
Q 1547 409 2034 409 
Q 2525 409 2770 889 
Q 3016 1369 3016 2328 
Q 3016 3291 2770 3770 
Q 2525 4250 2034 4250 
z
M 2034 4750 
Q 2819 4750 3233 4129 
Q 3647 3509 3647 2328 
Q 3647 1150 3233 529 
Q 2819 -91 2034 -91 
Q 1250 -91 836 529 
Q 422 1150 422 2328 
Q 422 3509 836 4129 
Q 1250 4750 2034 4750 
z
" id="DejaVuSans-30" transform="scale(0.015625)"/>
       </defs>
       <use xlink:href="#DejaVuSans-2212"/>
       <use x="83.789062" xlink:href="#DejaVuSans-35"/>
       <use x="147.412109" xlink:href="#DejaVuSans-2e"/>
       <use x="179.199219" xlink:href="#DejaVuSans-30"/>
      </g>
     </g>
    </g>
    <g id="xtick_3">
     <g id="line2d_5">
      <path clip-path="url(#p818ecef0cb)" d="M 211.090909 441 
L 211.090909 60.48 
" style="fill:none;stroke:#3b4856;stroke-linecap:square;stroke-opacity:0.7;stroke-width:0.8;"/>
     </g>
     <g id="line2d_6">
      <g>
       <use style="stroke:#000000;stroke-width:0.8;" x="211.090909" xlink:href="#m8bc310f7f4" y="441"/>
      </g>
     </g>
     <g id="text_3">
      <!-- −4.5 -->
      <g transform="translate(196.521222 457.118125)scale(0.12 -0.12)">
       <defs>
        <path d="M 2419 4116 
L 825 1625 
L 2419 1625 
L 2419 4116 
z
M 2253 4666 
L 3047 4666 
L 3047 1625 
L 3713 1625 
L 3713 1100 
L 3047 1100 
L 3047 0 
L 2419 0 
L 2419 1100 
L 313 1100 
L 313 1709 
L 2253 4666 
z
" id="DejaVuSans-34" transform="scale(0.015625)"/>
       </defs>
       <use xlink:href="#DejaVuSans-2212"/>
       <use x="83.789062" xlink:href="#DejaVuSans-34"/>
       <use x="147.412109" xlink:href="#DejaVuSans-2e"/>
       <use x="179.199219" xlink:href="#DejaVuSans-35"/>
      </g>
     </g>
    </g>
    <g id="xtick_4">
     <g id="line2d_7">
      <path clip-path="url(#p818ecef0cb)" d="M 249.136364 441 
L 249.136364 60.48 
" style="fill:none;stroke:#3b4856;stroke-linecap:square;stroke-opacity:0.7;stroke-width:0.8;"/>
     </g>
     <g id="line2d_8">
      <g>
       <use style="stroke:#000000;stroke-width:0.8;" x="249.136364" xlink:href="#m8bc310f7f4" y="441"/>
      </g>
     </g>
     <g id="text_4">
      <!-- −4.0 -->
      <g transform="translate(234.566676 457.118125)scale(0.12 -0.12)">
       <use xlink:href="#DejaVuSans-2212"/>
       <use x="83.789062" xlink:href="#DejaVuSans-34"/>
       <use x="147.412109" xlink:href="#DejaVuSans-2e"/>
       <use x="179.199219" xlink:href="#DejaVuSans-30"/>
      </g>
     </g>
    </g>
    <g id="xtick_5">
     <g id="line2d_9">
      <path clip-path="url(#p818ecef0cb)" d="M 287.181818 441 
L 287.181818 60.48 
" style="fill:none;stroke:#3b4856;stroke-linecap:square;stroke-opacity:0.7;stroke-width:0.8;"/>
     </g>
     <g id="line2d_10">
      <g>
       <use style="stroke:#000000;stroke-width:0.8;" x="287.181818" xlink:href="#m8bc310f7f4" y="441"/>
      </g>
     </g>
     <g id="text_5">
      <!-- −3.5 -->
      <g transform="translate(272.612131 457.118125)scale(0.12 -0.12)">
       <defs>
        <path d="M 2597 2516 
Q 3050 2419 3304 2112 
Q 3559 1806 3559 1356 
Q 3559 666 3084 287 
Q 2609 -91 1734 -91 
Q 1441 -91 1130 -33 
Q 819 25 488 141 
L 488 750 
Q 750 597 1062 519 
Q 1375 441 1716 441 
Q 2309 441 2620 675 
Q 2931 909 2931 1356 
Q 2931 1769 2642 2001 
Q 2353 2234 1838 2234 
L 1294 2234 
L 1294 2753 
L 1863 2753 
Q 2328 2753 2575 2939 
Q 2822 3125 2822 3475 
Q 2822 3834 2567 4026 
Q 2313 4219 1838 4219 
Q 1578 4219 1281 4162 
Q 984 4106 628 3988 
L 628 4550 
Q 988 4650 1302 4700 
Q 1616 4750 1894 4750 
Q 2613 4750 3031 4423 
Q 3450 4097 3450 3541 
Q 3450 3153 3228 2886 
Q 3006 2619 2597 2516 
z
" id="DejaVuSans-33" transform="scale(0.015625)"/>
       </defs>
       <use xlink:href="#DejaVuSans-2212"/>
       <use x="83.789062" xlink:href="#DejaVuSans-33"/>
       <use x="147.412109" xlink:href="#DejaVuSans-2e"/>
       <use x="179.199219" xlink:href="#DejaVuSans-35"/>
      </g>
     </g>
    </g>
    <g id="xtick_6">
     <g id="line2d_11">
      <path clip-path="url(#p818ecef0cb)" d="M 325.227273 441 
L 325.227273 60.48 
" style="fill:none;stroke:#3b4856;stroke-linecap:square;stroke-opacity:0.7;stroke-width:0.8;"/>
     </g>
     <g id="line2d_12">
      <g>
       <use style="stroke:#000000;stroke-width:0.8;" x="325.227273" xlink:href="#m8bc310f7f4" y="441"/>
      </g>
     </g>
     <g id="text_6">
      <!-- −3.0 -->
      <g transform="translate(310.657585 457.118125)scale(0.12 -0.12)">
       <use xlink:href="#DejaVuSans-2212"/>
       <use x="83.789062" xlink:href="#DejaVuSans-33"/>
       <use x="147.412109" xlink:href="#DejaVuSans-2e"/>
       <use x="179.199219" xlink:href="#DejaVuSans-30"/>
      </g>
     </g>
    </g>
    <g id="xtick_7">
     <g id="line2d_13">
      <path clip-path="url(#p818ecef0cb)" d="M 363.272727 441 
L 363.272727 60.48 
" style="fill:none;stroke:#3b4856;stroke-linecap:square;stroke-opacity:0.7;stroke-width:0.8;"/>
     </g>
     <g id="line2d_14">
      <g>
       <use style="stroke:#000000;stroke-width:0.8;" x="363.272727" xlink:href="#m8bc310f7f4" y="441"/>
      </g>
     </g>
     <g id="text_7">
      <!-- −2.5 -->
      <g transform="translate(348.70304 457.118125)scale(0.12 -0.12)">
       <defs>
        <path d="M 1228 531 
L 3431 531 
L 3431 0 
L 469 0 
L 469 531 
Q 828 903 1448 1529 
Q 2069 2156 2228 2338 
Q 2531 2678 2651 2914 
Q 2772 3150 2772 3378 
Q 2772 3750 2511 3984 
Q 2250 4219 1831 4219 
Q 1534 4219 1204 4116 
Q 875 4013 500 3803 
L 500 4441 
Q 881 4594 1212 4672 
Q 1544 4750 1819 4750 
Q 2544 4750 2975 4387 
Q 3406 4025 3406 3419 
Q 3406 3131 3298 2873 
Q 3191 2616 2906 2266 
Q 2828 2175 2409 1742 
Q 1991 1309 1228 531 
z
" id="DejaVuSans-32" transform="scale(0.015625)"/>
       </defs>
       <use xlink:href="#DejaVuSans-2212"/>
       <use x="83.789062" xlink:href="#DejaVuSans-32"/>
       <use x="147.412109" xlink:href="#DejaVuSans-2e"/>
       <use x="179.199219" xlink:href="#DejaVuSans-35"/>
      </g>
     </g>
    </g>
    <g id="xtick_8">
     <g id="line2d_15">
      <path clip-path="url(#p818ecef0cb)" d="M 401.318182 441 
L 401.318182 60.48 
" style="fill:none;stroke:#3b4856;stroke-linecap:square;stroke-opacity:0.7;stroke-width:0.8;"/>
     </g>
     <g id="line2d_16">
      <g>
       <use style="stroke:#000000;stroke-width:0.8;" x="401.318182" xlink:href="#m8bc310f7f4" y="441"/>
      </g>
     </g>
     <g id="text_8">
      <!-- −2.0 -->
      <g transform="translate(386.748494 457.118125)scale(0.12 -0.12)">
       <use xlink:href="#DejaVuSans-2212"/>
       <use x="83.789062" xlink:href="#DejaVuSans-32"/>
       <use x="147.412109" xlink:href="#DejaVuSans-2e"/>
       <use x="179.199219" xlink:href="#DejaVuSans-30"/>
      </g>
     </g>
    </g>
    <g id="xtick_9">
     <g id="line2d_17">
      <path clip-path="url(#p818ecef0cb)" d="M 439.363636 441 
L 439.363636 60.48 
" style="fill:none;stroke:#3b4856;stroke-linecap:square;stroke-opacity:0.7;stroke-width:0.8;"/>
     </g>
     <g id="line2d_18">
      <g>
       <use style="stroke:#000000;stroke-width:0.8;" x="439.363636" xlink:href="#m8bc310f7f4" y="441"/>
      </g>
     </g>
     <g id="text_9">
      <!-- −1.5 -->
      <g transform="translate(424.793949 457.118125)scale(0.12 -0.12)">
       <defs>
        <path d="M 794 531 
L 1825 531 
L 1825 4091 
L 703 3866 
L 703 4441 
L 1819 4666 
L 2450 4666 
L 2450 531 
L 3481 531 
L 3481 0 
L 794 0 
L 794 531 
z
" id="DejaVuSans-31" transform="scale(0.015625)"/>
       </defs>
       <use xlink:href="#DejaVuSans-2212"/>
       <use x="83.789062" xlink:href="#DejaVuSans-31"/>
       <use x="147.412109" xlink:href="#DejaVuSans-2e"/>
       <use x="179.199219" xlink:href="#DejaVuSans-35"/>
      </g>
     </g>
    </g>
    <g id="xtick_10">
     <g id="line2d_19">
      <path clip-path="url(#p818ecef0cb)" d="M 477.409091 441 
L 477.409091 60.48 
" style="fill:none;stroke:#3b4856;stroke-linecap:square;stroke-opacity:0.7;stroke-width:0.8;"/>
     </g>
     <g id="line2d_20">
      <g>
       <use style="stroke:#000000;stroke-width:0.8;" x="477.409091" xlink:href="#m8bc310f7f4" y="441"/>
      </g>
     </g>
     <g id="text_10">
      <!-- −1.0 -->
      <g transform="translate(462.839403 457.118125)scale(0.12 -0.12)">
       <use xlink:href="#DejaVuSans-2212"/>
       <use x="83.789062" xlink:href="#DejaVuSans-31"/>
       <use x="147.412109" xlink:href="#DejaVuSans-2e"/>
       <use x="179.199219" xlink:href="#DejaVuSans-30"/>
      </g>
     </g>
    </g>
    <g id="xtick_11">
     <g id="line2d_21">
      <path clip-path="url(#p818ecef0cb)" d="M 515.454545 441 
L 515.454545 60.48 
" style="fill:none;stroke:#3b4856;stroke-linecap:square;stroke-opacity:0.7;stroke-width:0.8;"/>
     </g>
     <g id="line2d_22">
      <g>
       <use style="stroke:#000000;stroke-width:0.8;" x="515.454545" xlink:href="#m8bc310f7f4" y="441"/>
      </g>
     </g>
     <g id="text_11">
      <!-- −0.5 -->
      <g transform="translate(500.884858 457.118125)scale(0.12 -0.12)">
       <use xlink:href="#DejaVuSans-2212"/>
       <use x="83.789062" xlink:href="#DejaVuSans-30"/>
       <use x="147.412109" xlink:href="#DejaVuSans-2e"/>
       <use x="179.199219" xlink:href="#DejaVuSans-35"/>
      </g>
     </g>
    </g>
    <g id="xtick_12">
     <g id="line2d_23">
      <path clip-path="url(#p818ecef0cb)" d="M 553.5 441 
L 553.5 60.48 
" style="fill:none;stroke:#3b4856;stroke-linecap:square;stroke-opacity:0.7;stroke-width:0.8;"/>
     </g>
     <g id="line2d_24">
      <g>
       <use style="stroke:#000000;stroke-width:0.8;" x="553.5" xlink:href="#m8bc310f7f4" y="441"/>
      </g>
     </g>
     <g id="text_12">
      <!-- 0.0 -->
      <g transform="translate(543.958125 457.118125)scale(0.12 -0.12)">
       <use xlink:href="#DejaVuSans-30"/>
       <use x="63.623047" xlink:href="#DejaVuSans-2e"/>
       <use x="95.410156" xlink:href="#DejaVuSans-30"/>
      </g>
     </g>
    </g>
    <g id="xtick_13">
     <g id="line2d_25">
      <path clip-path="url(#p818ecef0cb)" d="M 591.545455 441 
L 591.545455 60.48 
" style="fill:none;stroke:#3b4856;stroke-linecap:square;stroke-opacity:0.7;stroke-width:0.8;"/>
     </g>
     <g id="line2d_26">
      <g>
       <use style="stroke:#000000;stroke-width:0.8;" x="591.545455" xlink:href="#m8bc310f7f4" y="441"/>
      </g>
     </g>
     <g id="text_13">
      <!-- 0.5 -->
      <g transform="translate(582.00358 457.118125)scale(0.12 -0.12)">
       <use xlink:href="#DejaVuSans-30"/>
       <use x="63.623047" xlink:href="#DejaVuSans-2e"/>
       <use x="95.410156" xlink:href="#DejaVuSans-35"/>
      </g>
     </g>
    </g>
    <g id="xtick_14">
     <g id="line2d_27">
      <path clip-path="url(#p818ecef0cb)" d="M 629.590909 441 
L 629.590909 60.48 
" style="fill:none;stroke:#3b4856;stroke-linecap:square;stroke-opacity:0.7;stroke-width:0.8;"/>
     </g>
     <g id="line2d_28">
      <g>
       <use style="stroke:#000000;stroke-width:0.8;" x="629.590909" xlink:href="#m8bc310f7f4" y="441"/>
      </g>
     </g>
     <g id="text_14">
      <!-- 1.0 -->
      <g transform="translate(620.049034 457.118125)scale(0.12 -0.12)">
       <use xlink:href="#DejaVuSans-31"/>
       <use x="63.623047" xlink:href="#DejaVuSans-2e"/>
       <use x="95.410156" xlink:href="#DejaVuSans-30"/>
      </g>
     </g>
    </g>
    <g id="xtick_15">
     <g id="line2d_29">
      <path clip-path="url(#p818ecef0cb)" d="M 667.636364 441 
L 667.636364 60.48 
" style="fill:none;stroke:#3b4856;stroke-linecap:square;stroke-opacity:0.7;stroke-width:0.8;"/>
     </g>
     <g id="line2d_30">
      <g>
       <use style="stroke:#000000;stroke-width:0.8;" x="667.636364" xlink:href="#m8bc310f7f4" y="441"/>
      </g>
     </g>
     <g id="text_15">
      <!-- 1.5 -->
      <g transform="translate(658.094489 457.118125)scale(0.12 -0.12)">
       <use xlink:href="#DejaVuSans-31"/>
       <use x="63.623047" xlink:href="#DejaVuSans-2e"/>
       <use x="95.410156" xlink:href="#DejaVuSans-35"/>
      </g>
     </g>
    </g>
    <g id="xtick_16">
     <g id="line2d_31">
      <path clip-path="url(#p818ecef0cb)" d="M 705.681818 441 
L 705.681818 60.48 
" style="fill:none;stroke:#3b4856;stroke-linecap:square;stroke-opacity:0.7;stroke-width:0.8;"/>
     </g>
     <g id="line2d_32">
      <g>
       <use style="stroke:#000000;stroke-width:0.8;" x="705.681818" xlink:href="#m8bc310f7f4" y="441"/>
      </g>
     </g>
     <g id="text_16">
      <!-- 2.0 -->
      <g transform="translate(696.139943 457.118125)scale(0.12 -0.12)">
       <use xlink:href="#DejaVuSans-32"/>
       <use x="63.623047" xlink:href="#DejaVuSans-2e"/>
       <use x="95.410156" xlink:href="#DejaVuSans-30"/>
      </g>
     </g>
    </g>
    <g id="xtick_17">
     <g id="line2d_33">
      <path clip-path="url(#p818ecef0cb)" d="M 743.727273 441 
L 743.727273 60.48 
" style="fill:none;stroke:#3b4856;stroke-linecap:square;stroke-opacity:0.7;stroke-width:0.8;"/>
     </g>
     <g id="line2d_34">
      <g>
       <use style="stroke:#000000;stroke-width:0.8;" x="743.727273" xlink:href="#m8bc310f7f4" y="441"/>
      </g>
     </g>
     <g id="text_17">
      <!-- 2.5 -->
      <g transform="translate(734.185398 457.118125)scale(0.12 -0.12)">
       <use xlink:href="#DejaVuSans-32"/>
       <use x="63.623047" xlink:href="#DejaVuSans-2e"/>
       <use x="95.410156" xlink:href="#DejaVuSans-35"/>
      </g>
     </g>
    </g>
    <g id="xtick_18">
     <g id="line2d_35">
      <path clip-path="url(#p818ecef0cb)" d="M 781.772727 441 
L 781.772727 60.48 
" style="fill:none;stroke:#3b4856;stroke-linecap:square;stroke-opacity:0.7;stroke-width:0.8;"/>
     </g>
     <g id="line2d_36">
      <g>
       <use style="stroke:#000000;stroke-width:0.8;" x="781.772727" xlink:href="#m8bc310f7f4" y="441"/>
      </g>
     </g>
     <g id="text_18">
      <!-- 3.0 -->
      <g transform="translate(772.230852 457.118125)scale(0.12 -0.12)">
       <use xlink:href="#DejaVuSans-33"/>
       <use x="63.623047" xlink:href="#DejaVuSans-2e"/>
       <use x="95.410156" xlink:href="#DejaVuSans-30"/>
      </g>
     </g>
    </g>
    <g id="xtick_19">
     <g id="line2d_37">
      <path clip-path="url(#p818ecef0cb)" d="M 819.818182 441 
L 819.818182 60.48 
" style="fill:none;stroke:#3b4856;stroke-linecap:square;stroke-opacity:0.7;stroke-width:0.8;"/>
     </g>
     <g id="line2d_38">
      <g>
       <use style="stroke:#000000;stroke-width:0.8;" x="819.818182" xlink:href="#m8bc310f7f4" y="441"/>
      </g>
     </g>
     <g id="text_19">
      <!-- 3.5 -->
      <g transform="translate(810.276307 457.118125)scale(0.12 -0.12)">
       <use xlink:href="#DejaVuSans-33"/>
       <use x="63.623047" xlink:href="#DejaVuSans-2e"/>
       <use x="95.410156" xlink:href="#DejaVuSans-35"/>
      </g>
     </g>
    </g>
    <g id="xtick_20">
     <g id="line2d_39">
      <path clip-path="url(#p818ecef0cb)" d="M 857.863636 441 
L 857.863636 60.48 
" style="fill:none;stroke:#3b4856;stroke-linecap:square;stroke-opacity:0.7;stroke-width:0.8;"/>
     </g>
     <g id="line2d_40">
      <g>
       <use style="stroke:#000000;stroke-width:0.8;" x="857.863636" xlink:href="#m8bc310f7f4" y="441"/>
      </g>
     </g>
     <g id="text_20">
      <!-- 4.0 -->
      <g transform="translate(848.321761 457.118125)scale(0.12 -0.12)">
       <use xlink:href="#DejaVuSans-34"/>
       <use x="63.623047" xlink:href="#DejaVuSans-2e"/>
       <use x="95.410156" xlink:href="#DejaVuSans-30"/>
      </g>
     </g>
    </g>
    <g id="xtick_21">
     <g id="line2d_41">
      <path clip-path="url(#p818ecef0cb)" d="M 895.909091 441 
L 895.909091 60.48 
" style="fill:none;stroke:#3b4856;stroke-linecap:square;stroke-opacity:0.7;stroke-width:0.8;"/>
     </g>
     <g id="line2d_42">
      <g>
       <use style="stroke:#000000;stroke-width:0.8;" x="895.909091" xlink:href="#m8bc310f7f4" y="441"/>
      </g>
     </g>
     <g id="text_21">
      <!-- 4.5 -->
      <g transform="translate(886.367216 457.118125)scale(0.12 -0.12)">
       <use xlink:href="#DejaVuSans-34"/>
       <use x="63.623047" xlink:href="#DejaVuSans-2e"/>
       <use x="95.410156" xlink:href="#DejaVuSans-35"/>
      </g>
     </g>
    </g>
    <g id="xtick_22">
     <g id="line2d_43">
      <path clip-path="url(#p818ecef0cb)" d="M 933.954545 441 
L 933.954545 60.48 
" style="fill:none;stroke:#3b4856;stroke-linecap:square;stroke-opacity:0.7;stroke-width:0.8;"/>
     </g>
     <g id="line2d_44">
      <g>
       <use style="stroke:#000000;stroke-width:0.8;" x="933.954545" xlink:href="#m8bc310f7f4" y="441"/>
      </g>
     </g>
     <g id="text_22">
      <!-- 5.0 -->
      <g transform="translate(924.41267 457.118125)scale(0.12 -0.12)">
       <use xlink:href="#DejaVuSans-35"/>
       <use x="63.623047" xlink:href="#DejaVuSans-2e"/>
       <use x="95.410156" xlink:href="#DejaVuSans-30"/>
      </g>
     </g>
    </g>
    <g id="xtick_23">
     <g id="line2d_45">
      <path clip-path="url(#p818ecef0cb)" d="M 154.022727 441 
L 154.022727 60.48 
" style="fill:none;stroke:#3b4856;stroke-dasharray:2.96,1.28;stroke-dashoffset:0;stroke-opacity:0.3;stroke-width:0.8;"/>
     </g>
     <g id="line2d_46">
      <defs>
       <path d="M 0 0 
L 0 2 
" id="m83e8de5027" style="stroke:#000000;stroke-width:0.6;"/>
      </defs>
      <g>
       <use style="stroke:#000000;stroke-width:0.6;" x="154.022727" xlink:href="#m83e8de5027" y="441"/>
      </g>
     </g>
    </g>
    <g id="xtick_24">
     <g id="line2d_47">
      <path clip-path="url(#p818ecef0cb)" d="M 192.068182 441 
L 192.068182 60.48 
" style="fill:none;stroke:#3b4856;stroke-dasharray:2.96,1.28;stroke-dashoffset:0;stroke-opacity:0.3;stroke-width:0.8;"/>
     </g>
     <g id="line2d_48">
      <g>
       <use style="stroke:#000000;stroke-width:0.6;" x="192.068182" xlink:href="#m83e8de5027" y="441"/>
      </g>
     </g>
    </g>
    <g id="xtick_25">
     <g id="line2d_49">
      <path clip-path="url(#p818ecef0cb)" d="M 230.113636 441 
L 230.113636 60.48 
" style="fill:none;stroke:#3b4856;stroke-dasharray:2.96,1.28;stroke-dashoffset:0;stroke-opacity:0.3;stroke-width:0.8;"/>
     </g>
     <g id="line2d_50">
      <g>
       <use style="stroke:#000000;stroke-width:0.6;" x="230.113636" xlink:href="#m83e8de5027" y="441"/>
      </g>
     </g>
    </g>
    <g id="xtick_26">
     <g id="line2d_51">
      <path clip-path="url(#p818ecef0cb)" d="M 268.159091 441 
L 268.159091 60.48 
" style="fill:none;stroke:#3b4856;stroke-dasharray:2.96,1.28;stroke-dashoffset:0;stroke-opacity:0.3;stroke-width:0.8;"/>
     </g>
     <g id="line2d_52">
      <g>
       <use style="stroke:#000000;stroke-width:0.6;" x="268.159091" xlink:href="#m83e8de5027" y="441"/>
      </g>
     </g>
    </g>
    <g id="xtick_27">
     <g id="line2d_53">
      <path clip-path="url(#p818ecef0cb)" d="M 306.204545 441 
L 306.204545 60.48 
" style="fill:none;stroke:#3b4856;stroke-dasharray:2.96,1.28;stroke-dashoffset:0;stroke-opacity:0.3;stroke-width:0.8;"/>
     </g>
     <g id="line2d_54">
      <g>
       <use style="stroke:#000000;stroke-width:0.6;" x="306.204545" xlink:href="#m83e8de5027" y="441"/>
      </g>
     </g>
    </g>
    <g id="xtick_28">
     <g id="line2d_55">
      <path clip-path="url(#p818ecef0cb)" d="M 344.25 441 
L 344.25 60.48 
" style="fill:none;stroke:#3b4856;stroke-dasharray:2.96,1.28;stroke-dashoffset:0;stroke-opacity:0.3;stroke-width:0.8;"/>
     </g>
     <g id="line2d_56">
      <g>
       <use style="stroke:#000000;stroke-width:0.6;" x="344.25" xlink:href="#m83e8de5027" y="441"/>
      </g>
     </g>
    </g>
    <g id="xtick_29">
     <g id="line2d_57">
      <path clip-path="url(#p818ecef0cb)" d="M 382.295455 441 
L 382.295455 60.48 
" style="fill:none;stroke:#3b4856;stroke-dasharray:2.96,1.28;stroke-dashoffset:0;stroke-opacity:0.3;stroke-width:0.8;"/>
     </g>
     <g id="line2d_58">
      <g>
       <use style="stroke:#000000;stroke-width:0.6;" x="382.295455" xlink:href="#m83e8de5027" y="441"/>
      </g>
     </g>
    </g>
    <g id="xtick_30">
     <g id="line2d_59">
      <path clip-path="url(#p818ecef0cb)" d="M 420.340909 441 
L 420.340909 60.48 
" style="fill:none;stroke:#3b4856;stroke-dasharray:2.96,1.28;stroke-dashoffset:0;stroke-opacity:0.3;stroke-width:0.8;"/>
     </g>
     <g id="line2d_60">
      <g>
       <use style="stroke:#000000;stroke-width:0.6;" x="420.340909" xlink:href="#m83e8de5027" y="441"/>
      </g>
     </g>
    </g>
    <g id="xtick_31">
     <g id="line2d_61">
      <path clip-path="url(#p818ecef0cb)" d="M 458.386364 441 
L 458.386364 60.48 
" style="fill:none;stroke:#3b4856;stroke-dasharray:2.96,1.28;stroke-dashoffset:0;stroke-opacity:0.3;stroke-width:0.8;"/>
     </g>
     <g id="line2d_62">
      <g>
       <use style="stroke:#000000;stroke-width:0.6;" x="458.386364" xlink:href="#m83e8de5027" y="441"/>
      </g>
     </g>
    </g>
    <g id="xtick_32">
     <g id="line2d_63">
      <path clip-path="url(#p818ecef0cb)" d="M 496.431818 441 
L 496.431818 60.48 
" style="fill:none;stroke:#3b4856;stroke-dasharray:2.96,1.28;stroke-dashoffset:0;stroke-opacity:0.3;stroke-width:0.8;"/>
     </g>
     <g id="line2d_64">
      <g>
       <use style="stroke:#000000;stroke-width:0.6;" x="496.431818" xlink:href="#m83e8de5027" y="441"/>
      </g>
     </g>
    </g>
    <g id="xtick_33">
     <g id="line2d_65">
      <path clip-path="url(#p818ecef0cb)" d="M 534.477273 441 
L 534.477273 60.48 
" style="fill:none;stroke:#3b4856;stroke-dasharray:2.96,1.28;stroke-dashoffset:0;stroke-opacity:0.3;stroke-width:0.8;"/>
     </g>
     <g id="line2d_66">
      <g>
       <use style="stroke:#000000;stroke-width:0.6;" x="534.477273" xlink:href="#m83e8de5027" y="441"/>
      </g>
     </g>
    </g>
    <g id="xtick_34">
     <g id="line2d_67">
      <path clip-path="url(#p818ecef0cb)" d="M 572.522727 441 
L 572.522727 60.48 
" style="fill:none;stroke:#3b4856;stroke-dasharray:2.96,1.28;stroke-dashoffset:0;stroke-opacity:0.3;stroke-width:0.8;"/>
     </g>
     <g id="line2d_68">
      <g>
       <use style="stroke:#000000;stroke-width:0.6;" x="572.522727" xlink:href="#m83e8de5027" y="441"/>
      </g>
     </g>
    </g>
    <g id="xtick_35">
     <g id="line2d_69">
      <path clip-path="url(#p818ecef0cb)" d="M 610.568182 441 
L 610.568182 60.48 
" style="fill:none;stroke:#3b4856;stroke-dasharray:2.96,1.28;stroke-dashoffset:0;stroke-opacity:0.3;stroke-width:0.8;"/>
     </g>
     <g id="line2d_70">
      <g>
       <use style="stroke:#000000;stroke-width:0.6;" x="610.568182" xlink:href="#m83e8de5027" y="441"/>
      </g>
     </g>
    </g>
    <g id="xtick_36">
     <g id="line2d_71">
      <path clip-path="url(#p818ecef0cb)" d="M 648.613636 441 
L 648.613636 60.48 
" style="fill:none;stroke:#3b4856;stroke-dasharray:2.96,1.28;stroke-dashoffset:0;stroke-opacity:0.3;stroke-width:0.8;"/>
     </g>
     <g id="line2d_72">
      <g>
       <use style="stroke:#000000;stroke-width:0.6;" x="648.613636" xlink:href="#m83e8de5027" y="441"/>
      </g>
     </g>
    </g>
    <g id="xtick_37">
     <g id="line2d_73">
      <path clip-path="url(#p818ecef0cb)" d="M 686.659091 441 
L 686.659091 60.48 
" style="fill:none;stroke:#3b4856;stroke-dasharray:2.96,1.28;stroke-dashoffset:0;stroke-opacity:0.3;stroke-width:0.8;"/>
     </g>
     <g id="line2d_74">
      <g>
       <use style="stroke:#000000;stroke-width:0.6;" x="686.659091" xlink:href="#m83e8de5027" y="441"/>
      </g>
     </g>
    </g>
    <g id="xtick_38">
     <g id="line2d_75">
      <path clip-path="url(#p818ecef0cb)" d="M 724.704545 441 
L 724.704545 60.48 
" style="fill:none;stroke:#3b4856;stroke-dasharray:2.96,1.28;stroke-dashoffset:0;stroke-opacity:0.3;stroke-width:0.8;"/>
     </g>
     <g id="line2d_76">
      <g>
       <use style="stroke:#000000;stroke-width:0.6;" x="724.704545" xlink:href="#m83e8de5027" y="441"/>
      </g>
     </g>
    </g>
    <g id="xtick_39">
     <g id="line2d_77">
      <path clip-path="url(#p818ecef0cb)" d="M 762.75 441 
L 762.75 60.48 
" style="fill:none;stroke:#3b4856;stroke-dasharray:2.96,1.28;stroke-dashoffset:0;stroke-opacity:0.3;stroke-width:0.8;"/>
     </g>
     <g id="line2d_78">
      <g>
       <use style="stroke:#000000;stroke-width:0.6;" x="762.75" xlink:href="#m83e8de5027" y="441"/>
      </g>
     </g>
    </g>
    <g id="xtick_40">
     <g id="line2d_79">
      <path clip-path="url(#p818ecef0cb)" d="M 800.795455 441 
L 800.795455 60.48 
" style="fill:none;stroke:#3b4856;stroke-dasharray:2.96,1.28;stroke-dashoffset:0;stroke-opacity:0.3;stroke-width:0.8;"/>
     </g>
     <g id="line2d_80">
      <g>
       <use style="stroke:#000000;stroke-width:0.6;" x="800.795455" xlink:href="#m83e8de5027" y="441"/>
      </g>
     </g>
    </g>
    <g id="xtick_41">
     <g id="line2d_81">
      <path clip-path="url(#p818ecef0cb)" d="M 838.840909 441 
L 838.840909 60.48 
" style="fill:none;stroke:#3b4856;stroke-dasharray:2.96,1.28;stroke-dashoffset:0;stroke-opacity:0.3;stroke-width:0.8;"/>
     </g>
     <g id="line2d_82">
      <g>
       <use style="stroke:#000000;stroke-width:0.6;" x="838.840909" xlink:href="#m83e8de5027" y="441"/>
      </g>
     </g>
    </g>
    <g id="xtick_42">
     <g id="line2d_83">
      <path clip-path="url(#p818ecef0cb)" d="M 876.886364 441 
L 876.886364 60.48 
" style="fill:none;stroke:#3b4856;stroke-dasharray:2.96,1.28;stroke-dashoffset:0;stroke-opacity:0.3;stroke-width:0.8;"/>
     </g>
     <g id="line2d_84">
      <g>
       <use style="stroke:#000000;stroke-width:0.6;" x="876.886364" xlink:href="#m83e8de5027" y="441"/>
      </g>
     </g>
    </g>
    <g id="xtick_43">
     <g id="line2d_85">
      <path clip-path="url(#p818ecef0cb)" d="M 914.931818 441 
L 914.931818 60.48 
" style="fill:none;stroke:#3b4856;stroke-dasharray:2.96,1.28;stroke-dashoffset:0;stroke-opacity:0.3;stroke-width:0.8;"/>
     </g>
     <g id="line2d_86">
      <g>
       <use style="stroke:#000000;stroke-width:0.6;" x="914.931818" xlink:href="#m83e8de5027" y="441"/>
      </g>
     </g>
    </g>
    <g id="xtick_44">
     <g id="line2d_87">
      <path clip-path="url(#p818ecef0cb)" d="M 952.977273 441 
L 952.977273 60.48 
" style="fill:none;stroke:#3b4856;stroke-dasharray:2.96,1.28;stroke-dashoffset:0;stroke-opacity:0.3;stroke-width:0.8;"/>
     </g>
     <g id="line2d_88">
      <g>
       <use style="stroke:#000000;stroke-width:0.6;" x="952.977273" xlink:href="#m83e8de5027" y="441"/>
      </g>
     </g>
    </g>
   </g>
   <g id="matplotlib.axis_2">
    <g id="ytick_1">
     <g id="line2d_89">
      <path clip-path="url(#p818ecef0cb)" d="M 135 412.264152 
L 972 412.264152 
" style="fill:none;stroke:#3b4856;stroke-linecap:square;stroke-opacity:0.7;stroke-width:0.8;"/>
     </g>
     <g id="line2d_90">
      <defs>
       <path d="M 0 0 
L -3.5 0 
" id="ma795807aa9" style="stroke:#000000;stroke-width:0.8;"/>
      </defs>
      <g>
       <use style="stroke:#000000;stroke-width:0.8;" x="135" xlink:href="#ma795807aa9" y="412.264152"/>
      </g>
     </g>
     <g id="text_23">
      <!-- −2.0 -->
      <g transform="translate(98.860625 416.823215)scale(0.12 -0.12)">
       <use xlink:href="#DejaVuSans-2212"/>
       <use x="83.789062" xlink:href="#DejaVuSans-32"/>
       <use x="147.412109" xlink:href="#DejaVuSans-2e"/>
       <use x="179.199219" xlink:href="#DejaVuSans-30"/>
      </g>
     </g>
    </g>
    <g id="ytick_2">
     <g id="line2d_91">
      <path clip-path="url(#p818ecef0cb)" d="M 135 369.676682 
L 972 369.676682 
" style="fill:none;stroke:#3b4856;stroke-linecap:square;stroke-opacity:0.7;stroke-width:0.8;"/>
     </g>
     <g id="line2d_92">
      <g>
       <use style="stroke:#000000;stroke-width:0.8;" x="135" xlink:href="#ma795807aa9" y="369.676682"/>
      </g>
     </g>
     <g id="text_24">
      <!-- −1.5 -->
      <g transform="translate(98.860625 374.235744)scale(0.12 -0.12)">
       <use xlink:href="#DejaVuSans-2212"/>
       <use x="83.789062" xlink:href="#DejaVuSans-31"/>
       <use x="147.412109" xlink:href="#DejaVuSans-2e"/>
       <use x="179.199219" xlink:href="#DejaVuSans-35"/>
      </g>
     </g>
    </g>
    <g id="ytick_3">
     <g id="line2d_93">
      <path clip-path="url(#p818ecef0cb)" d="M 135 327.089211 
L 972 327.089211 
" style="fill:none;stroke:#3b4856;stroke-linecap:square;stroke-opacity:0.7;stroke-width:0.8;"/>
     </g>
     <g id="line2d_94">
      <g>
       <use style="stroke:#000000;stroke-width:0.8;" x="135" xlink:href="#ma795807aa9" y="327.089211"/>
      </g>
     </g>
     <g id="text_25">
      <!-- −1.0 -->
      <g transform="translate(98.860625 331.648274)scale(0.12 -0.12)">
       <use xlink:href="#DejaVuSans-2212"/>
       <use x="83.789062" xlink:href="#DejaVuSans-31"/>
       <use x="147.412109" xlink:href="#DejaVuSans-2e"/>
       <use x="179.199219" xlink:href="#DejaVuSans-30"/>
      </g>
     </g>
    </g>
    <g id="ytick_4">
     <g id="line2d_95">
      <path clip-path="url(#p818ecef0cb)" d="M 135 284.501741 
L 972 284.501741 
" style="fill:none;stroke:#3b4856;stroke-linecap:square;stroke-opacity:0.7;stroke-width:0.8;"/>
     </g>
     <g id="line2d_96">
      <g>
       <use style="stroke:#000000;stroke-width:0.8;" x="135" xlink:href="#ma795807aa9" y="284.501741"/>
      </g>
     </g>
     <g id="text_26">
      <!-- −0.5 -->
      <g transform="translate(98.860625 289.060804)scale(0.12 -0.12)">
       <use xlink:href="#DejaVuSans-2212"/>
       <use x="83.789062" xlink:href="#DejaVuSans-30"/>
       <use x="147.412109" xlink:href="#DejaVuSans-2e"/>
       <use x="179.199219" xlink:href="#DejaVuSans-35"/>
      </g>
     </g>
    </g>
    <g id="ytick_5">
     <g id="line2d_97">
      <path clip-path="url(#p818ecef0cb)" d="M 135 241.914271 
L 972 241.914271 
" style="fill:none;stroke:#3b4856;stroke-linecap:square;stroke-opacity:0.7;stroke-width:0.8;"/>
     </g>
     <g id="line2d_98">
      <g>
       <use style="stroke:#000000;stroke-width:0.8;" x="135" xlink:href="#ma795807aa9" y="241.914271"/>
      </g>
     </g>
     <g id="text_27">
      <!-- 0.0 -->
      <g transform="translate(108.91625 246.473333)scale(0.12 -0.12)">
       <use xlink:href="#DejaVuSans-30"/>
       <use x="63.623047" xlink:href="#DejaVuSans-2e"/>
       <use x="95.410156" xlink:href="#DejaVuSans-30"/>
      </g>
     </g>
    </g>
    <g id="ytick_6">
     <g id="line2d_99">
      <path clip-path="url(#p818ecef0cb)" d="M 135 199.3268 
L 972 199.3268 
" style="fill:none;stroke:#3b4856;stroke-linecap:square;stroke-opacity:0.7;stroke-width:0.8;"/>
     </g>
     <g id="line2d_100">
      <g>
       <use style="stroke:#000000;stroke-width:0.8;" x="135" xlink:href="#ma795807aa9" y="199.3268"/>
      </g>
     </g>
     <g id="text_28">
      <!-- 0.5 -->
      <g transform="translate(108.91625 203.885863)scale(0.12 -0.12)">
       <use xlink:href="#DejaVuSans-30"/>
       <use x="63.623047" xlink:href="#DejaVuSans-2e"/>
       <use x="95.410156" xlink:href="#DejaVuSans-35"/>
      </g>
     </g>
    </g>
    <g id="ytick_7">
     <g id="line2d_101">
      <path clip-path="url(#p818ecef0cb)" d="M 135 156.73933 
L 972 156.73933 
" style="fill:none;stroke:#3b4856;stroke-linecap:square;stroke-opacity:0.7;stroke-width:0.8;"/>
     </g>
     <g id="line2d_102">
      <g>
       <use style="stroke:#000000;stroke-width:0.8;" x="135" xlink:href="#ma795807aa9" y="156.73933"/>
      </g>
     </g>
     <g id="text_29">
      <!-- 1.0 -->
      <g transform="translate(108.91625 161.298393)scale(0.12 -0.12)">
       <use xlink:href="#DejaVuSans-31"/>
       <use x="63.623047" xlink:href="#DejaVuSans-2e"/>
       <use x="95.410156" xlink:href="#DejaVuSans-30"/>
      </g>
     </g>
    </g>
    <g id="ytick_8">
     <g id="line2d_103">
      <path clip-path="url(#p818ecef0cb)" d="M 135 114.15186 
L 972 114.15186 
" style="fill:none;stroke:#3b4856;stroke-linecap:square;stroke-opacity:0.7;stroke-width:0.8;"/>
     </g>
     <g id="line2d_104">
      <g>
       <use style="stroke:#000000;stroke-width:0.8;" x="135" xlink:href="#ma795807aa9" y="114.15186"/>
      </g>
     </g>
     <g id="text_30">
      <!-- 1.5 -->
      <g transform="translate(108.91625 118.710922)scale(0.12 -0.12)">
       <use xlink:href="#DejaVuSans-31"/>
       <use x="63.623047" xlink:href="#DejaVuSans-2e"/>
       <use x="95.410156" xlink:href="#DejaVuSans-35"/>
      </g>
     </g>
    </g>
    <g id="ytick_9">
     <g id="line2d_105">
      <path clip-path="url(#p818ecef0cb)" d="M 135 71.564389 
L 972 71.564389 
" style="fill:none;stroke:#3b4856;stroke-linecap:square;stroke-opacity:0.7;stroke-width:0.8;"/>
     </g>
     <g id="line2d_106">
      <g>
       <use style="stroke:#000000;stroke-width:0.8;" x="135" xlink:href="#ma795807aa9" y="71.564389"/>
      </g>
     </g>
     <g id="text_31">
      <!-- 2.0 -->
      <g transform="translate(108.91625 76.123452)scale(0.12 -0.12)">
       <use xlink:href="#DejaVuSans-32"/>
       <use x="63.623047" xlink:href="#DejaVuSans-2e"/>
       <use x="95.410156" xlink:href="#DejaVuSans-30"/>
      </g>
     </g>
    </g>
    <g id="ytick_10">
     <g id="line2d_107">
      <path clip-path="url(#p818ecef0cb)" d="M 135 433.557887 
L 972 433.557887 
" style="fill:none;stroke:#3b4856;stroke-dasharray:2.96,1.28;stroke-dashoffset:0;stroke-opacity:0.3;stroke-width:0.8;"/>
     </g>
     <g id="line2d_108">
      <defs>
       <path d="M 0 0 
L -2 0 
" id="m6e05ce3acf" style="stroke:#000000;stroke-width:0.6;"/>
      </defs>
      <g>
       <use style="stroke:#000000;stroke-width:0.6;" x="135" xlink:href="#m6e05ce3acf" y="433.557887"/>
      </g>
     </g>
    </g>
    <g id="ytick_11">
     <g id="line2d_109">
      <path clip-path="url(#p818ecef0cb)" d="M 135 390.970417 
L 972 390.970417 
" style="fill:none;stroke:#3b4856;stroke-dasharray:2.96,1.28;stroke-dashoffset:0;stroke-opacity:0.3;stroke-width:0.8;"/>
     </g>
     <g id="line2d_110">
      <g>
       <use style="stroke:#000000;stroke-width:0.6;" x="135" xlink:href="#m6e05ce3acf" y="390.970417"/>
      </g>
     </g>
    </g>
    <g id="ytick_12">
     <g id="line2d_111">
      <path clip-path="url(#p818ecef0cb)" d="M 135 348.382947 
L 972 348.382947 
" style="fill:none;stroke:#3b4856;stroke-dasharray:2.96,1.28;stroke-dashoffset:0;stroke-opacity:0.3;stroke-width:0.8;"/>
     </g>
     <g id="line2d_112">
      <g>
       <use style="stroke:#000000;stroke-width:0.6;" x="135" xlink:href="#m6e05ce3acf" y="348.382947"/>
      </g>
     </g>
    </g>
    <g id="ytick_13">
     <g id="line2d_113">
      <path clip-path="url(#p818ecef0cb)" d="M 135 305.795476 
L 972 305.795476 
" style="fill:none;stroke:#3b4856;stroke-dasharray:2.96,1.28;stroke-dashoffset:0;stroke-opacity:0.3;stroke-width:0.8;"/>
     </g>
     <g id="line2d_114">
      <g>
       <use style="stroke:#000000;stroke-width:0.6;" x="135" xlink:href="#m6e05ce3acf" y="305.795476"/>
      </g>
     </g>
    </g>
    <g id="ytick_14">
     <g id="line2d_115">
      <path clip-path="url(#p818ecef0cb)" d="M 135 263.208006 
L 972 263.208006 
" style="fill:none;stroke:#3b4856;stroke-dasharray:2.96,1.28;stroke-dashoffset:0;stroke-opacity:0.3;stroke-width:0.8;"/>
     </g>
     <g id="line2d_116">
      <g>
       <use style="stroke:#000000;stroke-width:0.6;" x="135" xlink:href="#m6e05ce3acf" y="263.208006"/>
      </g>
     </g>
    </g>
    <g id="ytick_15">
     <g id="line2d_117">
      <path clip-path="url(#p818ecef0cb)" d="M 135 220.620536 
L 972 220.620536 
" style="fill:none;stroke:#3b4856;stroke-dasharray:2.96,1.28;stroke-dashoffset:0;stroke-opacity:0.3;stroke-width:0.8;"/>
     </g>
     <g id="line2d_118">
      <g>
       <use style="stroke:#000000;stroke-width:0.6;" x="135" xlink:href="#m6e05ce3acf" y="220.620536"/>
      </g>
     </g>
    </g>
    <g id="ytick_16">
     <g id="line2d_119">
      <path clip-path="url(#p818ecef0cb)" d="M 135 178.033065 
L 972 178.033065 
" style="fill:none;stroke:#3b4856;stroke-dasharray:2.96,1.28;stroke-dashoffset:0;stroke-opacity:0.3;stroke-width:0.8;"/>
     </g>
     <g id="line2d_120">
      <g>
       <use style="stroke:#000000;stroke-width:0.6;" x="135" xlink:href="#m6e05ce3acf" y="178.033065"/>
      </g>
     </g>
    </g>
    <g id="ytick_17">
     <g id="line2d_121">
      <path clip-path="url(#p818ecef0cb)" d="M 135 135.445595 
L 972 135.445595 
" style="fill:none;stroke:#3b4856;stroke-dasharray:2.96,1.28;stroke-dashoffset:0;stroke-opacity:0.3;stroke-width:0.8;"/>
     </g>
     <g id="line2d_122">
      <g>
       <use style="stroke:#000000;stroke-width:0.6;" x="135" xlink:href="#m6e05ce3acf" y="135.445595"/>
      </g>
     </g>
    </g>
    <g id="ytick_18">
     <g id="line2d_123">
      <path clip-path="url(#p818ecef0cb)" d="M 135 92.858125 
L 972 92.858125 
" style="fill:none;stroke:#3b4856;stroke-dasharray:2.96,1.28;stroke-dashoffset:0;stroke-opacity:0.3;stroke-width:0.8;"/>
     </g>
     <g id="line2d_124">
      <g>
       <use style="stroke:#000000;stroke-width:0.6;" x="135" xlink:href="#m6e05ce3acf" y="92.858125"/>
      </g>
     </g>
    </g>
   </g>
   <g id="line2d_125">
    <path clip-path="url(#p818ecef0cb)" d="M 173.045455 220.424511 
L 176.101314 220.424511 
L 179.157174 225.684427 
L 182.213034 223.649136 
L 185.268894 216.647762 
L 188.324754 218.932504 
L 191.380613 218.932504 
L 194.436473 211.421946 
L 197.492333 188.368621 
L 200.548193 212.646541 
L 203.604053 216.738755 
L 206.659912 216.738755 
L 209.715772 209.855503 
L 212.771632 212.248992 
L 215.827492 197.378727 
L 218.883352 174.173253 
L 221.939211 174.173253 
L 224.995071 172.320588 
L 228.050931 172.520016 
L 231.106791 199.501434 
L 234.162651 218.556011 
L 237.21851 218.900423 
L 240.27437 229.277519 
L 243.33023 220.647765 
L 246.38609 224.525199 
L 249.44195 224.525199 
L 252.497809 238.739624 
L 255.553669 251.571715 
L 258.609529 270.509452 
L 261.665389 271.277175 
L 264.721249 259.117267 
L 267.777108 250.452425 
L 270.832968 234.79745 
L 276.944688 234.79745 
L 280.000548 200.334916 
L 283.056407 209.459325 
L 286.112267 253.097505 
L 289.168127 250.98444 
L 292.223987 253.373726 
L 298.335706 283.024789 
L 301.391566 281.011827 
L 304.447426 304.841987 
L 307.503286 300.421109 
L 310.559146 309.607277 
L 313.615005 292.054185 
L 316.670865 282.490467 
L 319.726725 255.272904 
L 322.782585 290.192116 
L 325.838445 280.249366 
L 328.894304 317.714562 
L 331.950164 353.044254 
L 335.006024 363.818906 
L 338.061884 337.332041 
L 341.117744 339.633375 
L 344.173604 341.76309 
L 347.229463 319.824623 
L 350.285323 318.870189 
L 353.341183 313.759044 
L 356.397043 311.992851 
L 359.452903 287.188183 
L 362.508762 280.482403 
L 365.564622 311.781134 
L 368.620482 329.358688 
L 371.676342 332.64454 
L 374.732202 368.106518 
L 377.788061 358.240606 
L 380.843921 354.184408 
L 383.899781 350.796953 
L 386.955641 354.456805 
L 390.011501 355.059887 
L 393.06736 348.477801 
L 396.12322 336.545915 
L 399.17908 343.316438 
L 402.23494 337.773241 
L 405.2908 328.154151 
L 408.346659 334.597496 
L 411.402519 335.533899 
L 414.458379 320.25084 
L 417.514239 328.696597 
L 420.570099 318.311419 
L 423.625958 320.383228 
L 426.681818 308.116101 
L 429.737678 310.365638 
L 432.793538 298.920938 
L 435.849398 316.766114 
L 438.905257 318.128938 
L 441.961117 314.147048 
L 445.016977 307.318291 
L 448.072837 314.904136 
L 451.128697 299.363619 
L 454.184556 287.639702 
L 457.240416 305.756919 
L 460.296276 371.968786 
L 463.352136 343.643231 
L 466.407996 333.218735 
L 469.463855 315.210137 
L 472.519715 315.210137 
L 475.575575 259.772748 
L 478.631435 273.330663 
L 481.687295 260.317636 
L 484.743154 259.884283 
L 487.799014 297.094941 
L 490.854874 299.982037 
L 493.910734 277.12045 
L 496.966594 296.960356 
L 500.022453 286.195461 
L 503.078313 264.865263 
L 506.134173 298.794306 
L 509.190033 307.450164 
L 512.245893 292.890474 
L 515.301752 307.923083 
L 518.357612 310.48693 
L 521.413472 303.040751 
L 524.469332 289.998544 
L 527.525192 274.421533 
L 533.636911 240.375376 
L 536.692771 240.375376 
L 539.748631 221.948974 
L 542.804491 243.455478 
L 545.86035 225.619629 
L 548.91621 227.620148 
L 551.97207 222.216196 
L 555.02793 235.145865 
L 558.08379 210.503858 
L 561.13965 221.996174 
L 564.195509 209.345533 
L 567.251369 213.718106 
L 570.307229 198.749244 
L 573.363089 203.436694 
L 576.418949 203.436694 
L 579.474808 183.346238 
L 582.530668 168.091908 
L 585.586528 185.949242 
L 588.642388 171.832722 
L 591.698248 171.832722 
L 597.809967 205.630714 
L 600.865827 188.685448 
L 603.921687 230.400284 
L 606.977547 230.400284 
M 619.200986 176.021587 
L 622.256846 176.021587 
L 625.312705 192.537843 
L 628.368565 167.222921 
L 631.424425 167.222921 
L 634.480285 162.116512 
L 637.536145 162.116512 
L 640.592004 151.124581 
L 643.647864 168.390334 
L 646.703724 184.689554 
L 649.759584 196.683151 
L 652.815444 196.683151 
L 655.871303 187.275717 
L 658.927163 171.977794 
L 661.983023 149.322694 
L 665.038883 166.104155 
L 668.094743 167.268963 
L 671.150602 170.604137 
L 674.206462 185.215232 
L 677.262322 185.215232 
L 680.318182 185.048627 
L 683.374042 199.333869 
L 686.429901 138.555116 
L 689.485761 138.555116 
L 692.541621 128.707241 
L 695.597481 93.393926 
L 698.653341 133.57691 
L 701.7092 161.477183 
L 704.76506 136.052143 
L 707.82092 186.940787 
L 710.87678 187.991528 
L 713.93264 171.484559 
L 716.988499 169.261198 
L 720.044359 195.802451 
L 723.100219 175.443717 
L 726.156079 175.522964 
L 729.211939 176.498151 
L 732.267798 176.658748 
L 735.323658 155.238 
L 738.379518 154.371032 
L 741.435378 146.50787 
L 744.491238 144.937105 
L 747.547097 152.726775 
L 750.602957 166.700837 
L 753.658817 179.048201 
L 756.714677 192.46021 
L 759.770537 202.799712 
L 762.826396 220.228527 
L 765.882256 218.07583 
L 768.938116 209.929777 
L 771.993976 209.929777 
L 775.049836 186.071668 
L 778.105696 150.876322 
L 781.161555 130.629183 
L 784.217415 131.479194 
L 787.273275 131.479194 
L 790.329135 168.61277 
L 793.384995 194.281912 
L 796.440854 191.570383 
L 799.496714 206.597179 
L 802.552574 211.613506 
L 805.608434 197.398194 
L 808.664294 189.594424 
L 811.720153 180.652228 
L 814.776013 170.149283 
L 817.831873 166.371558 
L 820.887733 180.581175 
L 823.943593 208.849712 
L 826.999452 235.726609 
L 830.055312 241.78801 
L 833.111172 265.620395 
L 836.167032 275.723264 
L 839.222892 282.665283 
L 842.278751 300.881724 
L 845.334611 335.729836 
M 851.446331 238.759258 
L 854.502191 207.581061 
L 857.55805 207.581061 
L 860.61391 224.520694 
L 863.66977 224.520694 
L 866.72563 232.23057 
L 869.78149 252.04353 
L 872.837349 249.433482 
L 875.893209 242.128432 
L 878.949069 252.209351 
L 882.004929 270.880986 
L 885.060789 261.126138 
L 888.116648 254.878707 
L 894.228368 281.544746 
L 897.284228 273.008291 
L 900.340088 285.782837 
L 903.395947 286.712473 
L 906.451807 284.395453 
L 909.507667 253.291273 
L 912.563527 231.685799 
L 915.619387 225.524714 
L 918.675246 229.028164 
L 921.731106 229.028164 
L 924.786966 226.219393 
L 927.842826 226.295899 
L 927.842826 226.295899 
" style="fill:none;stroke:#c81d6b;stroke-linecap:square;stroke-width:1.5;"/>
   </g>
   <g id="line2d_126">
    <path clip-path="url(#p818ecef0cb)" d="M 173.045455 210.659993 
L 176.101314 209.776577 
L 179.157174 212.892231 
L 182.213034 212.892231 
L 185.268894 216.069967 
L 188.324754 218.452702 
L 194.436473 218.452702 
L 197.492333 219.195645 
L 209.715772 219.195645 
L 212.771632 218.375613 
L 215.827492 218.384285 
L 218.883352 223.263868 
L 221.939211 224.086229 
L 224.995071 225.524919 
L 228.050931 227.259369 
L 231.106791 229.529199 
L 234.162651 232.888528 
L 237.21851 237.111351 
L 240.27437 237.227449 
L 243.33023 239.736325 
L 246.38609 238.72405 
L 249.44195 238.696024 
L 252.497809 239.99585 
L 255.553669 245.174948 
L 258.609529 245.174948 
L 261.665389 245.29091 
L 264.721249 251.297032 
L 267.777108 254.522773 
L 273.888828 259.805357 
L 276.944688 262.466433 
L 280.000548 266.927125 
L 283.056407 267.68059 
L 286.112267 268.988775 
L 289.168127 270.952136 
L 292.223987 272.010789 
L 295.279847 274.954585 
L 298.335706 278.746526 
L 301.391566 284.015239 
L 304.447426 285.871755 
L 307.503286 288.792441 
L 310.559146 289.899397 
L 313.615005 293.73227 
L 316.670865 294.77322 
L 322.782585 302.573035 
L 325.838445 305.30206 
L 328.894304 306.999744 
L 331.950164 308.555014 
L 335.006024 309.4228 
L 338.061884 310.852217 
L 341.117744 311.132575 
L 344.173604 311.132575 
L 347.229463 313.195687 
L 350.285323 314.048119 
L 353.341183 313.376124 
L 356.397043 313.734752 
L 359.452903 312.700117 
L 362.508762 315.603261 
L 365.564622 317.305233 
L 368.620482 318.200168 
L 371.676342 320.39261 
L 374.732202 320.111498 
L 377.788061 320.382973 
L 380.843921 321.192959 
L 383.899781 320.965056 
L 386.955641 319.866826 
L 390.011501 321.946835 
L 393.06736 324.515871 
L 396.12322 326.208601 
L 399.17908 325.853759 
L 402.23494 326.014234 
L 405.2908 324.580311 
L 408.346659 321.280666 
L 411.402519 321.345509 
L 414.458379 318.720942 
L 417.514239 319.549131 
L 420.570099 321.403697 
L 423.625958 317.667331 
L 426.681818 315.167533 
L 429.737678 316.285133 
L 432.793538 315.249825 
L 435.849398 316.324495 
L 438.905257 316.393826 
L 441.961117 318.114217 
L 445.016977 317.591245 
L 448.072837 314.843714 
L 451.128697 314.184374 
L 454.184556 313.193416 
L 457.240416 311.207911 
L 460.296276 308.768185 
L 463.352136 304.674245 
L 466.407996 302.561051 
L 469.463855 300.860289 
L 472.519715 295.632354 
L 475.575575 296.341187 
L 478.631435 291.820817 
L 481.687295 288.951847 
L 487.799014 284.250258 
L 490.854874 281.019822 
L 496.966594 281.019822 
L 500.022453 279.274733 
L 503.078313 279.0368 
L 506.134173 275.584452 
L 509.190033 275.706444 
L 515.301752 266.938176 
L 518.357612 263.00832 
L 521.413472 257.649327 
L 524.469332 257.832976 
L 527.525192 256.220631 
L 530.581051 254.097201 
L 539.748631 254.097201 
L 542.804491 248.986372 
L 545.86035 248.320038 
L 548.91621 246.185047 
L 551.97207 243.346289 
L 555.02793 243.346289 
L 558.08379 243.784953 
L 561.13965 236.875576 
L 564.195509 236.875576 
L 567.251369 234.418375 
L 570.307229 229.848446 
L 576.418949 227.989193 
L 579.474808 223.189466 
L 582.530668 222.477094 
L 585.586528 222.477094 
L 588.642388 215.941087 
L 591.698248 210.636404 
L 594.754107 207.391778 
L 597.809967 203.554769 
L 600.865827 197.999994 
L 603.921687 197.999994 
L 613.089266 193.431129 
L 616.145126 190.993008 
L 619.200986 186.464343 
L 622.256846 187.398748 
L 625.312705 178.525923 
L 628.368565 179.134242 
L 631.424425 177.134015 
L 634.480285 176.067361 
L 637.536145 169.54532 
L 640.592004 172.405692 
L 643.647864 173.22039 
L 646.703724 172.165999 
L 649.759584 171.694069 
L 652.815444 173.471541 
L 655.871303 171.796427 
L 658.927163 172.527671 
L 661.983023 172.140083 
L 665.038883 173.013694 
L 668.094743 168.246411 
L 671.150602 168.564125 
L 674.206462 167.980556 
L 677.262322 165.668714 
L 680.318182 166.620882 
L 683.374042 166.620882 
L 686.429901 167.516404 
L 689.485761 167.516404 
L 692.541621 169.381814 
L 695.597481 171.808719 
L 698.653341 173.052751 
L 701.7092 172.552288 
L 704.76506 172.552288 
L 707.82092 170.020794 
L 710.87678 169.622088 
L 720.044359 169.68004 
L 723.100219 171.660312 
L 726.156079 171.938542 
L 729.211939 170.912718 
L 732.267798 172.434814 
L 735.323658 174.1275 
L 738.379518 174.444843 
L 741.435378 174.457446 
L 744.491238 173.464873 
L 747.547097 172.716239 
L 753.658817 175.446717 
L 756.714677 177.594027 
L 762.826396 181.155557 
L 765.882256 185.119 
L 768.938116 187.943806 
L 771.993976 187.943806 
L 775.049836 190.077112 
L 778.105696 190.077112 
L 781.161555 189.414174 
L 784.217415 190.747825 
L 787.273275 193.212711 
L 790.329135 191.310914 
L 793.384995 193.179142 
L 796.440854 194.472403 
L 799.496714 197.373007 
L 802.552574 197.88539 
L 805.608434 200.220235 
L 808.664294 201.295657 
L 811.720153 205.288289 
L 814.776013 210.833326 
L 817.831873 213.012267 
L 820.887733 214.578475 
L 823.943593 218.6858 
L 826.999452 222.58515 
L 830.055312 225.925022 
L 836.167032 227.207145 
L 839.222892 227.207145 
L 842.278751 227.508956 
L 845.334611 227.009686 
L 848.390471 227.406393 
L 851.446331 229.278604 
L 854.502191 229.278604 
L 857.55805 232.170957 
L 860.61391 235.945559 
L 863.66977 235.945559 
L 866.72563 238.16946 
L 872.837349 238.129537 
L 878.949069 241.862249 
L 882.004929 242.524257 
L 885.060789 242.911595 
L 888.116648 245.672378 
L 891.172508 249.666582 
L 894.228368 254.104253 
L 897.284228 254.104253 
L 900.340088 255.668267 
L 903.395947 256.992587 
L 906.451807 257.087832 
L 909.507667 257.604757 
L 912.563527 257.183314 
L 915.619387 253.049287 
L 930.898686 253.049287 
L 933.954545 253.843177 
L 933.954545 253.843177 
" style="fill:none;stroke:#ffc100;stroke-linecap:square;stroke-width:1.5;"/>
   </g>
   <g id="line2d_127">
    <path clip-path="url(#p818ecef0cb)" d="M 173.045455 274.039175 
L 176.101314 275.070409 
L 179.157174 276.66742 
L 182.213034 276.66742 
L 188.324754 278.144824 
L 194.436473 278.144824 
L 197.492333 279.268879 
L 200.548193 279.409394 
L 203.604053 280.188617 
L 206.659912 280.047762 
L 209.715772 280.662075 
L 212.771632 280.780575 
L 215.827492 282.239449 
L 218.883352 283.019985 
L 221.939211 282.555062 
L 224.995071 282.593685 
L 228.050931 283.217973 
L 237.21851 283.217973 
L 240.27437 285.111293 
L 243.33023 284.896452 
L 246.38609 285.272798 
L 249.44195 284.947279 
L 252.497809 284.947279 
L 255.553669 283.759904 
L 258.609529 284.287726 
L 264.721249 284.287726 
L 267.777108 285.420564 
L 270.832968 284.383832 
L 273.888828 284.015551 
L 276.944688 284.921358 
L 280.000548 284.405488 
L 283.056407 284.405488 
L 286.112267 285.086782 
L 292.223987 285.300839 
L 295.279847 285.512198 
L 298.335706 285.921851 
L 301.391566 285.921851 
L 310.559146 284.256569 
L 313.615005 283.897563 
L 316.670865 283.897563 
L 319.726725 282.580432 
L 322.782585 283.008463 
L 325.838445 281.73455 
L 328.894304 281.502779 
L 331.950164 280.651175 
L 335.006024 280.109881 
L 338.061884 279.271112 
L 350.285323 279.271112 
L 353.341183 278.497291 
L 356.397043 278.497291 
L 359.452903 277.333236 
L 362.508762 275.935736 
L 365.564622 275.575196 
L 368.620482 274.314367 
L 371.676342 274.314367 
L 374.732202 273.888017 
L 396.12322 273.888017 
L 399.17908 272.946993 
L 402.23494 273.270276 
L 405.2908 273.241369 
L 408.346659 272.338456 
L 411.402519 272.338456 
L 414.458379 271.55436 
L 417.514239 271.946974 
L 420.570099 271.869055 
L 423.625958 272.395164 
L 426.681818 271.854898 
L 429.737678 271.854898 
L 432.793538 272.939127 
L 438.905257 271.065631 
L 451.128697 271.15774 
L 454.184556 272.255394 
L 457.240416 272.255394 
L 460.296276 272.412255 
L 463.352136 272.412255 
L 466.407996 270.655376 
L 469.463855 270.655376 
L 472.519715 269.549599 
L 475.575575 270.102837 
L 478.631435 270.296618 
L 481.687295 270.310114 
L 484.743154 268.440336 
L 487.799014 268.291149 
L 490.854874 267.53394 
L 493.910734 266.337751 
L 496.966594 265.288543 
L 500.022453 265.121324 
L 503.078313 264.089583 
L 506.134173 263.385218 
L 512.245893 261.358468 
L 515.301752 260.505798 
L 518.357612 259.905466 
L 521.413472 258.113565 
L 524.469332 258.243068 
L 527.525192 257.564208 
L 530.581051 257.403768 
L 533.636911 256.428103 
L 536.692771 255.70378 
L 539.748631 254.32812 
L 542.804491 254.365271 
L 545.86035 253.3025 
L 548.91621 252.858263 
L 551.97207 252.858263 
L 555.02793 251.614346 
L 558.08379 248.901906 
L 561.13965 248.901906 
L 564.195509 248.063605 
L 567.251369 246.341644 
L 570.307229 245.872989 
L 573.363089 244.69455 
L 576.418949 243.095515 
L 579.474808 241.844358 
L 582.530668 241.037177 
L 585.586528 239.91848 
L 588.642388 238.608049 
L 591.698248 236.657249 
L 594.754107 236.760206 
L 597.809967 236.562242 
L 600.865827 234.773383 
L 603.921687 233.882207 
L 606.977547 232.856546 
L 610.033406 233.178653 
L 613.089266 233.247459 
L 616.145126 231.696476 
L 619.200986 230.700922 
L 625.312705 228.058906 
L 628.368565 227.368359 
L 631.424425 226.419084 
L 634.480285 224.483398 
L 637.536145 224.483398 
L 640.592004 223.865073 
L 643.647864 222.858467 
L 646.703724 223.256737 
L 649.759584 223.383858 
L 652.815444 222.333507 
L 655.871303 221.740976 
L 658.927163 221.385539 
L 661.983023 222.233341 
L 665.038883 220.897015 
L 671.150602 219.290105 
L 674.206462 219.537853 
L 677.262322 220.155626 
L 680.318182 219.809365 
L 683.374042 218.68533 
L 686.429901 218.68533 
L 692.541621 218.917191 
L 695.597481 217.022658 
L 698.653341 216.496457 
L 701.7092 215.52804 
L 704.76506 215.06216 
L 707.82092 215.06216 
L 710.87678 215.259768 
L 713.93264 214.128366 
L 720.044359 214.128366 
L 723.100219 212.471651 
L 726.156079 212.555866 
L 729.211939 212.096363 
L 732.267798 210.526975 
L 735.323658 210.168635 
L 738.379518 210.168635 
L 741.435378 208.723046 
L 747.547097 206.783179 
L 750.602957 205.674178 
L 753.658817 204.336176 
L 756.714677 204.336176 
L 765.882256 203.17296 
L 768.938116 202.578166 
L 771.993976 202.578166 
L 775.049836 203.053963 
L 778.105696 201.567647 
L 781.161555 202.036419 
L 784.217415 201.293962 
L 787.273275 201.30297 
L 790.329135 200.942654 
L 802.552574 200.971899 
L 811.720153 200.938591 
L 814.776013 201.454794 
L 817.831873 202.341899 
L 820.887733 201.818246 
L 823.943593 202.601784 
L 826.999452 202.601784 
L 830.055312 202.198907 
L 851.446331 202.198907 
L 854.502191 202.583867 
L 860.61391 202.487297 
L 863.66977 203.788724 
L 866.72563 203.788724 
L 869.78149 204.451592 
L 872.837349 204.451592 
L 875.893209 204.894924 
L 878.949069 204.894924 
L 882.004929 204.698209 
L 888.116648 204.698209 
L 891.172508 205.463286 
L 894.228368 206.513799 
L 897.284228 206.513799 
L 900.340088 206.627911 
L 903.395947 207.235785 
L 912.563527 207.235785 
L 915.619387 207.372025 
L 918.675246 207.372025 
L 921.731106 209.645633 
L 924.786966 209.645633 
L 927.842826 211.442671 
L 933.954545 211.397213 
L 933.954545 211.397213 
" style="fill:none;stroke:#348fea;stroke-linecap:square;stroke-width:1.5;"/>
   </g>
   <g id="patch_3">
    <path d="M 135 441 
L 135 60.48 
" style="fill:none;stroke:#3b4856;stroke-linecap:square;stroke-linejoin:miter;stroke-width:0.8;"/>
   </g>
   <g id="patch_4">
    <path d="M 972 441 
L 972 60.48 
" style="fill:none;stroke:#3b4856;stroke-linecap:square;stroke-linejoin:miter;stroke-width:0.8;"/>
   </g>
   <g id="patch_5">
    <path d="M 135 441 
L 972 441 
" style="fill:none;stroke:#3b4856;stroke-linecap:square;stroke-linejoin:miter;stroke-width:0.8;"/>
   </g>
   <g id="patch_6">
    <path d="M 135 60.48 
L 972 60.48 
" style="fill:none;stroke:#3b4856;stroke-linecap:square;stroke-linejoin:miter;stroke-width:0.8;"/>
   </g>
   <g id="text_32">
    <!-- Прямоугольное ядро $K(r) = [|r| \leq 1]$ -->
    <g transform="translate(422.604 54.48)scale(0.144 -0.144)">
     <defs>
      <path d="M 4184 4666 
L 4184 0 
L 3553 0 
L 3553 4134 
L 1259 4134 
L 1259 0 
L 628 0 
L 628 4666 
L 4184 4666 
z
" id="DejaVuSans-41f" transform="scale(0.015625)"/>
      <path d="M 1159 525 
L 1159 -1331 
L 581 -1331 
L 581 3500 
L 1159 3500 
L 1159 2969 
Q 1341 3281 1617 3432 
Q 1894 3584 2278 3584 
Q 2916 3584 3314 3078 
Q 3713 2572 3713 1747 
Q 3713 922 3314 415 
Q 2916 -91 2278 -91 
Q 1894 -91 1617 61 
Q 1341 213 1159 525 
z
M 3116 1747 
Q 3116 2381 2855 2742 
Q 2594 3103 2138 3103 
Q 1681 3103 1420 2742 
Q 1159 2381 1159 1747 
Q 1159 1113 1420 752 
Q 1681 391 2138 391 
Q 2594 391 2855 752 
Q 3116 1113 3116 1747 
z
" id="DejaVuSans-440" transform="scale(0.015625)"/>
      <path d="M 1181 2491 
Q 1181 2231 1381 2084 
Q 1581 1938 1953 1938 
L 2728 1938 
L 2728 3041 
L 1953 3041 
Q 1581 3041 1381 2897 
Q 1181 2753 1181 2491 
z
M 363 0 
L 1431 1534 
Q 1069 1616 828 1830 
Q 588 2044 588 2491 
Q 588 2997 923 3248 
Q 1259 3500 1938 3500 
L 3306 3500 
L 3306 0 
L 2728 0 
L 2728 1478 
L 2013 1478 
L 981 0 
L 363 0 
z
" id="DejaVuSans-44f" transform="scale(0.015625)"/>
      <path d="M 581 3500 
L 1422 3500 
L 2416 1156 
L 3413 3500 
L 4247 3500 
L 4247 0 
L 3669 0 
L 3669 2950 
L 2703 672 
L 2128 672 
L 1159 2950 
L 1159 0 
L 581 0 
L 581 3500 
z
" id="DejaVuSans-43c" transform="scale(0.015625)"/>
      <path d="M 1959 3097 
Q 1497 3097 1228 2736 
Q 959 2375 959 1747 
Q 959 1119 1226 758 
Q 1494 397 1959 397 
Q 2419 397 2687 759 
Q 2956 1122 2956 1747 
Q 2956 2369 2687 2733 
Q 2419 3097 1959 3097 
z
M 1959 3584 
Q 2709 3584 3137 3096 
Q 3566 2609 3566 1747 
Q 3566 888 3137 398 
Q 2709 -91 1959 -91 
Q 1206 -91 779 398 
Q 353 888 353 1747 
Q 353 2609 779 3096 
Q 1206 3584 1959 3584 
z
" id="DejaVuSans-43e" transform="scale(0.015625)"/>
      <path d="M 2059 -325 
Q 1816 -950 1584 -1140 
Q 1353 -1331 966 -1331 
L 506 -1331 
L 506 -850 
L 844 -850 
Q 1081 -850 1212 -737 
Q 1344 -625 1503 -206 
L 1606 56 
L 191 3500 
L 800 3500 
L 1894 763 
L 2988 3500 
L 3597 3500 
L 2059 -325 
z
" id="DejaVuSans-443" transform="scale(0.015625)"/>
      <path d="M 581 0 
L 581 3500 
L 3050 3500 
L 3050 3041 
L 1159 3041 
L 1159 0 
L 581 0 
z
" id="DejaVuSans-433" transform="scale(0.015625)"/>
      <path d="M 238 0 
L 238 478 
Q 806 566 981 959 
Q 1194 1513 1194 2928 
L 1194 3500 
L 3559 3500 
L 3559 0 
L 2984 0 
L 2984 3041 
L 1769 3041 
L 1769 2694 
Q 1769 1344 1494 738 
Q 1200 91 238 0 
z
" id="DejaVuSans-43b" transform="scale(0.015625)"/>
      <path d="M 2781 1038 
Q 2781 1319 2576 1466 
Q 2372 1613 1978 1613 
L 1159 1613 
L 1159 459 
L 1978 459 
Q 2372 459 2576 607 
Q 2781 756 2781 1038 
z
M 581 3500 
L 1159 3500 
L 1159 2072 
L 2003 2072 
Q 2672 2072 3033 1817 
Q 3394 1563 3394 1038 
Q 3394 513 3033 256 
Q 2672 0 2003 0 
L 581 0 
L 581 3500 
z
" id="DejaVuSans-44c" transform="scale(0.015625)"/>
      <path d="M 581 3500 
L 1159 3500 
L 1159 2072 
L 3025 2072 
L 3025 3500 
L 3603 3500 
L 3603 0 
L 3025 0 
L 3025 1613 
L 1159 1613 
L 1159 0 
L 581 0 
L 581 3500 
z
" id="DejaVuSans-43d" transform="scale(0.015625)"/>
      <path d="M 3597 1894 
L 3597 1613 
L 953 1613 
Q 991 1019 1311 708 
Q 1631 397 2203 397 
Q 2534 397 2845 478 
Q 3156 559 3463 722 
L 3463 178 
Q 3153 47 2828 -22 
Q 2503 -91 2169 -91 
Q 1331 -91 842 396 
Q 353 884 353 1716 
Q 353 2575 817 3079 
Q 1281 3584 2069 3584 
Q 2775 3584 3186 3129 
Q 3597 2675 3597 1894 
z
M 3022 2063 
Q 3016 2534 2758 2815 
Q 2500 3097 2075 3097 
Q 1594 3097 1305 2825 
Q 1016 2553 972 2059 
L 3022 2063 
z
" id="DejaVuSans-435" transform="scale(0.015625)"/>
      <path id="DejaVuSans-20" transform="scale(0.015625)"/>
      <path d="M 1384 459 
L 3053 459 
L 3053 3041 
L 1844 3041 
L 1844 2603 
Q 1844 1316 1475 628 
L 1384 459 
z
M 550 459 
Q 834 584 959 850 
Q 1266 1509 1266 2838 
L 1266 3500 
L 3631 3500 
L 3631 459 
L 4091 459 
L 4091 -884 
L 3631 -884 
L 3631 0 
L 794 0 
L 794 -884 
L 334 -884 
L 334 459 
L 550 459 
z
" id="DejaVuSans-434" transform="scale(0.015625)"/>
      <path d="M 1081 4666 
L 1716 4666 
L 1331 2700 
L 3781 4666 
L 4622 4666 
L 1850 2438 
L 3878 0 
L 3109 0 
L 1247 2272 
L 806 0 
L 172 0 
L 1081 4666 
z
" id="DejaVuSans-Oblique-4b" transform="scale(0.015625)"/>
      <path d="M 1984 4856 
Q 1566 4138 1362 3434 
Q 1159 2731 1159 2009 
Q 1159 1288 1364 580 
Q 1569 -128 1984 -844 
L 1484 -844 
Q 1016 -109 783 600 
Q 550 1309 550 2009 
Q 550 2706 781 3412 
Q 1013 4119 1484 4856 
L 1984 4856 
z
" id="DejaVuSans-28" transform="scale(0.015625)"/>
      <path d="M 2853 2969 
Q 2766 3016 2653 3041 
Q 2541 3066 2413 3066 
Q 1953 3066 1609 2717 
Q 1266 2369 1153 1784 
L 800 0 
L 225 0 
L 909 3500 
L 1484 3500 
L 1375 2956 
Q 1603 3259 1920 3421 
Q 2238 3584 2597 3584 
Q 2691 3584 2781 3573 
Q 2872 3563 2963 3538 
L 2853 2969 
z
" id="DejaVuSans-Oblique-72" transform="scale(0.015625)"/>
      <path d="M 513 4856 
L 1013 4856 
Q 1481 4119 1714 3412 
Q 1947 2706 1947 2009 
Q 1947 1309 1714 600 
Q 1481 -109 1013 -844 
L 513 -844 
Q 928 -128 1133 580 
Q 1338 1288 1338 2009 
Q 1338 2731 1133 3434 
Q 928 4138 513 4856 
z
" id="DejaVuSans-29" transform="scale(0.015625)"/>
      <path d="M 678 2906 
L 4684 2906 
L 4684 2381 
L 678 2381 
L 678 2906 
z
M 678 1631 
L 4684 1631 
L 4684 1100 
L 678 1100 
L 678 1631 
z
" id="DejaVuSans-3d" transform="scale(0.015625)"/>
      <path d="M 550 4863 
L 1875 4863 
L 1875 4416 
L 1125 4416 
L 1125 -397 
L 1875 -397 
L 1875 -844 
L 550 -844 
L 550 4863 
z
" id="DejaVuSans-5b" transform="scale(0.015625)"/>
      <path d="M 1344 4891 
L 1344 -1509 
L 813 -1509 
L 813 4891 
L 1344 4891 
z
" id="DejaVuSans-7c" transform="scale(0.015625)"/>
      <path d="M 4684 3175 
L 1684 2309 
L 4684 1453 
L 4684 897 
L 678 2047 
L 678 2578 
L 4684 3725 
L 4684 3175 
z
M 678 531 
L 4684 531 
L 4684 0 
L 678 0 
L 678 531 
z
" id="DejaVuSans-2264" transform="scale(0.015625)"/>
      <path d="M 1947 4863 
L 1947 -844 
L 622 -844 
L 622 -397 
L 1369 -397 
L 1369 4416 
L 622 4416 
L 622 4863 
L 1947 4863 
z
" id="DejaVuSans-5d" transform="scale(0.015625)"/>
     </defs>
     <use transform="translate(0 0.578125)" xlink:href="#DejaVuSans-41f"/>
     <use transform="translate(75.195312 0.578125)" xlink:href="#DejaVuSans-440"/>
     <use transform="translate(138.671875 0.578125)" xlink:href="#DejaVuSans-44f"/>
     <use transform="translate(198.828125 0.578125)" xlink:href="#DejaVuSans-43c"/>
     <use transform="translate(274.267578 0.578125)" xlink:href="#DejaVuSans-43e"/>
     <use transform="translate(335.449219 0.578125)" xlink:href="#DejaVuSans-443"/>
     <use transform="translate(394.628906 0.578125)" xlink:href="#DejaVuSans-433"/>
     <use transform="translate(447.167969 0.578125)" xlink:href="#DejaVuSans-43e"/>
     <use transform="translate(508.349609 0.578125)" xlink:href="#DejaVuSans-43b"/>
     <use transform="translate(572.265625 0.578125)" xlink:href="#DejaVuSans-44c"/>
     <use transform="translate(631.201172 0.578125)" xlink:href="#DejaVuSans-43d"/>
     <use transform="translate(696.582031 0.578125)" xlink:href="#DejaVuSans-43e"/>
     <use transform="translate(757.763672 0.578125)" xlink:href="#DejaVuSans-435"/>
     <use transform="translate(819.287109 0.578125)" xlink:href="#DejaVuSans-20"/>
     <use transform="translate(851.074219 0.578125)" xlink:href="#DejaVuSans-44f"/>
     <use transform="translate(911.230469 0.578125)" xlink:href="#DejaVuSans-434"/>
     <use transform="translate(980.371094 0.578125)" xlink:href="#DejaVuSans-440"/>
     <use transform="translate(1043.847656 0.578125)" xlink:href="#DejaVuSans-43e"/>
     <use transform="translate(1105.029297 0.578125)" xlink:href="#DejaVuSans-20"/>
     <use transform="translate(1136.816406 0.578125)" xlink:href="#DejaVuSans-Oblique-4b"/>
     <use transform="translate(1202.392578 0.578125)" xlink:href="#DejaVuSans-28"/>
     <use transform="translate(1241.40625 0.578125)" xlink:href="#DejaVuSans-Oblique-72"/>
     <use transform="translate(1282.519531 0.578125)" xlink:href="#DejaVuSans-29"/>
     <use transform="translate(1341.015625 0.578125)" xlink:href="#DejaVuSans-3d"/>
     <use transform="translate(1444.287109 0.578125)" xlink:href="#DejaVuSans-5b"/>
     <use transform="translate(1483.300781 0.578125)" xlink:href="#DejaVuSans-7c"/>
     <use transform="translate(1516.992188 0.578125)" xlink:href="#DejaVuSans-Oblique-72"/>
     <use transform="translate(1558.105469 0.578125)" xlink:href="#DejaVuSans-7c"/>
     <use transform="translate(1611.279297 0.578125)" xlink:href="#DejaVuSans-2264"/>
     <use transform="translate(1714.550781 0.578125)" xlink:href="#DejaVuSans-31"/>
     <use transform="translate(1778.173828 0.578125)" xlink:href="#DejaVuSans-5d"/>
    </g>
   </g>
   <g id="legend_1">
    <g id="patch_7">
     <path d="M 880.828125 122.92125 
L 963.6 122.92125 
Q 966 122.92125 966 120.52125 
L 966 68.88 
Q 966 66.48 963.6 66.48 
L 880.828125 66.48 
Q 878.428125 66.48 878.428125 68.88 
L 878.428125 120.52125 
Q 878.428125 122.92125 880.828125 122.92125 
z
" style="fill:#ffffff;opacity:0.8;stroke:#cccccc;stroke-linejoin:miter;"/>
    </g>
    <g id="line2d_128">
     <path d="M 883.228125 76.198125 
L 907.228125 76.198125 
" style="fill:none;stroke:#c81d6b;stroke-linecap:square;stroke-width:1.5;"/>
    </g>
    <g id="line2d_129"/>
    <g id="text_33">
     <!-- h = 0.1 -->
     <g transform="translate(916.828125 80.398125)scale(0.12 -0.12)">
      <defs>
       <path d="M 3513 2113 
L 3513 0 
L 2938 0 
L 2938 2094 
Q 2938 2591 2744 2837 
Q 2550 3084 2163 3084 
Q 1697 3084 1428 2787 
Q 1159 2491 1159 1978 
L 1159 0 
L 581 0 
L 581 4863 
L 1159 4863 
L 1159 2956 
Q 1366 3272 1645 3428 
Q 1925 3584 2291 3584 
Q 2894 3584 3203 3211 
Q 3513 2838 3513 2113 
z
" id="DejaVuSans-68" transform="scale(0.015625)"/>
      </defs>
      <use xlink:href="#DejaVuSans-68"/>
      <use x="63.378906" xlink:href="#DejaVuSans-20"/>
      <use x="95.166016" xlink:href="#DejaVuSans-3d"/>
      <use x="178.955078" xlink:href="#DejaVuSans-20"/>
      <use x="210.742188" xlink:href="#DejaVuSans-30"/>
      <use x="274.365234" xlink:href="#DejaVuSans-2e"/>
      <use x="306.152344" xlink:href="#DejaVuSans-31"/>
     </g>
    </g>
    <g id="line2d_130">
     <path d="M 883.228125 93.811875 
L 907.228125 93.811875 
" style="fill:none;stroke:#ffc100;stroke-linecap:square;stroke-width:1.5;"/>
    </g>
    <g id="line2d_131"/>
    <g id="text_34">
     <!-- h = 1 -->
     <g transform="translate(916.828125 98.011875)scale(0.12 -0.12)">
      <use xlink:href="#DejaVuSans-68"/>
      <use x="63.378906" xlink:href="#DejaVuSans-20"/>
      <use x="95.166016" xlink:href="#DejaVuSans-3d"/>
      <use x="178.955078" xlink:href="#DejaVuSans-20"/>
      <use x="210.742188" xlink:href="#DejaVuSans-31"/>
     </g>
    </g>
    <g id="line2d_132">
     <path d="M 883.228125 111.425625 
L 907.228125 111.425625 
" style="fill:none;stroke:#348fea;stroke-linecap:square;stroke-width:1.5;"/>
    </g>
    <g id="line2d_133"/>
    <g id="text_35">
     <!-- h = 3 -->
     <g transform="translate(916.828125 115.625625)scale(0.12 -0.12)">
      <use xlink:href="#DejaVuSans-68"/>
      <use x="63.378906" xlink:href="#DejaVuSans-20"/>
      <use x="95.166016" xlink:href="#DejaVuSans-3d"/>
      <use x="178.955078" xlink:href="#DejaVuSans-20"/>
      <use x="210.742188" xlink:href="#DejaVuSans-33"/>
     </g>
    </g>
   </g>
  </g>
 </g>
 <defs>
  <clipPath id="p818ecef0cb">
   <rect height="380.52" width="837" x="135" y="60.48"/>
  </clipPath>
 </defs>
</svg>
